<svg width="120" height="140" viewBox="0 0 120 140" fill="none" xmlns="http://www.w3.org/2000/svg">
<path opacity="0.4" d="M62.8047 139.747C93.7726 139.747 118.877 139.03 118.877 138.145C118.877 137.26 93.7726 136.542 62.8047 136.542C31.8368 136.542 6.73242 137.26 6.73242 138.145C6.73242 139.03 31.8368 139.747 62.8047 139.747Z" fill="#571111" fill-opacity="0.42"/>
<g clip-path="url(#clip0_164_7789)">
<path d="M120 60C120 26.8629 93.1371 0 60 0C26.8629 0 0 26.8629 0 60C0 93.1371 26.8629 120 60 120C93.1371 120 120 93.1371 120 60Z" fill="#30D158"/>
<path d="M60 120C93.1371 120 120 93.1371 120 60L36 115.007C43.3495 118.219 51.4667 120 60 120Z" fill="#2ACB52"/>
<path fill-rule="evenodd" clip-rule="evenodd" d="M85.2403 37.8749L49.4503 72.4349L39.9503 62.2799C39.0693 61.4888 37.9443 61.0228 36.762 60.9592C35.5797 60.8955 34.4112 61.238 33.4503 61.9299C32.5172 62.5938 31.8663 63.5829 31.6258 64.7025C31.3852 65.8221 31.5723 66.9912 32.1503 67.9799L43.4053 86.2849C43.9661 87.1316 44.7279 87.8264 45.6226 88.307C46.5173 88.7876 47.5172 89.0391 48.5328 89.0391C49.5484 89.0391 50.5483 88.7876 51.443 88.307C52.3377 87.8264 53.0995 87.1316 53.6603 86.2849C55.4603 83.9349 89.8203 42.9749 89.8203 42.9749C94.3203 38.3749 88.8703 34.3249 85.2703 37.8249L85.2403 37.8749Z" fill="white"/>
</g>
<defs>
<clipPath id="clip0_164_7789">
<rect width="120" height="120" fill="white"/>
</clipPath>
</defs>
</svg>
