<svg width="10" height="14" viewBox="0 0 10 14" fill="none" xmlns="http://www.w3.org/2000/svg">
<path d="M5.208 13.516C4.58267 13.516 3.97133 13.4413 3.374 13.292C2.786 13.1427 2.254 12.9047 1.778 12.578C1.302 12.2607 0.924 11.85 0.644 11.346C0.364 10.842 0.224 10.2353 0.224 9.526C0.224 8.76067 0.378 8.06067 0.686 7.426C0.994 6.782 1.428 6.21267 1.988 5.718C2.548 5.22333 3.21067 4.81267 3.976 4.486C4.75067 4.15 5.59533 3.912 6.51 3.772L6.972 5.62C6.15067 5.76933 5.43667 5.96533 4.83 6.208C4.23267 6.45067 3.738 6.73533 3.346 7.062C2.954 7.38867 2.66 7.73867 2.464 8.112C2.27733 8.49467 2.184 8.896 2.184 9.316C2.184 9.652 2.24467 9.946 2.366 10.198C2.49667 10.45 2.66933 10.66 2.884 10.828C3.09867 11.0053 3.33667 11.1453 3.598 11.248C3.85933 11.36 4.13 11.4393 4.41 11.486C4.69 11.5327 4.956 11.556 5.208 11.556C5.852 11.556 6.44933 11.4953 7 11.374C7.56 11.2527 8.05 11.1033 8.47 10.926L9.03 12.732C8.806 12.844 8.48867 12.9607 8.078 13.082C7.67667 13.2033 7.224 13.306 6.72 13.39C6.22533 13.474 5.72133 13.516 5.208 13.516ZM2.422 5.76C2.09533 5.62933 1.792 5.44267 1.512 5.2C1.24133 4.95733 1.022 4.65867 0.854 4.304C0.695333 3.94 0.616 3.52467 0.616 3.058C0.616 2.47 0.77 1.96133 1.078 1.532C1.386 1.10267 1.79667 0.771333 2.31 0.537999C2.82333 0.304666 3.38333 0.188 3.99 0.188C4.28867 0.188 4.564 0.206666 4.816 0.244C5.07733 0.281333 5.34333 0.337333 5.614 0.411999L5.306 2.274C5.11 2.22733 4.90933 2.19 4.704 2.162C4.49867 2.134 4.31667 2.12 4.158 2.12C3.83133 2.12 3.54667 2.16667 3.304 2.26C3.07067 2.35333 2.88867 2.48867 2.758 2.666C2.63667 2.834 2.576 3.03467 2.576 3.268C2.576 3.45467 2.632 3.632 2.744 3.8C2.86533 3.968 3.01933 4.11733 3.206 4.248C3.39267 4.36933 3.598 4.472 3.822 4.556C4.046 4.63067 4.26533 4.67267 4.48 4.682L2.422 5.76Z" fill="#474647"/>
</svg>
