<svg width="128" height="136" viewBox="0 0 128 136" fill="none" xmlns="http://www.w3.org/2000/svg">
<path opacity="0.4" d="M67.707 135.036C97.32 135.036 121.326 134.35 121.326 133.503C121.326 132.657 97.32 131.971 67.707 131.971C38.094 131.971 14.0879 132.657 14.0879 133.503C14.0879 134.35 38.094 135.036 67.707 135.036Z" fill="#571111" fill-opacity="0.42"/>
<path d="M22.5084 120.089C14.5525 120.089 7.39306 115.997 3.35913 109.142C-0.676786 102.288 -0.778823 94.0444 3.08373 87.0907L44.5762 12.3938C48.4922 5.34408 55.934 0.964478 64.0008 0.964478C72.0667 0.964478 79.5085 5.34408 83.4245 12.3938L124.917 87.0917C128.779 94.0444 128.677 102.289 124.642 109.143C120.607 115.998 113.449 120.09 105.493 120.09H22.5084V120.089Z" fill="#F15353"/>
<path d="M13.6211 92.9421L55.1136 18.2441C58.986 11.2736 69.0124 11.2736 72.8849 18.2441L114.377 92.9421C118.14 99.7155 113.241 108.037 105.491 108.037H22.5072C14.7584 108.037 9.8596 99.7155 13.6211 92.9421Z" fill="white"/>
<path opacity="0.21" d="M94.691 57.4991C88.868 63.3208 83.0439 69.1434 77.2209 74.9651C66.194 85.9894 55.168 97.0127 44.1411 108.037H105.493C113.242 108.037 118.141 99.7145 114.379 92.9421L94.691 57.4991Z" fill="#D0D2D3"/>
<path d="M57.3528 77.5115L54.689 48.0388V47.4832C54.689 46.0708 55.8342 44.9259 57.2468 44.9259H70.7534C72.1661 44.9259 73.3113 46.0708 73.3113 47.4832V48.0388L70.589 77.5164C70.4731 78.7733 69.419 79.734 68.1569 79.734H59.7859C58.5218 79.734 57.4668 78.7703 57.3528 77.5115ZM56.9308 91.408V85.1218C56.9308 84.0373 57.8095 83.1588 58.8943 83.1588H69.0435C70.1283 83.1588 71.007 84.0373 71.007 85.1218V91.408C71.007 92.4925 70.1283 93.371 69.0435 93.371H58.8943C57.8105 93.371 56.9308 92.4925 56.9308 91.408Z" fill="#F15353"/>
</svg>
