<svg width="25" height="24" viewBox="0 0 25 24" fill="none" xmlns="http://www.w3.org/2000/svg">
<path d="M17.9468 12.6358C17.9226 10.1091 20.1459 8.87984 20.2476 8.82261C18.9884 7.09555 17.0367 6.85958 16.3509 6.84076C14.7117 6.67848 13.1217 7.76348 12.2867 7.76348C11.4351 7.76348 10.1492 6.85644 8.76341 6.8831C6.98008 6.90897 5.31175 7.88029 4.39675 9.38863C2.50841 12.4641 3.91675 16.9836 5.72591 19.4695C6.63091 20.687 7.68841 22.0464 9.07258 21.9986C10.4267 21.9461 10.9326 21.1864 12.5667 21.1864C14.1859 21.1864 14.6609 21.9986 16.0726 21.968C17.5259 21.9461 18.4409 20.745 19.3142 19.5166C20.3601 18.1211 20.7801 16.7469 20.7968 16.6763C20.7626 16.6653 17.9742 15.6642 17.9468 12.6358Z" fill="#171740"/>
<path d="M15.2804 5.20561C16.0087 4.34874 16.507 3.18299 16.3687 2C15.3145 2.0439 13.9962 2.68596 13.237 3.52402C12.5654 4.2625 11.9654 5.47294 12.1204 6.61124C13.3045 6.69434 14.5204 6.04915 15.2804 5.20561Z" fill="#171740"/>
</svg>
