<svg width="24" height="16" viewBox="0 0 24 16" fill="none" xmlns="http://www.w3.org/2000/svg">
<path d="M0.23999 0.0960693H23.7603V15.9043H0.23999V0.0960693Z" fill="#D6D4D1"/>
<path d="M0.436523 0.289429H23.5704V15.7117H0.436523V0.289429Z" fill="#026C34"/>
<path d="M5.9741 4.2324C5.9741 4.2324 6.11422 4.03453 6.11422 3.84725C6.11422 3.6592 5.99933 3.69044 5.95683 3.72228C5.91365 3.75487 5.82932 3.83853 5.87309 3.88975C5.91559 3.94089 5.96343 3.85123 5.99264 3.85123C6.02253 3.85123 6.03049 3.86714 6.03049 3.94546C6.03049 4.02387 5.9741 4.2324 5.9741 4.2324Z" fill="white"/>
<path d="M5.63746 4.27035C5.63746 4.27035 5.6461 5.24005 5.85861 5.24005C5.85861 5.24005 5.95293 5.24005 5.97884 4.98825C6.00611 4.73653 6.11567 4.10694 6.38068 4.10694C6.64501 4.10694 6.24783 4.61638 6.45773 5.06267C6.45773 5.06267 6.53342 5.22803 6.67752 5.22803C6.67752 5.22803 6.6423 4.55458 6.5965 4.33012C6.55137 4.10431 6.5766 4.10431 6.5766 4.10431C6.5766 4.10431 6.47432 3.98078 6.54002 3.86927C6.60708 3.75768 6.63968 3.7145 6.7014 3.81144C6.76185 3.90898 6.9797 4.21794 6.78039 4.32419L6.86278 5.19754C6.86278 5.19754 7.07131 5.06529 7.02085 4.82357C6.97031 4.57981 6.86405 4.22056 6.99291 4.03057C6.99291 4.03057 7.16555 4.14283 7.16555 4.31547C7.16555 4.48887 7.15234 5.17765 7.50033 5.17765C7.84704 5.17765 7.41532 4.40522 7.41532 4.26637C7.41532 4.26637 7.3994 4.22852 7.48238 4.14089C7.56535 4.05326 7.57543 4.01998 7.63918 4.08636C7.70226 4.15274 7.81715 4.26831 7.81715 4.38194C7.81715 4.49548 7.71962 4.44705 7.71962 4.44705C7.71962 4.44705 7.83714 4.81899 7.83714 5.06733C7.83714 5.31633 7.69303 5.51759 7.42607 5.51759C7.16038 5.51759 7.10933 5.19145 7.10933 5.19145C7.10933 5.19145 6.96184 5.42928 6.88682 5.47966L6.94389 6.57221C6.94389 6.57221 6.93728 6.7363 6.84694 6.82122C6.84694 6.82122 6.82705 6.82986 6.819 6.717C6.81104 6.606 6.70741 5.60183 6.70741 5.60183C6.70741 5.60183 6.23852 5.68286 6.23852 4.98816C6.23852 4.98816 6.24385 4.87335 6.25579 4.7378C6.26908 4.60292 6.25444 4.45746 6.21134 4.56516C6.16816 4.67277 6.15351 4.76828 6.08586 5.11101C6.01677 5.4524 5.93041 5.54807 5.82813 5.54807C5.72585 5.54807 5.53662 5.23454 5.53662 4.72383C5.53654 4.21252 5.63746 4.27035 5.63746 4.27035Z" fill="white"/>
<path d="M7.34109 3.76032C7.34109 3.76032 7.357 3.95167 7.42609 3.95167C7.49654 3.95167 7.50577 3.81679 7.50577 3.81679C7.50577 3.81679 7.53227 3.84203 7.53227 3.92974C7.53227 4.0167 7.46716 4.05124 7.43202 4.05124C7.39544 4.05124 7.32898 4.01212 7.32898 3.96954C7.32898 3.96954 7.29782 4.04396 7.20215 4.04396C7.10723 4.04396 7.06609 3.92974 7.06609 3.86133C7.06609 3.79292 7.09326 3.7345 7.11519 3.7345C7.13712 3.7345 7.14711 3.83415 7.14711 3.85405C7.14711 3.8753 7.1643 3.94236 7.20545 3.94236C7.2466 3.94236 7.28597 3.90578 7.34109 3.76032ZM5.62622 6.45344C5.62622 6.45344 5.95702 5.98921 6.47366 5.85306C6.47366 5.85306 6.56265 5.81648 6.56265 5.91013C6.56265 6.00512 6.57459 6.00182 6.45377 6.03772C6.33227 6.07413 6.01281 6.21036 5.62622 6.45344ZM9.45711 5.94865C9.45711 5.90615 9.45305 5.66171 9.4119 5.65909C9.37075 5.65773 9.26381 5.74206 9.28371 5.76331C9.30361 5.78592 9.37337 6.09809 9.20996 6.09809C9.04588 6.09809 9.00007 5.69888 9.00007 5.69888C8.90982 5.95322 8.79289 6.12925 8.66936 6.12925C8.54778 6.12925 8.51526 5.97117 8.51526 5.93341C8.51526 5.89489 8.54388 5.72411 8.47818 5.72411C8.41104 5.72411 8.27625 5.87296 8.27625 5.87296L8.18455 4.55256C8.27625 4.65154 8.33204 4.57644 8.33204 4.48288C8.33204 4.38924 8.14806 3.89774 8.10479 3.82331C8.06229 3.75033 7.97728 3.84592 7.90557 3.95353C7.8325 4.06115 7.9148 4.16139 7.9148 4.16139C7.9148 4.3121 7.93343 4.54731 7.9866 5.01146C8.02405 5.33938 8.0575 5.66775 8.08693 5.99649L7.9109 6.10071C7.9109 6.10071 7.79804 5.71683 7.49518 5.71683C7.19233 5.71683 7.19495 5.97253 7.19495 6.3504C7.19495 6.72827 7.77933 6.43736 7.77933 6.43736C7.77933 6.68509 7.4194 7.18717 6.93858 7.18717C6.45775 7.18717 6.5767 6.34524 6.5767 6.34524C6.2984 6.91971 6.46977 7.5035 6.92935 7.5035C7.38825 7.5035 7.80668 7.07711 7.90633 6.87729C8.00599 6.67798 7.96543 6.36987 7.96543 6.36987L8.1009 6.29147C8.1009 6.29147 8.13544 6.7497 8.07042 7.04857C8.00599 7.34813 7.39299 7.7652 6.88286 7.7652C6.37282 7.7652 6.31373 7.28835 6.31373 7.14425C6.31373 7.00014 6.34759 6.83343 6.34759 6.72582C6.34759 6.61821 6.32101 6.56978 6.32101 6.56978C6.17487 6.76172 6.1802 7.21791 6.1802 7.21791C6.1802 8.06332 6.59067 8.09329 6.84307 8.09329C7.09538 8.09329 7.49789 8.04275 7.99532 7.69679C8.49206 7.35211 8.30021 6.21036 8.30021 6.21036L8.33738 6.1698C8.33738 6.1698 8.33204 6.33652 8.58046 6.33652C8.8282 6.33652 8.95105 6.14923 8.95105 6.14923C9.0507 6.30138 9.18609 6.30138 9.18609 6.30138C9.47642 6.30138 9.45711 5.99251 9.45711 5.94865ZM7.49789 6.22958C7.37834 6.22958 7.35844 6.00843 7.45344 6.00843C7.54903 6.00843 7.67121 6.18183 7.67121 6.18183C7.67121 6.18183 7.61939 6.22958 7.49789 6.22958ZM5.85474 6.91234C5.85474 6.91234 5.89191 7.0744 5.82951 7.2445C5.76779 7.41451 5.72985 8.01548 6.03805 7.62169C6.03805 7.62169 6.15362 8.01548 5.85474 8.01548C5.55459 8.01548 5.67279 7.36328 5.75441 7.14154C5.83484 6.91979 5.85474 6.91234 5.85474 6.91234Z" fill="white"/>
<path d="M8.89636 6.78559C8.89636 6.78559 8.76157 6.86196 8.76157 6.70719C8.76157 6.55182 8.89501 6.56909 8.89501 6.56909C8.89501 6.56909 9.01058 6.57773 9.01058 6.80083C9.01058 7.02393 8.87376 7.13154 8.87376 7.13154C8.87376 7.13154 8.94149 6.91572 8.89636 6.78559ZM9.56787 3.97029C9.56787 3.91915 9.54992 3.75769 9.42444 3.75769C9.29828 3.75769 9.17272 3.87792 9.17272 4.05987C9.17272 4.24182 9.26171 4.28306 9.26171 4.28306C9.01727 4.67287 8.16449 5.15573 8.71704 4.91663C9.26958 4.67685 9.39921 4.37661 9.39921 4.37661C9.58844 4.38533 9.47956 4.23446 9.47956 4.23446C9.47956 4.23446 9.56787 4.02008 9.56787 3.97029ZM9.36128 4.12295C9.30878 4.07909 9.32275 4.03058 9.3374 3.99544C9.35205 3.95886 9.42038 3.92169 9.42038 3.9907C9.42046 4.06114 9.36128 4.12295 9.36128 4.12295ZM9.42774 5.07004C9.42774 5.07004 9.41309 5.35368 9.17806 5.35368C8.94158 5.35368 8.98679 4.97716 9.2319 4.79978C9.2319 4.79978 9.27703 4.7958 9.22454 4.89148C9.17281 4.98639 9.06782 5.2122 9.21328 5.2122C9.35933 5.2122 9.42774 5.07004 9.42774 5.07004ZM10.9088 3.94828C10.9088 3.94828 10.8583 3.90908 10.9075 3.84744C10.9552 3.78622 11.0005 3.79291 11.0468 3.90518C11.0941 4.01677 11.1339 4.25986 11.0275 4.5236C11.0276 4.52343 11.0655 4.12295 10.9088 3.94828ZM11.1931 5.62868C11.1931 5.62868 11.2528 5.86372 11.318 5.86372C11.3824 5.86372 11.393 5.61996 11.393 5.61996C11.393 5.61996 11.4906 5.8252 11.5425 5.8252C11.5942 5.8252 11.5956 5.54825 11.5956 5.54825C11.5956 5.54825 11.6687 5.61996 11.6687 5.7694C11.6687 5.91884 11.571 5.94272 11.5391 5.94272C11.5066 5.94272 11.4216 5.87371 11.4216 5.87371C11.4216 5.87371 11.393 6.0019 11.2994 6.0019C11.2057 6.00182 11.1386 5.81648 11.1931 5.62868ZM13.7234 3.83347C13.7234 3.83347 13.7784 3.71459 13.8429 3.7963C13.9081 3.87665 13.9798 4.04268 13.9798 4.22336C13.9798 4.40532 13.8654 4.48973 13.8654 4.48973C13.8654 4.48973 13.9159 4.17697 13.7975 4.05936C13.6796 3.941 13.6756 3.92974 13.7234 3.83347ZM13.7793 4.75847C13.7793 4.75847 13.8192 4.89597 13.861 4.89597C13.9029 4.89597 13.9381 4.71732 13.9381 4.71732C13.9381 4.71732 13.9786 4.87539 14.0283 4.87539C14.0781 4.87539 14.1286 4.66618 14.1286 4.66618C14.1286 4.66618 14.1645 4.72519 14.1645 4.85939C14.1645 4.99291 14.0901 5.00612 14.0703 5.00612C14.0498 5.00612 13.9933 5.00477 13.956 4.92907C13.956 4.92907 13.9189 5.00748 13.834 5.00748C13.7494 5.00764 13.7421 4.84948 13.7793 4.75847ZM17.5737 4.13091C17.5737 4.13091 17.6287 4.01212 17.6939 4.09238C17.7576 4.17341 17.8293 4.34021 17.8293 4.5208C17.8293 4.70148 17.715 4.78649 17.715 4.78649C17.715 4.78649 17.7657 4.47373 17.648 4.35545C17.529 4.23784 17.5251 4.22658 17.5737 4.13091ZM12.3793 7.75927C12.3793 7.75927 12.5658 7.59459 12.6632 7.59459C12.7603 7.59459 12.6527 7.76723 12.6527 7.81778C12.6527 7.86824 12.6296 7.97577 12.7853 7.90016C12.9422 7.82506 13.0841 7.76731 13.1109 7.7773C13.1374 7.78924 12.8866 8.07153 12.6578 8.07153C12.4293 8.07153 12.5409 7.82709 12.5475 7.79458C12.5555 7.76206 12.5634 7.71364 12.4365 7.77138C12.3088 7.82828 12.3793 7.75927 12.3793 7.75927ZM16.7108 7.62702C16.7108 7.62702 16.8571 7.61449 16.8571 7.69679C16.8571 7.77976 16.7164 7.87874 16.8374 7.87874C16.9583 7.87874 16.9543 7.9717 16.8538 8.01886C16.7522 8.06602 16.5397 8.17093 16.5397 8.04477C16.5397 7.91794 16.6911 7.9618 16.6911 7.85147C16.6911 7.74124 16.5796 7.80101 16.5796 7.71998C16.5793 7.63972 16.7108 7.62702 16.7108 7.62702ZM16.1914 6.16988C16.1914 6.16988 16.2486 6.07759 16.3296 6.16921C16.4107 6.25887 16.444 6.36386 16.444 6.47409C16.444 6.5823 16.3589 6.65935 16.3364 6.65605C16.3133 6.65139 16.3389 6.55969 16.3389 6.48595C16.3389 6.41161 16.2261 6.31856 16.1869 6.28876C16.1477 6.25887 16.1676 6.19113 16.1914 6.16988ZM16.347 5.67974C16.347 5.67974 16.4294 5.61666 16.4294 5.77541C16.4294 5.93552 16.2687 5.89158 15.9539 6.12941C15.6378 6.36724 15.7265 6.21442 15.7413 6.19113C15.7565 6.16912 16.347 5.67974 16.347 5.67974ZM15.7604 5.18037C15.7604 5.18037 15.8594 5.31982 15.9192 5.44606C15.9804 5.57094 16.044 5.61073 16.0467 5.45469C16.0486 5.29789 16.0467 5.07275 16.0467 5.07275C16.0467 5.07275 16.042 4.97716 16.1006 4.97716C16.1584 4.97716 16.161 5.05345 16.1995 5.01162C16.2366 4.9698 16.2002 4.91078 16.1903 4.87421C16.1782 4.83763 16.1385 4.74399 16.0456 4.82976C15.9524 4.91476 15.9604 5.01298 15.9725 5.12991C15.9846 5.24548 15.999 5.44275 15.9242 5.27664C15.8479 5.1106 15.8054 4.95117 15.7038 4.95117C15.6028 4.95117 15.6274 5.23083 15.6924 5.23083C15.7565 5.23066 15.7604 5.18037 15.7604 5.18037Z" fill="white"/>
<path d="M12.9678 6.65344C12.7134 6.69857 11.5046 6.67469 11.5046 6.67469C11.9416 6.46878 12.2173 6.37251 12.2173 6.37251L12.3063 6.41832L12.3089 6.34533C12.3089 6.34533 12.7843 6.16135 12.7843 5.91632C12.7843 5.67061 12.4496 5.47063 12.2329 5.47063C12.0171 5.47063 11.8796 5.74554 11.8796 5.89702C11.8796 6.04908 11.95 6.12147 11.95 6.12147C11.95 6.12147 11.1942 6.38047 11.0966 6.45354C10.999 6.52584 10.9398 6.7072 10.9398 6.81211C10.9398 6.9171 11.2074 6.89584 11.2074 6.89584C11.7468 6.89584 11.8497 7.04791 11.8497 7.04791C11.3151 7.25179 11.4505 7.66294 11.4505 7.66294C11.0454 7.53348 10.967 7.32824 10.9073 7.10379C10.8489 6.8806 10.7943 6.4449 10.7292 6.20783C10.6648 5.97 10.4403 5.40552 10.3945 5.40552C10.3486 5.40552 10.2165 5.65724 10.2709 5.81328C10.3241 5.97 10.6243 6.95223 10.6243 6.95223C10.3227 7.53077 9.88975 7.84887 9.6095 7.84887C9.32857 7.84887 9.37167 7.59055 9.37167 7.59055C9.93031 7.29895 10.1793 6.86325 10.1793 6.59426C10.1793 6.324 10.0518 6.03231 10.0518 6.03231C10.0518 6.03231 10.1408 6.08345 10.1408 5.98913C10.1408 5.89422 9.87646 5.60059 9.83395 5.60059C9.79009 5.60059 9.6686 5.80778 9.6686 5.90015C9.6686 5.99176 9.77155 6.01902 9.77155 6.01902C9.77155 6.01902 9.99541 6.32112 9.99541 6.57224C9.99541 6.82328 9.42357 7.20319 9.42357 7.20319C9.42357 7.20319 9.48267 6.78535 9.40629 6.79873C9.33052 6.81194 9.17253 7.38446 9.17253 7.38446C9.17253 7.38446 8.52431 7.78892 8.48841 7.8062C8.45395 7.82152 7.83689 8.08916 8.08463 8.08916C8.33304 8.08916 9.16118 7.71458 9.16118 7.71458C9.16846 8.17086 9.59688 8.1828 9.59688 8.1828C10.1767 8.1828 10.7159 7.32604 10.7159 7.32604C11.0653 8.11439 11.774 8.13496 11.9393 8.13496C12.1039 8.13496 12.128 7.98882 12.128 7.88655C12.128 7.78427 11.6499 7.72779 11.6499 7.50131C11.6499 7.27414 12.5971 7.07162 12.8321 7.02776C13.0672 6.98458 13.0752 6.91422 13.1024 6.83852C13.1298 6.76359 13.2214 6.60755 12.9678 6.65344ZM12.1848 5.8165C12.216 5.8165 12.4656 5.94265 12.4656 5.97118C12.4656 5.9998 12.1808 6.0556 12.1808 6.0556C12.1342 5.92606 12.1548 5.8165 12.1848 5.8165Z" fill="white"/>
<path d="M9.81293 4.05974C9.81293 4.05974 9.77839 4.4018 9.77839 4.59375C9.77839 4.78628 9.90996 5.04731 10.0182 5.04731C10.1258 5.04731 10.416 3.98066 10.6445 3.98066C10.8729 3.98066 10.6909 4.25363 10.6909 4.79424C10.6909 5.33349 11.0297 5.14426 11.0668 5.12893C11.1053 5.11166 11.3571 4.96823 11.3571 4.63219C11.3571 4.29538 11.2395 3.96602 11.2395 3.91031C11.2395 3.85383 11.3418 3.61803 11.3949 3.6712C11.448 3.72429 11.5424 4.04908 11.5424 4.27556C11.5424 4.50281 11.6287 5.08186 11.897 5.08186C12.1652 5.08186 11.978 4.46954 11.9474 4.36988C11.9169 4.26828 11.7854 4.01462 11.8346 3.95154C11.8857 3.88846 11.9488 3.79279 11.9701 3.75164C11.9927 3.71049 12.0656 3.7629 12.1268 3.82936C12.188 3.89574 12.3101 4.0545 12.3101 4.19995C12.3101 4.34609 12.1288 4.16279 12.1288 4.16279C12.1288 4.16279 12.2476 4.51145 12.2476 4.81761C12.2476 5.12377 12.0856 5.3423 11.8915 5.3423C11.6976 5.3423 11.4678 5.05866 11.4678 5.05866C11.4678 5.05866 11.2758 5.46515 10.8793 5.46515C10.4842 5.46515 10.516 4.85673 10.516 4.85673C10.516 4.85673 10.5486 4.52728 10.5054 4.54261C10.4623 4.55649 10.3347 4.94901 10.2895 5.07593C10.2444 5.20412 10.1993 5.33755 10.0718 5.33755C9.94417 5.33755 9.67188 5.02411 9.67188 4.62829C9.67213 4.23238 9.81293 4.05974 9.81293 4.05974ZM12.8541 4.28632L13.1563 4.72871L13.1071 4.20995C13.1071 4.20995 13.0488 4.16152 13.0488 4.08049C13.0488 4.00014 13.1085 3.81353 13.1908 3.81353C13.2734 3.81353 13.5099 4.39596 13.5099 4.52618C13.5099 4.65632 13.3903 4.56064 13.3903 4.56064L13.4142 5.15239C13.4142 5.15239 14.0565 6.09152 14.283 6.67133C14.5102 7.25046 14.3713 7.23911 14.3108 7.09763C14.2491 6.9548 13.7915 5.98391 13.4515 5.57082C13.4515 5.57082 13.5564 6.65871 13.5564 6.92237C13.5564 7.18738 13.4753 7.7174 13.3544 7.7174C13.2324 7.7174 13.4051 7.35477 13.3969 7.13692C13.389 6.91712 13.243 5.53365 13.1778 5.15247L12.5197 4.23662C12.5197 4.23662 12.3902 4.25321 12.3902 4.06923C12.3902 3.8866 12.3492 3.71066 12.4327 3.71066C12.5164 3.71066 13.016 4.17489 13.016 4.2566C13.0156 4.33669 12.8541 4.28632 12.8541 4.28632Z" fill="white"/>
<path d="M14.5736 4.44241C14.5736 4.44241 14.5637 4.78913 14.6361 5.41533C14.7077 6.04103 14.7185 6.49459 14.7185 6.74301C14.7185 6.99143 14.7942 8.18956 13.5489 8.18956C13.5489 8.18956 13.4727 8.19287 13.4727 8.16162C13.4727 8.13114 13.5478 8.10456 13.6574 8.06739C13.767 8.0309 14.5965 7.77647 14.5274 6.79026C14.4595 5.80404 14.3447 4.24522 14.2909 4.19476C14.2909 4.19476 14.2403 4.16826 14.2403 4.07123C14.2403 3.97369 14.4303 3.78767 14.4807 3.78767C14.5307 3.78767 14.6906 4.32896 14.6906 4.43386C14.6905 4.53927 14.5736 4.44241 14.5736 4.44241ZM15.1753 4.522C15.1753 4.522 15.3866 6.39359 15.4563 6.85858C15.5266 7.32273 15.2703 7.54998 15.2245 7.54998C15.1786 7.54998 15.2351 7.38987 15.2351 7.1368C15.2351 6.88246 14.9867 5.22805 14.9322 4.7904C14.8792 4.35334 14.822 4.35529 14.822 4.09095C14.822 3.82662 14.9894 3.72705 15.0325 3.72705C15.0756 3.72705 15.1328 3.90697 15.1328 3.90697C15.1328 3.90697 15.2517 4.26164 15.3161 4.36062C15.3813 4.46095 15.3813 4.50405 15.3813 4.53724C15.3812 4.56924 15.2518 4.5866 15.1753 4.522Z" fill="white"/>
<path d="M15.0406 6.89045C15.0406 6.89045 15.03 7.77845 15.2969 7.77845C15.2969 7.77845 15.3707 7.82494 15.5752 7.36002C15.7811 6.89587 15.878 6.80943 15.975 6.80943C16.0721 6.80943 16.264 7.19534 16.4553 7.19534C16.6472 7.19534 16.7042 6.8985 16.7042 6.68327C16.7042 6.46618 16.6005 5.0634 16.6005 5.0634L15.9804 4.26642C15.9804 4.26642 15.9538 4.23992 15.9538 4.06584C15.9538 3.89185 15.9285 3.77958 15.9937 3.77958C16.0588 3.77958 16.1544 3.92504 16.2773 4.03062C16.4001 4.13629 16.4508 4.17346 16.4508 4.2345C16.4508 4.29496 16.359 4.25719 16.359 4.25719L16.5622 4.55734L16.5311 4.19809C16.5311 4.19809 16.4746 4.11902 16.4746 4.03604C16.4746 3.95366 16.573 3.74978 16.6348 3.74978C16.6972 3.74978 16.8906 4.2864 16.8906 4.39063C16.8906 4.49621 16.8063 4.3853 16.8063 4.3853L16.8363 4.96112L17.2174 5.48175C17.2174 5.48175 17.0594 4.49282 17.0594 4.06517C17.0594 4.06517 17.0381 4.04527 17.0381 3.98346C17.0381 3.92165 17.1624 3.71777 17.2241 3.71777C17.2865 3.71777 17.4539 4.2903 17.4539 4.4184C17.4539 4.54464 17.3523 4.45693 17.3523 4.45693L17.4553 5.81652C17.4553 5.81652 17.9441 6.50191 18.0278 6.69318C18.1115 6.88444 18.1037 7.16342 18.0729 7.14945C18.0436 7.13684 17.8087 6.66854 17.4905 6.29397C17.4905 6.29397 17.5814 7.06572 17.4114 7.1873C17.4114 7.1873 17.3955 6.86912 17.3955 6.70706C17.3955 6.54501 17.3169 6.06418 17.3169 6.06418L16.8767 5.44653C16.8767 5.44653 16.9452 6.61808 16.9452 6.93626C16.9452 7.25436 16.7905 7.54655 16.5042 7.54655C16.2179 7.54655 15.9669 7.19323 15.9669 7.19323C15.9669 7.19323 15.8693 7.26028 15.6679 7.66872C15.4653 8.07521 15.403 8.11111 15.3167 8.11111C15.2305 8.11111 14.885 7.9052 14.885 7.55527C14.8845 7.20322 15.0406 6.89045 15.0406 6.89045Z" fill="white"/>
<path d="M17.9555 4.0491C17.9555 4.0491 17.9316 4.03453 17.9316 3.96739C17.9316 3.90101 18.0498 3.71838 18.1044 3.71838C18.1582 3.71838 18.4097 4.26305 18.4097 4.36728C18.4097 4.47218 18.2936 4.35136 18.2936 4.35136C18.2936 4.35136 18.2909 4.45034 18.3566 5.26595C18.4211 6.0802 18.7936 7.55529 17.7191 7.99158C16.6446 8.42864 17.9356 7.70532 18.1175 7.25437C18.2982 6.80276 18.192 6.21431 18.1308 5.60521C18.0698 4.99763 17.9555 4.0491 17.9555 4.0491ZM16.4905 11.5569H15.3309L15.3269 11.4504C15.3269 11.4504 15.406 11.3747 15.406 11.3229C15.406 11.2705 15.3309 11.1291 15.2766 11.1291C15.2227 11.1291 15.1417 11.2473 15.1417 11.3156C15.1417 11.3841 15.2246 11.4523 15.2246 11.4523V11.5587L7.17505 11.5333C7.56291 11.922 7.59949 11.9293 9.34153 11.9725C11.0829 12.0164 15.2446 11.8915 15.2446 11.8915V12.0216C15.2446 12.0216 15.1609 12.0861 15.1609 12.1544C15.1609 12.2226 15.2313 12.3384 15.2944 12.3384C15.3575 12.3384 15.396 12.2017 15.396 12.2017H15.8064C15.8064 12.2017 15.7985 12.2846 15.8996 12.2846C16.0005 12.2846 16.0037 12.1905 16.0037 12.1905H16.4428C16.4428 12.1905 16.5065 12.2886 16.6074 12.2886C16.7077 12.2886 16.8359 12.2403 16.8359 11.8843C16.8358 11.5295 16.4905 11.5569 16.4905 11.5569ZM16.4067 12.0861L16.0023 12.0909C16.0023 12.0909 15.9752 12.0171 15.8994 12.0171C15.8235 12.0171 15.8116 12.1029 15.8116 12.1029L15.4147 12.1088C15.4147 12.1088 15.3959 12.0477 15.3403 12.0139L15.3337 11.8856L16.4217 11.8591C16.4213 11.8589 16.3636 11.9951 16.4067 12.0861Z" fill="white"/>
</svg>
