<svg width="22" height="16" viewBox="0 0 22 16" fill="none" xmlns="http://www.w3.org/2000/svg">
<path d="M20.1668 8.9168H4.0463L8.89821 13.7687C8.98576 13.8533 9.0556 13.9544 9.10364 14.0663C9.15168 14.1781 9.17697 14.2984 9.17803 14.4201C9.17908 14.5418 9.15589 14.6625 9.1098 14.7752C9.06371 14.8878 8.99564 14.9902 8.90957 15.0762C8.82351 15.1623 8.72116 15.2304 8.6085 15.2765C8.49585 15.3226 8.37514 15.3457 8.25343 15.3447C8.13171 15.3436 8.01143 15.3183 7.89959 15.2703C7.78776 15.2223 7.68661 15.1524 7.60205 15.0649L1.18538 8.64821C1.01353 8.47631 0.916992 8.2432 0.916992 8.00013C0.916992 7.75706 1.01353 7.52395 1.18538 7.35205L7.60205 0.935378C7.77493 0.7684 8.00648 0.676005 8.24683 0.678094C8.48718 0.680182 8.71709 0.776587 8.88705 0.946546C9.057 1.1165 9.15341 1.34641 9.1555 1.58676C9.15759 1.82711 9.06519 2.05866 8.89821 2.23155L4.0463 7.08346H20.1668C20.4099 7.08346 20.6431 7.18004 20.815 7.35195C20.9869 7.52386 21.0835 7.75701 21.0835 8.00013C21.0835 8.24324 20.9869 8.4764 20.815 8.64831C20.6431 8.82022 20.4099 8.9168 20.1668 8.9168Z" fill="black"/>
</svg>
