<svg width="18" height="20" viewBox="0 0 18 20" fill="none" xmlns="http://www.w3.org/2000/svg">
<path d="M9.0002 19.75C8.0122 19.75 7.1242 19.237 6.6222 18.378C6.4142 18.02 6.5342 17.561 6.8922 17.352C7.2482 17.144 7.7082 17.264 7.9182 17.622C8.3772 18.409 9.6232 18.409 10.0822 17.622C10.2912 17.264 10.7512 17.144 11.1082 17.352C11.4662 17.56 11.5872 18.02 11.3782 18.378C10.8762 19.237 9.9882 19.75 9.0002 19.75ZM17.6752 16.325C17.8002 16.065 17.7652 15.757 17.5862 15.532C17.5672 15.509 15.7452 13.189 15.7452 10.5V6.995C15.7452 3.276 12.7192 0.25 9.0002 0.25C5.2812 0.25 2.2552 3.276 2.2552 6.995V10.5C2.2552 13.189 0.433204 15.509 0.414204 15.532C0.235204 15.757 0.2002 16.066 0.3252 16.325C0.4502 16.584 0.712203 16.75 1.0002 16.75H17.0002C17.2882 16.75 17.5502 16.584 17.6752 16.325ZM3.7552 10.5V6.995C3.7552 4.103 6.1082 1.75 9.0002 1.75C11.8922 1.75 14.2452 4.103 14.2452 6.995V10.5C14.2452 12.436 14.9952 14.158 15.6132 15.25H2.3862C3.0052 14.158 3.7552 12.436 3.7552 10.5Z" fill="#474647"/>
</svg>
