<svg width="57" height="56" viewBox="0 0 57 56" fill="none" xmlns="http://www.w3.org/2000/svg">
<path d="M29.6667 51.3336H10.02C7.31335 51.3336 5.09668 49.1636 5.09668 46.5036V11.8769C5.09668 5.76356 9.64668 2.98689 15.2233 5.71689L25.5833 10.8036C27.8233 11.9002 29.6667 14.8169 29.6667 17.2902V51.3336Z" stroke="#151515" stroke-width="2.5" stroke-linecap="round" stroke-linejoin="round"/>
<path d="M51.7637 35.1403V43.9603C51.7637 49.0003 49.4303 51.3336 44.3903 51.3336H29.667V24.3136L30.7637 24.5469L41.2637 26.9036L46.0003 27.9536C49.0803 28.6303 51.6003 30.2169 51.7403 34.6969C51.7637 34.8369 51.7637 34.9769 51.7637 35.1403Z" stroke="#151515" stroke-width="2.5" stroke-linecap="round" stroke-linejoin="round"/>
<path d="M13.333 21.0002H21.4297" stroke="#151515" stroke-width="2.5" stroke-linecap="round" stroke-linejoin="round"/>
<path d="M13.333 30.3336H21.4297" stroke="#151515" stroke-width="2.5" stroke-linecap="round" stroke-linejoin="round"/>
<path d="M41.2637 26.9036V34.4169C41.2637 37.3103 38.907 39.6669 36.0137 39.6669C33.1203 39.6669 30.7637 37.3103 30.7637 34.4169V24.5469L41.2637 26.9036Z" stroke="#151515" stroke-width="2.5" stroke-linecap="round" stroke-linejoin="round"/>
<path d="M51.7403 34.6969C51.6003 37.4502 49.3137 39.6669 46.5137 39.6669C43.6203 39.6669 41.2637 37.3102 41.2637 34.4169V26.9036L46.0003 27.9536C49.0803 28.6302 51.6003 30.2169 51.7403 34.6969Z" stroke="#151515" stroke-width="2.5" stroke-linecap="round" stroke-linejoin="round"/>
</svg>
