<svg width="20" height="22" viewBox="0 0 20 22" fill="none" xmlns="http://www.w3.org/2000/svg">
<path fill-rule="evenodd" clip-rule="evenodd" d="M4.61021 6.08458V5.95941C4.61021 3.6961 6.2755 1.71991 8.65772 1.15626C9.53825 0.947914 10.4618 0.947914 11.3423 1.15626C13.7245 1.71991 15.3898 3.6961 15.3898 5.95942V6.08458H17.0931C17.7413 6.08458 18.2915 6.52203 18.3855 7.1122L18.6336 8.67045C19.1221 11.7385 19.1221 14.8556 18.6336 17.9236C18.3977 19.4052 17.0993 20.5506 15.4806 20.7051L14.767 20.7732C11.5975 21.0756 8.4025 21.0756 5.233 20.7732L4.51943 20.7051C2.90074 20.5506 1.60232 19.4052 1.3664 17.9236C0.877866 14.8556 0.877866 11.7385 1.3664 8.67045L1.61453 7.1122C1.7085 6.52203 2.25866 6.08458 2.90689 6.08458H4.61021ZM9.0816 2.67304C9.68407 2.53049 10.3159 2.53049 10.9184 2.67304C12.5484 3.05871 13.6878 4.41083 13.6878 5.95942V6.08458H6.31225V5.95941C6.31225 4.41083 7.45166 3.05871 9.0816 2.67304ZM4.61021 7.65071V9.9999C4.61021 10.4324 4.99122 10.783 5.46123 10.783C5.93123 10.783 6.31225 10.4324 6.31225 9.9999V7.65071H13.6878V9.9999C13.6878 10.4324 14.0688 10.783 14.5388 10.783C15.0088 10.783 15.3898 10.4324 15.3898 9.9999V7.65071H16.751L16.9495 8.89749C17.4141 11.8149 17.4141 14.7791 16.9495 17.6966C16.8265 18.4693 16.1493 19.0667 15.305 19.1473L14.5914 19.2154C11.5387 19.5067 8.46134 19.5067 5.40857 19.2154L4.695 19.1473C3.85073 19.0667 3.17351 18.4693 3.05046 17.6966C2.5859 14.7791 2.5859 11.8149 3.05046 8.89749L3.24899 7.65071H4.61021Z" fill="#474647" stroke="" stroke-width="0.2" stroke-linecap="round"/>
</svg>
