<svg width="46" height="45" viewBox="0 0 46 45" fill="none" xmlns="http://www.w3.org/2000/svg">
<g clip-path="url(#clip0_135_6080)">
<path d="M17.365 39.5522L3.3999 42.0022L10.6683 29.0171L19.4883 28.0371L17.365 39.5522Z" fill="#71C19B"/>
<path d="M17.3662 39.5522L30.5146 42.0022L27.9829 29.0171L19.4896 28.0371L17.3662 39.5522Z" fill="#FFDB7D"/>
<path d="M42.5993 39.5522L30.5126 42.0022L27.981 29.0171L35.9843 28.0371L42.5993 39.5522Z" fill="#4E5EA5"/>
<path d="M32.3104 25.262L23.0003 34.5721L13.6903 25.262C8.54529 20.117 8.54529 11.787 13.6903 6.64197C18.8353 1.49695 27.1654 1.49695 32.3104 6.64197C37.4554 11.787 37.4554 20.117 32.3104 25.262Z" fill="#FF4747"/>
<path d="M22.9997 8.4375C18.8347 8.4375 15.4863 11.7858 15.4863 15.9509C15.4863 20.1159 18.8347 23.4642 22.9997 23.4642C27.1647 23.4642 30.513 20.1159 30.513 15.9509C30.513 11.7858 27.1647 8.4375 22.9997 8.4375Z" fill="white"/>
</g>
<defs>
<clipPath id="clip0_135_6080">
<rect width="39.2001" height="39.2001" fill="white" transform="translate(3.3999 2.80273)"/>
</clipPath>
</defs>
</svg>
