<svg width="46" height="46" viewBox="0 0 46 46" fill="none" xmlns="http://www.w3.org/2000/svg">
<path d="M13.8999 4.43652C19.6903 4.43652 24.3999 8.40554 24.3999 13.2832C24.3806 14.4789 24.0989 15.6558 23.5746 16.7306C23.0504 17.8054 22.2964 18.752 21.3661 19.5034C21.7139 20.4662 22.184 21.3805 22.7647 22.2236C22.9019 22.4351 22.9799 22.6796 22.9906 22.9315C23.0012 23.1835 22.944 23.4337 22.8251 23.656C22.7061 23.8783 22.5297 24.0647 22.3142 24.1957C22.0987 24.3266 21.852 24.3974 21.5999 24.4006C18.8151 24.5742 16.057 23.7701 13.8019 22.127C8.05625 22.0822 3.39983 18.1314 3.39983 13.2832C3.39983 8.40554 8.10945 4.43652 13.8999 4.43652Z" fill="#34E29F"/>
<path d="M10.4013 13.2017H17.4013C17.7726 13.2017 18.1287 13.0542 18.3913 12.7917C18.6538 12.5291 18.8013 12.173 18.8013 11.8017C18.8013 11.4304 18.6538 11.0743 18.3913 10.8118C18.1287 10.5492 17.7726 10.4017 17.4013 10.4017H10.4013C10.03 10.4017 9.67391 10.5492 9.41136 10.8118C9.14881 11.0743 9.00131 11.4304 9.00131 11.8017C9.00131 12.173 9.14881 12.5291 9.41136 12.7917C9.67391 13.0542 10.03 13.2017 10.4013 13.2017ZM10.4013 17.4017H17.4013C17.7726 17.4017 18.1287 17.2542 18.3913 16.9917C18.6538 16.7291 18.8013 16.373 18.8013 16.0017C18.8013 15.6304 18.6538 15.2743 18.3913 15.0118C18.1287 14.7492 17.7726 14.6017 17.4013 14.6017H10.4013C10.03 14.6017 9.67391 14.7492 9.41136 15.0118C9.14881 15.2743 9.00131 15.6304 9.00131 16.0017C9.00131 16.373 9.14881 16.7291 9.41136 16.9917C9.67391 17.2542 10.03 17.4017 10.4013 17.4017ZM27.669 15.1463L31.1928 18.5343L37.4536 7.0571L35.698 5.29729C35.2365 4.84132 34.6762 4.49778 34.0604 4.29334C33.4447 4.08889 32.7902 4.02902 32.1476 4.11838C31.505 4.20775 30.8916 4.44393 30.3551 4.80862C29.8185 5.17331 29.3732 5.6567 29.0536 6.2213L26.9088 10.0741C26.4579 10.8849 26.288 11.8221 26.4255 12.7396C26.563 13.6571 27.0002 14.5033 27.669 15.1463ZM6.1705 35.144L7.7651 36.7456L19.2493 30.482L15.9243 27.1136C15.2778 26.4616 14.4359 26.0387 13.5268 25.9093C12.6178 25.7799 11.6913 25.9511 10.8885 26.3968L7.0987 28.5136C6.53602 28.833 6.05428 29.2775 5.69066 29.8126C5.32705 30.3478 5.09128 30.9594 5.00158 31.6002C4.91188 32.2409 4.97063 32.8938 5.17331 33.5082C5.37599 34.1227 5.71716 34.6823 6.1705 35.144Z" fill="white"/>
<path d="M5.70281 34.6764L11.5366 40.527C12.7882 41.5679 14.4008 42.0712 16.0222 41.927C20.9447 41.927 28.7931 39.0528 34.2699 33.5592C41.7543 26.0537 44.5585 14.1831 41.1859 10.8035L35.3899 4.98926L29.0969 16.5225L30.1483 17.5333C30.2379 17.6313 33.1093 20.8443 27.3371 26.6333C21.5663 32.421 18.3449 29.5579 18.2091 29.4333L17.2011 28.4071L5.70281 34.6764Z" fill="#4E5EA5"/>
</svg>
