<svg width="46" height="46" viewBox="0 0 46 46" fill="none" xmlns="http://www.w3.org/2000/svg">
<path d="M42.5571 19.4315L22.999 31.4015L3.44092 19.4315C3.53641 18.7696 3.7881 18.1399 4.17518 17.5946C4.56226 17.0493 5.07361 16.604 5.66693 16.2955L22.999 7.32422L40.331 16.2955C40.9244 16.604 41.4357 17.0493 41.8228 17.5946C42.2099 18.1399 42.4616 18.7696 42.5571 19.4315Z" fill="#27AB6A"/>
<path d="M32.7998 6.2002H13.127C12.5792 6.2 12.037 6.30884 11.5317 6.52036C11.0265 6.73188 10.5684 7.04185 10.1842 7.4322C9.77648 7.84175 9.45437 8.32835 9.23661 8.86362C9.01884 9.3989 8.90977 9.97216 8.91576 10.55L8.99976 28.6059C9.00124 28.9762 9.1494 29.3309 9.41179 29.5922C9.67418 29.8535 10.0294 30.0003 10.3998 30.0003H35.5999C35.9712 30.0003 36.3273 29.8528 36.5898 29.5902C36.8524 29.3277 36.9999 28.9716 36.9999 28.6003V10.4002C36.9987 9.28664 36.5559 8.21899 35.7685 7.43158C34.9811 6.64416 33.9134 6.20131 32.7998 6.2002Z" fill="white"/>
<path d="M27.2001 13.2004H18.8001C18.4288 13.2004 18.0727 13.0529 17.8102 12.7903C17.5476 12.5278 17.4001 12.1717 17.4001 11.8004C17.4001 11.4291 17.5476 11.073 17.8102 10.8104C18.0727 10.5479 18.4288 10.4004 18.8001 10.4004H27.2001C27.5714 10.4004 27.9275 10.5479 28.1901 10.8104C28.4526 11.073 28.6001 11.4291 28.6001 11.8004C28.6001 12.1717 28.4526 12.5278 28.1901 12.7903C27.9275 13.0529 27.5714 13.2004 27.2001 13.2004ZM30.0002 17.4004H16.0001C15.6288 17.4004 15.2727 17.2529 15.0101 16.9904C14.7476 16.7278 14.6001 16.3717 14.6001 16.0004C14.6001 15.6291 14.7476 15.273 15.0101 15.0105C15.2727 14.7479 15.6288 14.6004 16.0001 14.6004H30.0002C30.3715 14.6004 30.7276 14.7479 30.9901 15.0105C31.2527 15.273 31.4002 15.6291 31.4002 16.0004C31.4002 16.3717 31.2527 16.7278 30.9901 16.9904C30.7276 17.2529 30.3715 17.4004 30.0002 17.4004ZM30.0002 21.6004H16.0001C15.6288 21.6004 15.2727 21.4529 15.0101 21.1904C14.7476 20.9278 14.6001 20.5717 14.6001 20.2004C14.6001 19.8291 14.7476 19.473 15.0101 19.2105C15.2727 18.9479 15.6288 18.8004 16.0001 18.8004H30.0002C30.3715 18.8004 30.7276 18.9479 30.9901 19.2105C31.2527 19.473 31.4002 19.8291 31.4002 20.2004C31.4002 20.5717 31.2527 20.9278 30.9901 21.1904C30.7276 21.4529 30.3715 21.6004 30.0002 21.6004Z" fill="#25324B"/>
<path d="M23.742 31.1901C23.5189 31.3274 23.262 31.4001 23 31.4001C22.738 31.4001 22.4811 31.3274 22.258 31.1901L3.6771 18.541C3.49616 19.014 3.40225 19.5158 3.3999 20.0222V35.6001C3.40101 36.7136 3.84387 37.7813 4.63129 38.5687C5.4187 39.3561 6.48634 39.799 7.59992 39.8001H38.4C39.5136 39.799 40.5812 39.3561 41.3687 38.5687C42.1561 37.7813 42.5989 36.7136 42.6 35.6001V20.0222C42.5977 19.5158 42.5038 19.014 42.3228 18.541L23.742 31.1901Z" fill="#71C19B"/>
<path d="M42.2215 37.3234C41.8894 38.0596 41.3524 38.6848 40.6747 39.1242C39.997 39.5636 39.2071 39.7987 38.3995 39.8014H7.59936C6.79167 39.7987 6.00183 39.5636 5.32411 39.1242C4.6464 38.6848 4.10944 38.0596 3.77734 37.3234L20.6194 25.7313C21.3233 25.259 22.1518 25.0068 22.9994 25.0068C23.8471 25.0068 24.6755 25.259 25.3794 25.7313L42.2215 37.3234Z" fill="#34E29F"/>
</svg>
