<svg width="22" height="21" viewBox="0 0 22 21" fill="none" xmlns="http://www.w3.org/2000/svg">
<path d="M11 20.8654C17.0751 20.8654 22 16.2247 22 10.5C22 4.77538 17.0751 0.134644 11 0.134644C4.92487 0.134644 0 4.77538 0 10.5C0 16.2247 4.92487 20.8654 11 20.8654Z" fill="#3D9635"/>
<path d="M3.24773 6.1869C3.21107 6.72418 3.16432 7.6752 3.5924 7.77108C4.11307 7.82204 3.82615 6.83474 4.01407 6.65507C4.04982 6.5687 4.11582 6.5687 4.12132 6.67753V7.51799C4.11447 7.60651 4.13991 7.69458 4.19341 7.76762C4.24692 7.84067 4.3253 7.8943 4.41557 7.91965C4.55307 7.91015 4.6429 7.91447 4.69607 8.05699C4.71929 8.53898 4.74068 9.02126 4.76023 9.50383C4.76023 9.50383 5.07832 9.60489 5.09298 8.69101C5.06134 8.32932 5.05155 7.96624 5.06365 7.60351C5.06365 7.50244 5.1874 7.49294 5.27632 7.54822C5.41382 7.64929 5.4734 7.77281 5.68423 7.72098C6.0069 7.62424 6.19848 7.46185 6.20398 7.19753C6.19579 6.94331 6.14696 6.69172 6.05915 6.45122C6.0729 6.40544 5.99498 6.29056 6.01148 6.24478C6.06832 6.34152 6.1554 6.33115 6.17465 6.24478C6.14365 6.06695 6.04609 5.90546 5.89965 5.78956C5.78507 5.68332 5.6164 5.70319 5.55498 5.93209C5.54855 6.21984 5.64152 6.50177 5.8199 6.7354C5.87477 6.86352 5.89706 7.00197 5.88498 7.13965C5.84212 7.1645 5.79066 7.17263 5.74154 7.16231C5.69242 7.15199 5.6495 7.12403 5.6219 7.08437C5.6219 7.08437 5.36157 6.88311 5.36157 6.83992C5.424 6.62691 5.41665 6.40109 5.34048 6.19209C5.31181 6.06682 5.25458 5.94892 5.17273 5.84657C5.10948 5.76883 5.0224 5.76883 4.98115 5.84657C4.8901 6.12601 4.8975 6.42571 5.00223 6.70085C5.05907 6.88398 5.15165 6.99886 5.10948 6.99886C5.07373 7.1051 5.0004 7.0766 4.94815 6.9574C4.88421 6.70009 4.85344 6.43647 4.85648 6.17222C4.83265 5.96578 4.80607 5.52266 4.67865 5.41036C4.60073 5.2998 4.4834 5.35508 4.44215 5.46133C4.43211 5.66033 4.4364 5.85974 4.45498 6.0582C4.53136 6.37573 4.58465 6.69781 4.61448 7.02218C4.62548 7.47739 4.3679 7.2174 4.3789 6.99022C4.4339 6.70289 4.43079 6.40836 4.36973 6.12212C4.32757 6.00292 4.27807 5.97528 4.17357 5.9986C4.09107 5.9891 3.88207 6.23268 3.8234 6.63693C3.79281 6.76723 3.76986 6.89901 3.75465 7.03168C3.7244 7.23813 3.59515 7.38497 3.50532 6.99886C3.43107 6.71554 3.37973 6.0271 3.24773 6.1869Z" fill="white"/>
<path d="M4.66313 8.39116C4.20479 8.63475 3.75654 8.85501 3.30371 9.08219C3.38012 8.85228 3.52006 8.64567 3.70917 8.48356C3.89829 8.32144 4.12978 8.20965 4.37988 8.15967C4.65488 8.16917 4.58704 8.27455 4.66313 8.38943" fill="white"/>
<path d="M6.39791 5.35171C6.36625 5.35731 6.33546 5.36659 6.30624 5.37936C6.23566 5.40209 6.17716 5.44968 6.14298 5.51216C6.10881 5.57463 6.10161 5.64714 6.12291 5.7145C6.25399 6.55928 6.33741 7.2028 6.46757 8.04671C6.49049 8.14778 6.41074 8.27648 6.30991 8.26784C6.13849 8.14346 6.09541 7.89123 5.80299 7.90419C5.67948 7.92764 5.56672 7.98657 5.48021 8.07289C5.3937 8.1592 5.3377 8.26865 5.31991 8.38618C5.28065 8.56802 5.28065 8.75544 5.31991 8.93727C5.37199 9.00831 5.44866 9.06007 5.53679 9.08371C5.62491 9.10734 5.71902 9.10138 5.80299 9.06684C5.93132 9.01156 6.03857 8.87163 6.08349 8.90618C6.11191 8.96146 6.08349 9.40199 5.47757 9.73714C5.10632 9.90989 4.81207 9.9574 4.65257 9.63607C4.55632 9.43481 4.65991 8.67209 4.41974 8.84658C3.70382 10.8022 6.09449 11.0777 6.36308 8.93296C6.38049 8.87335 6.43182 8.81375 6.47124 8.82757C6.48957 8.83708 6.50149 8.85953 6.50607 8.90531C6.45107 10.848 4.65716 10.9784 4.35282 10.3737C4.27918 10.1616 4.24295 9.93957 4.24557 9.71641C4.24525 9.63904 4.21965 9.56364 4.17224 9.50046C4.09891 9.44604 4.00174 9.5972 3.97974 9.85893C3.95788 10.0141 3.95083 10.1708 3.95866 10.3271C4.05032 11.8707 6.36399 11.209 6.74166 9.93753C6.81614 9.53645 6.83708 9.12817 6.80399 8.72219H6.81132L6.81682 8.71787C7.05057 8.97701 7.36682 8.74983 7.44107 8.66259C7.44862 8.64948 7.45939 8.63827 7.47248 8.62989C7.48556 8.62152 7.50059 8.61622 7.51631 8.61444C7.53202 8.61266 7.54795 8.61446 7.56277 8.61968C7.57759 8.62491 7.59087 8.6334 7.60149 8.64445C7.64657 8.67841 7.69981 8.7014 7.75654 8.7114C7.81326 8.72141 7.87173 8.71811 7.92678 8.70182C7.98184 8.68552 8.0318 8.65671 8.07226 8.61794C8.11273 8.57917 8.14245 8.53162 8.15882 8.47947C8.19941 8.23746 8.22543 7.99349 8.23674 7.74871C8.14597 7.76723 8.06076 7.80472 7.98741 7.85841C7.97776 7.86895 7.97142 7.88181 7.96907 7.89555C7.95991 7.96034 7.95074 8.03289 7.93974 8.102C7.93854 8.10811 7.93701 8.11417 7.93516 8.12014C7.92965 8.12845 7.92169 8.13505 7.91224 8.13914C7.90119 8.14622 7.88833 8.15039 7.875 8.15123C7.86166 8.15207 7.84833 8.14954 7.83638 8.14391C7.82442 8.13828 7.81428 8.12974 7.80699 8.11919C7.7997 8.10863 7.79553 8.09644 7.79491 8.08386C7.74082 7.82472 7.51257 7.78067 7.37416 8.19356C7.28249 8.27994 7.11199 8.2903 7.09366 8.17542C7.11749 7.89555 7.01024 7.85841 6.79941 7.98711C6.73066 7.43602 6.66191 6.91257 6.59224 6.36234C6.68391 6.36234 6.76091 6.43144 6.84249 6.3252C6.76829 5.99884 6.6422 5.68491 6.46849 5.39404L6.45291 5.36554L6.44859 5.36435L6.44557 5.36122H6.43732C6.43732 5.3569 6.42632 5.3569 6.42541 5.35171C6.42449 5.34653 6.40432 5.3474 6.39516 5.35171M5.75349 8.36891C5.78204 8.36672 5.81049 8.37422 5.83369 8.39006C5.85688 8.4059 5.87331 8.42903 5.87999 8.45528C5.88839 8.47997 5.89036 8.50621 5.88574 8.53177C5.88111 8.55732 5.87002 8.58146 5.85341 8.60213C5.83507 8.63495 5.77366 8.62113 5.72874 8.62113C5.70573 8.62329 5.68257 8.61873 5.6624 8.60807C5.64223 8.59741 5.62603 8.58116 5.61599 8.56153C5.59949 8.51057 5.64532 8.46047 5.66732 8.41901C5.68932 8.37754 5.66732 8.4095 5.67466 8.40518C5.69708 8.38792 5.72397 8.37659 5.75257 8.37236" fill="white"/>
<path d="M8.00405 5.30426C7.9476 5.30934 7.89277 5.3249 7.84272 5.35004C7.78569 5.40709 7.74986 5.48003 7.7406 5.55792C7.73135 5.6358 7.74917 5.71441 7.79139 5.78193C7.88305 5.82339 7.97472 5.92532 7.91147 5.97715C7.65664 6.26738 6.98655 6.75455 6.95264 6.84525V6.85475H6.95814C7.12335 6.88129 7.29201 6.88275 7.45772 6.85907V6.8582C7.75841 6.58649 8.03438 6.29148 8.28272 5.97628C8.2488 5.94432 8.21397 5.921 8.18005 5.8899C8.17202 5.88383 8.16554 5.87614 8.16109 5.8674C8.15664 5.85865 8.15433 5.84907 8.15433 5.83937C8.15433 5.82967 8.15664 5.8201 8.16109 5.81135C8.16554 5.8026 8.17202 5.79491 8.18005 5.78884C8.24502 5.73352 8.28439 5.65641 8.2897 5.57404C8.29502 5.49168 8.26585 5.41064 8.20847 5.34831C8.14513 5.31588 8.07316 5.30147 8.0013 5.30685M7.96922 5.55994C8.01139 5.55562 8.06089 5.6014 8.08472 5.65582C8.10855 5.71024 8.09755 5.77502 8.0563 5.78884C8.01505 5.80266 7.9573 5.75688 7.9298 5.69728C7.9023 5.63768 7.91697 5.5729 7.96097 5.56426C7.96097 5.56426 7.96097 5.55994 7.9683 5.55994" fill="white"/>
<path d="M3.3505 9.77843C3.23571 9.96916 3.16422 10.1803 3.14055 10.3984C3.11688 10.6165 3.14155 10.8369 3.213 11.0456C3.24422 11.0884 3.28872 11.1211 3.3404 11.1392C3.39208 11.1573 3.44843 11.1599 3.50175 11.1467C3.66125 11.0732 3.73275 10.7286 3.69333 10.6051C3.64016 10.5126 3.60166 10.4988 3.54391 10.5774C3.433 10.8167 3.38533 10.6508 3.37525 10.5126C3.36232 10.2857 3.37245 10.058 3.4055 9.83285C3.43391 9.64541 3.40641 9.69983 3.3505 9.77843Z" fill="white"/>
<path d="M14.2582 9.08943C14.0126 8.52451 13.6706 7.96651 13.5625 7.75748C13.4543 7.54844 12.633 6.28386 12.512 6.13702C12.2443 5.80187 12.9446 6.27954 12.4203 5.60839C12.2232 5.42872 12.2131 5.42008 12.0426 5.27324C11.9629 5.20845 11.7566 5.10048 11.7236 5.28274C11.7048 5.416 11.7107 5.55132 11.7411 5.68267C11.7931 5.80431 11.8629 5.91855 11.9482 6.02214C12.8266 7.25337 13.5903 8.55389 14.2307 9.90916C14.3435 9.85474 14.3224 9.18876 14.2527 9.09202" fill="white"/>
<path d="M13.174 10.9719C13.1236 11.0272 13.2923 11.2794 13.5123 11.2751C13.8789 11.2345 14.2016 11.0159 14.4968 10.4398C14.6197 10.2432 14.6966 10.0241 14.7223 9.79714C14.7598 8.70951 14.6781 7.62114 14.4784 6.54932C14.4658 6.47462 14.4689 6.3983 14.4876 6.32474C14.5114 6.29278 14.5921 6.32474 14.6333 6.25131C14.6975 6.18221 14.4683 5.62248 14.3382 5.40654C14.2923 5.30979 14.2758 5.24587 14.2007 5.41604C14.1075 5.60878 14.0635 5.81941 14.0723 6.03105C14.2465 7.30772 14.2997 8.43496 14.417 9.70903C14.4365 9.84011 14.4063 9.97347 14.3318 10.0856C14.0218 10.4587 13.6284 10.7628 13.1795 10.9762" fill="white"/>
<path d="M17.3658 12.8386C17.1018 13.0001 17.1018 13.1841 17.3163 13.1919C17.5351 13.1974 17.7516 13.1491 17.9445 13.0517C18.1374 12.9543 18.3 12.8112 18.4163 12.6365C18.5212 12.4102 18.5811 12.1678 18.5932 11.9212C18.6427 10.747 18.5761 9.5709 18.3943 8.40824C18.3709 8.29932 18.3586 8.18854 18.3576 8.07742C18.3824 8.01781 18.5006 8.08692 18.541 8.01263C18.6061 7.94785 18.2357 7.43908 18.1028 7.22313C18.0588 7.12639 18.0423 7.06161 17.9653 7.23696C17.8782 7.4294 17.8518 7.64142 17.8892 7.84765C18.0852 9.16341 18.2076 10.488 18.2559 11.8159C18.2465 11.9267 18.2219 12.0358 18.1826 12.1406C18.0823 12.3019 17.9623 12.4515 17.8251 12.5864C17.7041 12.6779 17.4492 12.7695 17.3658 12.8386Z" fill="white"/>
<path d="M18.3102 9.71883C18.3102 9.39405 18.3194 9.11418 18.3102 8.86887C18.301 8.62355 18.1947 7.71572 18.1617 7.52396C18.1287 7.3322 18.0884 7.03247 18.0389 6.79838C18.0099 6.66241 17.9945 6.52417 17.993 6.38549C18.0123 6.32071 18.0975 6.38981 18.1351 6.31207C18.0918 5.95441 17.9747 5.60817 17.7905 5.29281C17.7428 5.19693 17.653 5.22803 17.543 5.38523C17.4385 5.4863 17.4742 5.7152 17.5164 5.93633C17.8033 7.37296 17.9426 8.83229 17.9325 10.2941C17.917 10.409 18.3185 9.94082 18.3139 9.72056" fill="white"/>
<path d="M16.3751 7.91788C16.2092 7.91356 15.8627 7.57841 15.7619 7.38147C15.7315 7.28564 15.7383 7.18275 15.7811 7.09124C15.8425 7.05064 15.937 6.99968 16.0066 7.05064C16.0066 7.05064 16.08 7.15602 16.0662 7.16984C16.1579 7.21562 16.1955 7.18798 16.2037 7.14652C16.2092 7.08174 16.1753 7.04114 16.1753 6.96772C16.2129 6.76127 16.4329 6.73277 16.52 6.86147C16.5791 6.97282 16.6104 7.09543 16.6116 7.21994C16.6116 7.27954 16.52 7.21044 16.4741 7.22426C16.4283 7.23808 16.4118 7.29855 16.4054 7.35383C16.3944 7.50499 16.3788 7.73994 16.377 7.91874" fill="white"/>
<path d="M13.3256 10.0816C13.3724 9.63586 13.31 8.7358 13.3064 8.47494C13.2908 7.85992 13.1936 6.66963 13.1505 6.47183C13.0983 6.09522 13.2945 6.51329 13.266 6.29302C13.1796 5.94045 13.0129 5.60977 12.7775 5.32386C12.7041 5.2133 12.7087 5.19084 12.5941 5.3515C12.5196 5.59844 12.5251 5.86071 12.6097 6.10472C12.7675 6.82562 12.8704 7.55622 12.9177 8.29095C12.9674 9.06463 12.9735 9.84024 12.936 10.6145C13.0607 10.6145 13.2605 10.3986 13.3293 10.0816" fill="white"/>
<path d="M18.874 9.36927C18.5853 8.851 18.1407 8.24635 18.027 8.03731C17.9133 7.82828 16.9151 6.28816 16.7868 6.15254C16.4201 5.75261 16.9536 6.08776 16.718 5.77075C16.5913 5.61027 16.4472 5.46264 16.2881 5.33022C16.2028 5.27494 16.1506 5.15747 16.1222 5.34836C16.1072 5.51641 16.1029 5.68515 16.1093 5.85367C16.1285 5.96785 16.1783 6.07551 16.2542 6.16636C17.2374 7.43749 18.1107 8.78096 18.8658 10.1838C18.9758 10.1294 18.9382 9.46342 18.8658 9.37186" fill="white"/>
<path d="M15.3478 14.2888C15.2964 14.3032 15.2503 14.3309 15.2148 14.3689C15.1794 14.4068 15.156 14.4534 15.1474 14.5033C15.1388 14.5532 15.1453 14.6043 15.1661 14.6509C15.187 14.6975 15.2214 14.7375 15.2653 14.7665C12.5446 14.7665 8.36922 14.7207 7.47364 14.7207C6.9713 14.7207 5.38822 14.656 5.35889 14.656C5.51625 14.8822 5.73778 15.0624 5.99833 15.176C6.25888 15.2896 6.548 15.3321 6.83289 15.2986C8.04289 15.2986 13.6382 15.2848 15.2296 15.2848C15.1894 15.3869 15.1775 15.497 15.1952 15.6046C15.2128 15.7123 15.2594 15.8139 15.3304 15.8998L15.3368 15.9041C15.3378 15.9058 15.3393 15.9071 15.3411 15.9079C15.3429 15.9087 15.3449 15.9089 15.3469 15.9084H15.3515C15.4578 15.9361 15.5036 15.8532 15.5412 15.7987C15.9479 15.8203 16.3557 15.8188 16.7622 15.7944C16.8218 15.886 16.8832 15.9732 16.9951 15.9594C17.194 15.9136 17.3498 15.8903 17.3562 15.4636C17.3562 15.4636 17.3351 14.738 16.8841 14.7838C16.7769 14.7976 16.479 14.8296 16.479 14.8296C16.1343 14.7881 15.8767 14.7838 15.4881 14.7648C15.5247 14.719 15.5871 14.5212 15.5091 14.4521C15.4836 14.4319 15.4507 14.4219 15.4175 14.4245H15.412C15.4086 14.4219 15.4058 14.4186 15.4037 14.415V14.4106C15.386 14.3703 15.3716 14.3287 15.3606 14.2863H15.3515M15.5348 15.3228C15.929 15.3409 16.3021 15.3271 16.6999 15.3453C16.7241 15.3762 16.7363 15.4139 16.7345 15.4523C16.7326 15.4907 16.7169 15.5273 16.6898 15.556C16.6898 15.5603 16.6843 15.5603 16.6843 15.5603H16.6733C16.5441 15.556 16.4707 15.556 16.3415 15.5508C16.3415 15.5413 16.3415 15.537 16.3415 15.5284C16.3094 15.4316 16.0903 15.442 16.0362 15.5189V15.5413C16.0348 15.5458 16.0348 15.5506 16.0362 15.5552C15.867 15.5653 15.6972 15.5592 15.5293 15.537C15.4807 15.4722 15.4862 15.353 15.5458 15.3211" fill="white"/>
<path d="M8.46681 5.74605C8.20281 6.54505 8.61989 7.42611 8.90772 7.34405C9.11489 7.43043 9.24781 7.0089 9.33489 6.54937C9.39447 6.4198 9.43756 6.40684 9.46781 6.47163C9.45864 7.08664 9.50814 7.22485 9.65756 7.40883C9.6975 7.4493 9.74571 7.48174 9.7993 7.50421C9.85288 7.52669 9.91073 7.53873 9.96937 7.53962C10.028 7.5405 10.0862 7.53022 10.1406 7.50938C10.1949 7.48854 10.2442 7.45757 10.2855 7.41833C10.3066 7.40019 10.544 7.14711 10.544 7.14711C10.5561 7.13147 10.5718 7.11853 10.5898 7.10918C10.6078 7.09983 10.6278 7.09431 10.6483 7.09299C10.6688 7.09168 10.6894 7.0946 10.7086 7.10156C10.7278 7.10852 10.7451 7.11935 10.7594 7.13329C10.8364 7.20671 10.8281 7.33973 10.995 7.42697C11.0831 7.45955 11.1797 7.46609 11.2719 7.44573C11.364 7.42536 11.4475 7.37905 11.5111 7.31295C11.6027 7.1402 11.6266 7.08319 11.6706 7.0184C11.7393 6.92252 11.8539 6.96398 11.8539 6.99594C11.8438 7.05123 11.7787 7.10219 11.8209 7.19807C11.9034 7.26285 11.9226 7.22053 11.9703 7.20757C12.139 7.12119 12.2655 6.73422 12.2655 6.73422C12.271 6.58738 12.1967 6.6012 12.1445 6.63316C12.0922 6.66511 12.0757 6.68844 12.0125 6.72904C11.9309 6.73854 11.7714 6.79814 11.6935 6.66943C11.611 6.51309 11.611 6.29283 11.5477 6.13734C11.5477 6.12784 11.4423 5.89376 11.5413 5.87821C11.5899 5.88771 11.6962 5.91881 11.7146 5.82293C11.7686 5.73137 11.6018 5.46446 11.49 5.33662C11.4699 5.30881 11.4432 5.28582 11.412 5.2695C11.3808 5.25318 11.346 5.24398 11.3103 5.24263C11.2747 5.24129 11.2392 5.24784 11.2067 5.26176C11.1742 5.27569 11.1457 5.29659 11.1233 5.3228C11.0578 5.40485 11.0233 5.50518 11.0252 5.60785C11.0112 5.67467 11.0121 5.74353 11.0278 5.81001C11.0436 5.8765 11.074 5.93915 11.1169 5.99396C11.2741 6.22772 11.3468 6.50319 11.3241 6.77913C11.2974 6.82408 11.2584 6.86143 11.2111 6.88726C11.1639 6.9131 11.1101 6.92647 11.0555 6.92598C10.9867 6.90784 10.8721 6.87501 10.8071 6.39734C10.8217 6.02113 10.7766 5.64497 10.6732 5.28134C10.6201 5.13449 10.5816 4.99197 10.4541 5.24506C10.3979 5.32463 10.3618 5.41531 10.3486 5.5101C10.3354 5.6049 10.3455 5.70129 10.3781 5.79183C10.4771 6.0646 10.5054 6.35575 10.4606 6.64093C10.4165 6.72319 10.3646 6.80154 10.3056 6.87501C10.2683 6.92096 10.2135 6.95143 10.1528 6.95997C10.092 6.96851 10.0302 6.95446 9.98022 6.92079C9.92437 6.89113 9.8771 6.849 9.84258 6.79809C9.80805 6.74718 9.78733 6.68906 9.78222 6.62884C9.80527 6.31478 9.79452 5.99933 9.75014 5.68731C9.67131 5.51456 9.53839 5.57675 9.48339 5.62771C9.22473 5.93485 9.05625 6.30064 8.99481 6.68844C8.91872 6.94757 8.83806 6.87156 8.78214 6.76618C8.64464 6.63316 8.63639 5.56725 8.47047 5.74173" fill="white"/>
<path d="M9.36063 7.40475C9.36063 7.40907 9.36063 7.40907 9.3533 7.40907V7.41512C9.33588 7.42462 9.31297 7.45658 9.26805 7.49286C9.22935 7.54181 9.2018 7.59777 9.18713 7.65722C9.17246 7.71668 9.17099 7.77835 9.1828 7.83837C9.1828 7.86169 9.32763 8.27976 9.45047 8.57777C9.55319 8.90058 9.58776 9.23923 9.55222 9.57457C9.35521 10.0054 9.02488 10.3703 8.60438 10.6215C8.54301 10.6508 8.47518 10.666 8.40638 10.666C8.33759 10.666 8.26975 10.6508 8.20838 10.6215V10.6111C8.1703 10.5832 8.14044 10.5465 8.12167 10.5046C8.10289 10.4628 8.09582 10.417 8.10113 10.3718C8.52427 10.1267 8.85711 9.76482 9.05447 9.3353C9.14757 9.09285 9.15656 8.8288 9.08013 8.58122C9.05638 8.45542 9.00072 8.33688 8.91788 8.23571V8.23139C8.97105 8.20375 9.10855 8.31777 9.13055 8.24521C9.09092 8.04764 8.99598 7.86364 8.85555 7.71226C8.83722 7.68706 8.81309 7.66609 8.78496 7.6509C8.75683 7.63571 8.72543 7.6267 8.69309 7.62454C8.66075 7.62239 8.62831 7.62713 8.59819 7.63843C8.56807 7.64973 8.54105 7.66729 8.51913 7.6898C8.40547 7.7589 8.38163 8.00249 8.43388 8.21843C8.49622 8.37478 8.66397 8.40242 8.78313 8.72375V8.72807C8.80572 8.8397 8.79847 8.95487 8.76205 9.06321C8.55952 9.32847 8.31924 9.56622 8.04797 9.76979L8.04338 9.77411V9.77929H8.03605V9.77411C8.0387 9.73902 8.0387 9.70381 8.03605 9.66872C8.03605 9.57716 8.07088 9.35603 8.06813 9.31544C7.86463 9.45796 7.79313 9.88899 7.75738 10.0177C7.23889 10.3221 6.75374 10.6742 6.30905 11.0689C6.13122 11.3591 7.53005 10.7294 7.68405 10.656L7.68793 10.6573L7.69047 10.6603C7.71997 10.7553 7.76185 10.8464 7.81513 10.9316C7.89696 11.043 8.01347 11.1278 8.14859 11.1742C8.28372 11.2206 8.4308 11.2264 8.56955 11.1907C9.02967 10.9808 9.41087 10.6436 9.66222 10.2241C9.70347 10.1594 9.77038 10.1093 9.83088 10.1594C9.97487 10.4268 10.1967 10.65 10.4704 10.803C10.7441 10.9559 11.0583 11.0323 11.3764 11.0231C11.5505 10.7977 11.468 10.6837 11.3975 10.6413C11.3745 10.6232 11.0198 10.4764 10.9666 10.3295C10.9327 10.1965 11.0152 10.0764 11.1848 9.984C11.67 9.93645 12.1482 9.83943 12.6111 9.69464C12.628 9.51408 12.6812 9.3382 12.7679 9.17637C12.7858 9.1395 12.8136 9.10765 12.8485 9.08394V9.07444C12.8492 9.0713 12.8492 9.06808 12.8485 9.06494L12.7679 9.01398L11.2205 9.00102C11.2052 8.99539 11.1907 8.98784 11.1775 8.97856V8.95092C11.1893 8.93517 11.2064 8.92362 11.226 8.9181C11.5982 8.86713 12.2545 8.75312 12.2976 8.07764C12.309 8.00124 12.3036 7.92344 12.2817 7.84911C12.2597 7.77477 12.2218 7.70549 12.1702 7.6456C12.1186 7.5857 12.0544 7.53647 11.9817 7.50097C11.909 7.46548 11.8293 7.44449 11.7476 7.4393C11.5926 7.47078 11.4565 7.55764 11.3679 7.68166C11.2794 7.80568 11.2453 7.95721 11.2728 8.10442C11.26 8.19079 11.303 8.37046 11.216 8.38946C10.6449 8.44906 10.0243 8.82654 10.0005 9.0969H9.99313V9.10122H9.9858L9.97847 9.0969C9.94922 9.07998 9.92623 9.05498 9.91261 9.02531C9.899 8.99563 9.89543 8.96272 9.90238 8.93105C9.87622 8.44234 9.74262 7.96407 9.51005 7.52655C9.43122 7.44017 9.39547 7.40734 9.37255 7.40216H9.36247M11.6294 8.00681C11.6817 8.00549 11.7327 8.02238 11.7726 8.05425C11.8125 8.08612 11.8385 8.13074 11.8457 8.17956V8.19684L11.8356 8.20634C11.8054 8.2383 11.7394 8.23398 11.6725 8.19166C11.6475 8.17833 11.6262 8.15966 11.6103 8.13716C11.5943 8.11465 11.5842 8.08894 11.5808 8.06209V8.05691C11.5808 8.04741 11.5808 8.04309 11.5881 8.04309V8.03359C11.5881 8.02927 11.5881 8.02927 11.5955 8.02408C11.6002 8.01949 11.6059 8.01589 11.6122 8.0135C11.6186 8.01112 11.6253 8.01002 11.6321 8.01026M10.192 9.39318H10.2076C10.4213 9.43578 10.6384 9.46178 10.8566 9.47092C11.04 9.48474 11.1252 9.63158 10.9575 9.6955C10.7897 9.75942 10.6311 9.80175 10.6311 10.0592C10.6539 10.131 10.6539 10.2076 10.6311 10.2794C10.6311 10.2837 10.6311 10.2889 10.6238 10.2889V10.2984H10.6192L10.6119 10.3027L10.6093 10.3058L10.6055 10.3071C10.5642 10.3114 10.5065 10.2665 10.4625 10.2475C10.3434 10.171 10.243 10.0714 10.1682 9.95532C10.0934 9.83924 10.0459 9.70941 10.0289 9.57457C10.0267 9.55276 10.0292 9.53076 10.0362 9.50986C10.0432 9.48896 10.0546 9.46959 10.0696 9.45286C10.0846 9.43614 10.103 9.4224 10.1237 9.41245C10.1444 9.4025 10.167 9.39653 10.1902 9.3949" fill="white"/>
<path d="M5.20342 5.75546C5.38675 5.84184 5.71767 5.80643 5.70392 5.50238C5.70392 5.47474 5.69842 5.38318 5.69658 5.35985C5.66175 5.26829 5.55908 5.28643 5.538 5.38317C5.53067 5.41082 5.549 5.46091 5.52425 5.47905C5.4995 5.49719 5.45183 5.48337 5.4555 5.40131C5.45367 5.37464 5.44346 5.34908 5.42617 5.32789C5.42088 5.32225 5.41413 5.31801 5.40657 5.31559C5.39902 5.31316 5.39092 5.31264 5.38308 5.31407C5.35925 5.31839 5.35925 5.32357 5.34825 5.34603C5.33967 5.3682 5.33503 5.39155 5.3345 5.41513C5.3345 5.44709 5.318 5.4566 5.29692 5.46092C5.27583 5.46523 5.28133 5.46523 5.26025 5.45141C5.23917 5.43759 5.23367 5.43241 5.23367 5.40995C5.23322 5.3853 5.23046 5.36073 5.22542 5.33653C5.21428 5.32271 5.19841 5.31294 5.1805 5.30889C5.0815 5.30889 5.076 5.42809 5.0815 5.47387C5.07325 5.48337 5.06958 5.69414 5.2025 5.75374" fill="white"/>
<path d="M10.4386 8.10599C10.6173 8.19236 11.0418 8.14313 10.94 7.84685C10.9389 7.7992 10.9352 7.75163 10.929 7.70433C10.8942 7.61277 10.7952 7.63522 10.7713 7.72765C10.7658 7.75961 10.7851 7.81403 10.7594 7.82871C10.7338 7.8434 10.6861 7.82871 10.6907 7.74233C10.6888 7.71698 10.6785 7.69282 10.6613 7.67323C10.6562 7.66817 10.6499 7.66429 10.6429 7.6619C10.6359 7.6595 10.6284 7.65865 10.621 7.65941C10.5972 7.66373 10.5972 7.66891 10.5834 7.69137C10.5759 7.71377 10.5716 7.73701 10.5706 7.76047C10.5706 7.7933 10.5559 7.80193 10.5348 7.80625C10.5138 7.81057 10.5193 7.81057 10.4991 7.79675C10.4789 7.78293 10.4725 7.77861 10.4725 7.75529C10.4734 7.73033 10.4693 7.70544 10.4606 7.68187C10.4506 7.66768 10.4352 7.65775 10.4175 7.65423C10.3213 7.65423 10.3158 7.77343 10.3185 7.81921C10.313 7.82353 10.3084 8.03515 10.4413 8.09907" fill="white"/>
<path d="M13.494 7.13594C13.6718 7.22232 14.0073 7.18172 13.9935 6.87681C13.9935 6.85435 13.988 6.76279 13.9862 6.73428C13.9486 6.64791 13.8487 6.66518 13.8276 6.76192C13.8194 6.78957 13.8377 6.83966 13.812 6.85348C13.7864 6.86731 13.7433 6.86299 13.7433 6.77574C13.7396 6.74947 13.7296 6.72435 13.714 6.70232C13.7014 6.69778 13.6879 6.69629 13.6745 6.698C13.6507 6.698 13.6507 6.70232 13.637 6.72565C13.629 6.74944 13.6244 6.77413 13.6232 6.79907C13.624 6.80404 13.6236 6.8091 13.6222 6.81394C13.6208 6.81878 13.6184 6.8233 13.615 6.82719C13.6116 6.83109 13.6075 6.83429 13.6027 6.83658C13.598 6.83888 13.5928 6.84022 13.5875 6.84053C13.5645 6.84485 13.5691 6.84485 13.5526 6.83103C13.5449 6.82674 13.5384 6.8207 13.5338 6.81346C13.5291 6.80622 13.5265 6.79801 13.526 6.78957C13.5251 6.76332 13.5211 6.73725 13.5141 6.71183C13.5013 6.70291 13.4866 6.69672 13.471 6.69369C13.3739 6.69369 13.3656 6.81289 13.372 6.85435C13.3647 6.86385 13.361 7.07461 13.494 7.13421" fill="white"/>
<path d="M15.0744 9.57174C14.967 9.73892 14.9017 9.92708 14.8836 10.1218C14.8655 10.3164 14.895 10.5124 14.9699 10.6947C15.0366 10.887 15.1729 11.0512 15.3549 11.1585C15.3817 11.186 15.415 11.2071 15.4522 11.2201C15.4893 11.2331 15.5292 11.2375 15.5686 11.233C15.6079 11.2285 15.6456 11.2153 15.6784 11.1944C15.7112 11.1735 15.7383 11.1455 15.7573 11.1127C15.9406 10.9106 15.9406 10.401 16.0323 10.2999C16.0946 10.1116 16.2441 10.1436 16.3174 10.2265C16.3837 10.3242 16.4731 10.4061 16.5786 10.4658C16.6133 10.5043 16.6558 10.536 16.7035 10.559C16.7513 10.582 16.8035 10.5957 16.857 10.5995C16.9105 10.6033 16.9642 10.597 17.0151 10.581C17.066 10.565 17.113 10.5396 17.1534 10.5064C17.3049 10.416 17.4146 10.275 17.4605 10.1116C17.5273 9.33889 17.5349 8.56265 17.4834 7.7889C17.4742 7.73361 17.3065 6.83355 17.3065 6.82405C17.3065 6.81455 17.2826 6.36538 17.2652 6.25914C17.2652 6.21336 17.2515 6.19954 17.2946 6.20472C17.3404 6.2505 17.3441 6.25482 17.3734 6.26346C17.4192 6.27296 17.4605 6.19004 17.433 6.1123C17.2955 5.83675 17.1479 5.55688 17.0058 5.28566C16.9737 5.24506 16.9279 5.20792 16.872 5.28998C16.8382 5.32278 16.8116 5.36159 16.7938 5.40414C16.776 5.4467 16.7674 5.49216 16.7684 5.53788C16.7812 5.7331 16.8142 5.93781 16.8252 6.13475C16.8821 6.46904 16.9389 6.80937 16.9966 7.14883C17.0498 7.87009 17.0654 8.53089 17.1176 9.25214C17.1302 9.51287 17.0668 9.77186 16.9343 10.001C16.9343 10.001 16.8096 10.0874 16.7235 9.99672C16.6038 9.85968 16.4988 9.71183 16.41 9.55533C16.2816 9.43181 16.1964 9.46377 16.1047 9.55533C15.8795 9.88782 15.7002 10.246 15.5712 10.6212C15.5254 10.6947 15.4026 10.7586 15.266 10.6169C15.0863 10.2996 15.0198 9.93613 15.0762 9.58038" fill="white"/>
<path d="M13.5736 5.35975C13.6609 5.43008 13.7282 5.51986 13.7694 5.62093C13.8105 5.72201 13.8242 5.83116 13.8092 5.93849C13.7771 6.14493 13.6937 6.37038 13.6314 6.34274C13.569 6.3151 13.6754 6.13629 13.6139 5.94799C13.5764 5.8236 13.3591 5.60248 13.382 5.5351C13.3733 5.51026 13.3721 5.48359 13.3788 5.45818C13.3855 5.43276 13.3997 5.40966 13.4198 5.39156C13.4398 5.37346 13.465 5.36111 13.4922 5.35594C13.5194 5.35076 13.5477 5.35298 13.5736 5.36234" fill="white"/>
<path d="M15.5897 9.77852C15.6043 9.47496 15.593 9.17079 15.5558 8.86895C15.5457 8.63055 15.2991 6.6594 15.2469 6.47628C15.1864 6.13076 15.4889 6.4305 15.454 6.22837C15.3504 5.97528 15.0874 5.60386 15.0104 5.38359C14.959 5.28685 14.9801 5.20393 14.8729 5.36027C14.7783 5.63895 14.7447 5.93278 14.7739 6.22405C15.0832 7.58907 15.2478 8.97969 15.2652 10.3754C15.3889 10.3754 15.531 10.0774 15.5934 9.77852" fill="white"/>
<path d="M17.5733 7.723C17.7227 7.80938 17.807 8.23263 17.7914 8.35615C17.763 8.58074 17.686 8.82432 17.6301 8.78804C17.5742 8.75177 17.642 8.45376 17.6127 8.36134C17.5778 8.22831 17.3808 7.98473 17.4009 7.91131C17.3899 7.88716 17.3862 7.86062 17.3902 7.83462C17.3943 7.80861 17.4058 7.78416 17.4236 7.76396C17.4415 7.74376 17.4649 7.7286 17.4913 7.72015C17.5177 7.71171 17.5461 7.7103 17.5733 7.71609" fill="white"/>
<path d="M7.47938 8.99709C7.61688 9.05237 7.7003 9.36937 7.68655 9.46094C7.65813 9.62592 7.5848 9.8004 7.53163 9.78572C7.47846 9.77103 7.54446 9.53781 7.51421 9.46871C7.50413 9.29595 7.30705 9.20958 7.31438 9.13788C7.2768 9.00486 7.39322 8.98154 7.48122 9.00054" fill="white"/>
<path d="M3.74711 5.25469C3.95428 5.31948 3.96528 5.63994 3.95428 5.73668C3.92586 5.90944 3.85253 6.08997 3.79844 6.06751C3.74436 6.04505 3.79844 5.81442 3.76911 5.74273C3.73978 5.63648 3.56194 5.45768 3.58578 5.40326C3.54544 5.28838 3.66369 5.23051 3.74894 5.25642" fill="white"/>
<path d="M7.81629 6.76846C7.73558 6.8283 7.6794 6.91267 7.65734 7.00718C7.63527 7.10169 7.64868 7.20049 7.69529 7.28673C7.72194 7.32558 7.76143 7.35509 7.80765 7.3707C7.85387 7.38631 7.90425 7.38715 7.95103 7.3731C8.10595 7.39556 8.19762 7.06473 8.19762 7.06473C8.19762 7.06473 8.2022 6.97317 8.0207 7.15111C7.94187 7.17011 7.92903 7.13729 7.91253 7.09151C7.89378 7.00478 7.90205 6.91478 7.93637 6.83238C7.96478 6.746 7.9052 6.71317 7.81629 6.77278" fill="white"/>
<path d="M9.00073 5.13105C8.9316 5.1839 8.87458 5.24944 8.83314 5.32368C8.7917 5.39792 8.76669 5.47932 8.75964 5.56294C8.75323 5.67351 8.73306 5.67351 8.80273 5.74693C8.85406 5.82467 8.90539 5.81603 9.00623 5.75643C9.03213 5.73934 9.05415 5.71755 9.07099 5.69233C9.08783 5.66712 9.09916 5.63899 9.10431 5.60959C9.12906 5.48002 8.97781 5.66919 8.95673 5.52321C8.93564 5.37723 9.02089 5.33922 9.11439 5.2062C9.11439 5.11982 9.11439 5.05936 9.00073 5.12846" fill="white"/>
<path d="M9.95553 5.30617C9.91767 5.47075 9.89467 5.63806 9.88678 5.8063C9.85836 5.93068 10.0114 5.9851 10.0784 5.82444C10.1473 5.64934 10.1839 5.46441 10.1865 5.27767C10.1563 5.08936 10.0344 5.09973 9.95553 5.30617Z" fill="white"/>
<path d="M15.9762 8.55717C15.9982 8.53816 16.8241 7.91365 16.8241 7.91365C16.9093 7.88169 16.8928 8.23843 16.8525 8.23066C16.602 8.49282 16.3056 8.71253 15.9762 8.88022C15.9358 8.90786 15.8946 8.6375 15.9762 8.55889" fill="white"/>
<path d="M16.7323 8.55246C16.8799 8.6302 16.9394 9.08023 16.9211 9.20203C16.9266 9.4413 16.7836 9.63392 16.724 9.60628C16.6644 9.57864 16.7304 9.30827 16.702 9.21153C16.6382 9.06513 16.5921 8.91243 16.5645 8.75632C16.5233 8.60429 16.6434 8.52137 16.7323 8.54987" fill="white"/>
<path d="M11.8083 10.4994C11.8764 10.4179 11.9556 10.3453 12.0439 10.2834C12.0705 10.2708 12.1009 10.267 12.1301 10.2728C12.1592 10.2787 12.1854 10.2937 12.2043 10.3154C12.219 10.4018 12.153 10.4812 12.1741 10.5952C12.1906 10.641 12.2043 10.6963 12.2841 10.6738C12.3363 10.6304 12.3974 10.5974 12.4636 10.5769C12.5298 10.5564 12.5997 10.5489 12.6691 10.5546C12.7727 10.5546 12.7736 10.7378 12.7122 10.7378C12.5302 10.7851 12.3541 10.8505 12.1869 10.933C12.1635 10.9488 12.1344 10.9552 12.106 10.951C12.0775 10.9468 12.0519 10.9323 12.0347 10.9105C12.0186 10.8869 12.0089 10.8599 12.0063 10.8319C12.0037 10.8039 12.0085 10.7757 12.0201 10.7499C12.0274 10.6574 11.9917 10.6073 11.9183 10.6125C11.8633 10.6488 11.8157 10.6669 11.7882 10.603C11.7781 10.5521 11.7744 10.5253 11.8102 10.4968" fill="white"/>
<path d="M17.6036 10.7432C17.6157 10.7545 17.6253 10.7679 17.6319 10.7828C17.6384 10.7976 17.6418 10.8135 17.6418 10.8295C17.6418 10.8456 17.6384 10.8615 17.6319 10.8763C17.6253 10.8911 17.6157 10.9046 17.6036 10.9159C17.5441 10.9755 17.5046 11.0023 17.446 11.0628C17.4194 11.1137 17.4029 11.1872 17.4854 11.2096C17.6394 11.2554 17.9978 11.0144 17.9978 11.0032C18.017 10.9867 18.0304 10.9653 18.0365 10.9416C18.0425 10.9178 18.0409 10.893 18.0317 10.8701C17.9978 10.8295 17.9226 10.852 17.8722 10.852C17.8456 10.852 17.7668 10.8339 17.8035 10.7656C17.8301 10.7248 17.8519 10.6813 17.8686 10.6361C17.8915 10.5765 17.8731 10.5402 17.7833 10.5065C17.7102 10.4951 17.6355 10.4951 17.5624 10.5065C17.5092 10.5203 17.4936 10.548 17.4808 10.6127C17.4808 10.7138 17.5431 10.7086 17.6055 10.7501" fill="white"/>
</svg>
