<svg width="59" height="58" viewBox="0 0 59 58" fill="none" xmlns="http://www.w3.org/2000/svg">
<g clip-path="url(#clip0_52_1782)">
<rect x="53" y="52.5" width="7.5" height="7.5" fill="#CCC440"/>
<rect x="45.5" y="52.5" width="7.5" height="7.5" fill="#F72990"/>
<rect x="38" y="52.5" width="7.5" height="7.5" fill="#F72990"/>
<rect x="30.5" y="52.5" width="7.5" height="7.5" fill="#93879F"/>
<rect x="23" y="52.5" width="7.5" height="7.5" fill="#93879F"/>
<rect x="15.5" y="52.5" width="7.5" height="7.5" fill="#F72990"/>
<rect x="8" y="52.5" width="7.5" height="7.5" fill="#F72990"/>
<rect x="0.5" y="52.5" width="7.5" height="7.5" fill="#F72990"/>
<rect x="53" y="45" width="7.5" height="7.5" fill="white"/>
<rect x="45.5" y="45" width="7.5" height="7.5" fill="#93879F"/>
<rect x="38" y="45" width="7.5" height="7.5" fill="#CCC440"/>
<rect x="30.5" y="45" width="7.5" height="7.5" fill="#93879F"/>
<rect x="23" y="45" width="7.5" height="7.5" fill="#F72990"/>
<rect x="15.5" y="45" width="7.5" height="7.5" fill="#93879F"/>
<rect x="8" y="45" width="7.5" height="7.5" fill="#CCC440"/>
<rect x="0.5" y="45" width="7.5" height="7.5" fill="#F72990"/>
<rect x="53" y="37.5" width="7.5" height="7.5" fill="#CCC440"/>
<rect x="45.5" y="37.5" width="7.5" height="7.5" fill="#F72990"/>
<rect x="38" y="37.5" width="7.5" height="7.5" fill="white"/>
<rect x="30.5" y="37.5" width="7.5" height="7.5" fill="#93879F"/>
<rect x="23" y="37.5" width="7.5" height="7.5" fill="#F72990"/>
<rect x="15.5" y="37.5" width="7.5" height="7.5" fill="white"/>
<rect x="8" y="37.5" width="7.5" height="7.5" fill="white"/>
<rect x="0.5" y="37.5" width="7.5" height="7.5" fill="#F72990"/>
<rect x="53" y="30" width="7.5" height="7.5" fill="white"/>
<rect x="45.5" y="30" width="7.5" height="7.5" fill="#CCC440"/>
<rect x="38" y="30" width="7.5" height="7.5" fill="#CCC440"/>
<rect x="30.5" y="30" width="7.5" height="7.5" fill="#93879F"/>
<rect x="23" y="30" width="7.5" height="7.5" fill="#CCC440"/>
<rect x="15.5" y="30" width="7.5" height="7.5" fill="#93879F"/>
<rect x="8" y="30" width="7.5" height="7.5" fill="#93879F"/>
<rect x="0.5" y="30" width="7.5" height="7.5" fill="#F72990"/>
<rect x="53" y="22.5" width="7.5" height="7.5" fill="#93879F"/>
<rect x="45.5" y="22.5" width="7.5" height="7.5" fill="white"/>
<rect x="38" y="22.5" width="7.5" height="7.5" fill="#93879F"/>
<rect x="30.5" y="22.5" width="7.5" height="7.5" fill="#93879F"/>
<rect x="23" y="22.5" width="7.5" height="7.5" fill="#F72990"/>
<rect x="15.5" y="22.5" width="7.5" height="7.5" fill="#CCC440"/>
<rect x="8" y="22.5" width="7.5" height="7.5" fill="#93879F"/>
<rect x="0.5" y="22.5" width="7.5" height="7.5" fill="#F72990"/>
<rect x="53" y="15" width="7.5" height="7.5" fill="#CCC440"/>
<rect x="45.5" y="15" width="7.5" height="7.5" fill="#CCC440"/>
<rect x="38" y="15" width="7.5" height="7.5" fill="#93879F"/>
<rect x="30.5" y="15" width="7.5" height="7.5" fill="#F72990"/>
<rect x="23" y="15" width="7.5" height="7.5" fill="#CCC440"/>
<rect x="15.5" y="15" width="7.5" height="7.5" fill="#CCC440"/>
<rect x="8" y="15" width="7.5" height="7.5" fill="white"/>
<rect x="0.5" y="15" width="7.5" height="7.5" fill="#93879F"/>
<rect x="53" y="7.5" width="7.5" height="7.5" fill="white"/>
<rect x="45.5" y="7.5" width="7.5" height="7.5" fill="#93879F"/>
<rect x="38" y="7.5" width="7.5" height="7.5" fill="#F72990"/>
<rect x="30.5" y="7.5" width="7.5" height="7.5" fill="#F72990"/>
<rect x="23" y="7.5" width="7.5" height="7.5" fill="white"/>
<rect x="15.5" y="7.5" width="7.5" height="7.5" fill="#CCC440"/>
<rect x="8" y="7.5" width="7.5" height="7.5" fill="white"/>
<rect x="0.5" y="7.5" width="7.5" height="7.5" fill="#F72990"/>
<rect x="53" width="7.5" height="7.5" fill="white"/>
<rect x="45.5" width="7.5" height="7.5" fill="#F72990"/>
<rect x="38" width="7.5" height="7.5" fill="#93879F"/>
<rect x="30.5" width="7.5" height="7.5" fill="#F72990"/>
<rect x="23" width="7.5" height="7.5" fill="#93879F"/>
<rect x="15.5" width="7.5" height="7.5" fill="#93879F"/>
<rect x="8" width="7.5" height="7.5" fill="#93879F"/>
<rect x="0.5" width="7.5" height="7.5" fill="#93879F"/>
</g>
<defs>
<clipPath id="clip0_52_1782">
<rect x="0.5" width="60" height="60" rx="30" fill="white"/>
</clipPath>
</defs>
</svg>
