<svg width="10" height="6" viewBox="0 0 10 6" fill="none" xmlns="http://www.w3.org/2000/svg">
<path d="M9.14941 1.89695L5.39941 5.64695C5.34716 5.69939 5.28506 5.741 5.21669 5.76939C5.14831 5.79778 5.07501 5.8124 5.00098 5.8124C4.92694 5.8124 4.85364 5.79778 4.78526 5.76939C4.71689 5.741 4.6548 5.69939 4.60254 5.64695L0.852538 1.89695C0.746866 1.79128 0.6875 1.64796 0.6875 1.49851C0.6875 1.34907 0.746866 1.20575 0.852538 1.10008C0.95821 0.994405 1.10153 0.935039 1.25098 0.935039C1.40042 0.935039 1.54374 0.994405 1.64941 1.10008L5.00144 4.45211L8.35348 1.09961C8.45915 0.993937 8.60247 0.93457 8.75191 0.93457C8.90136 0.93457 9.04468 0.993937 9.15035 1.09961C9.25602 1.20528 9.31539 1.3486 9.31539 1.49805C9.31539 1.64749 9.25602 1.79081 9.15035 1.89648L9.14941 1.89695Z" fill="#474647"/>
</svg>
