<svg width="16" height="18" viewBox="0 0 16 18" fill="none" xmlns="http://www.w3.org/2000/svg">
<g clip-path="url(#clip0_99_10117)">
<path d="M13.8449 10.3351C13.7142 10.1826 13.5966 10.0475 13.505 9.93422C13.5007 9.9255 13.492 9.92115 13.4876 9.91679C13.4397 9.87757 13.37 9.88629 13.3307 9.93422C13.2392 10.0475 13.1216 10.1826 12.9908 10.3351C12.4156 11.0019 11.6182 11.9257 11.6182 12.697C11.6182 13.1938 11.8186 13.6426 12.1454 13.9694C12.4723 14.2919 12.9211 14.4967 13.4179 14.4967C13.9147 14.4967 14.3635 14.2963 14.6903 13.9694C15.0172 13.6426 15.2176 13.1938 15.2176 12.697C15.2176 11.9257 14.4202 11.0019 13.8449 10.3351ZM14.5335 13.8082C14.2459 14.0958 13.8537 14.2745 13.4179 14.2745C12.9821 14.2745 12.5899 14.0958 12.3023 13.8126C12.0191 13.5293 11.8404 13.1328 11.8404 12.697C11.8404 12.0085 12.6074 11.1195 13.1608 10.4789C13.2523 10.37 13.3395 10.2698 13.4179 10.1739C13.4963 10.2698 13.5835 10.37 13.675 10.4746C14.2284 11.1152 14.9954 11.9998 14.9954 12.6926C14.9954 13.1284 14.8167 13.5206 14.5335 13.8082Z" fill="#394149" stroke="#394149" stroke-width="0.5"/>
</g>
<path d="M5.20194 4.28251L0.568104 13.7861C0.254717 14.4289 0.523513 15.2069 1.16737 15.5209L5.08431 17.4307C5.72817 17.7447 6.50673 17.4773 6.82003 16.8347L11.4539 7.3311C11.4755 7.28683 11.4807 7.23632 11.4685 7.18858L10.7364 4.30642C10.8475 4.31733 10.9594 4.29404 11.0569 4.23968C11.1545 4.18531 11.2332 4.10245 11.2824 4.00218L11.8514 2.83521C11.9151 2.70427 11.9243 2.55339 11.8769 2.41569C11.8295 2.278 11.7294 2.16474 11.5985 2.10076L9.23356 0.947636C9.1026 0.884027 8.95176 0.874962 8.81412 0.92243C8.67649 0.969898 8.5633 1.07002 8.4994 1.20084L7.9304 2.36781C7.82742 2.579 7.87395 2.82376 8.02676 2.98525L5.3051 4.18338C5.26007 4.20318 5.22352 4.2383 5.20194 4.28251ZM8.873 1.383C8.90526 1.31684 8.98533 1.28926 9.05131 1.32143L11.4163 2.47455C11.4822 2.50672 11.5096 2.5867 11.4774 2.65286L10.9084 3.81984C10.8928 3.85148 10.8654 3.87569 10.8321 3.88717C10.7987 3.89865 10.7622 3.89648 10.7304 3.88113L8.36548 2.728C8.33383 2.71245 8.30963 2.68501 8.29814 2.65167C8.28666 2.61833 8.28883 2.5818 8.30419 2.55006L8.873 1.383ZM5.54238 4.53317L8.47301 3.24331L10.2584 4.11386L11.047 7.21715L6.44642 16.6525C6.34338 16.8625 6.16126 17.023 5.94002 17.0988C5.71879 17.1746 5.47651 17.1595 5.26638 17.0568L1.34962 15.1471C1.13946 15.0447 0.978493 14.8631 0.902039 14.6421C0.825586 14.4212 0.839886 14.179 0.941803 13.9686L5.54238 4.53317Z" fill="#394149" stroke="#394149" stroke-width="0.6"/>
<defs>
<clipPath id="clip0_99_10117">
<rect width="5" height="6" fill="white" transform="translate(10.7202 9.5)"/>
</clipPath>
</defs>
</svg>
