<svg width="24" height="16" viewBox="0 0 24 16" fill="none" xmlns="http://www.w3.org/2000/svg">
<path d="M22.2026 0.138062H1.79742C0.804703 0.138062 0 0.942765 0 1.93548V14.0648C0 15.0575 0.804703 15.8622 1.79742 15.8622H22.2026C23.1952 15.8622 24 15.0575 24 14.0648V1.93548C24 0.942765 23.1953 0.138062 22.2026 0.138062Z" fill="#41479B"/>
<path d="M23.9751 1.63827C23.8335 0.787064 23.094 0.137939 22.2026 0.137939H21.7349L14.069 5.16045V0.137986H9.93103V5.1605L2.26509 0.137986H1.79742C0.906 0.137986 0.166547 0.787064 0.0248906 1.63831L6.57698 5.93113H0V10.0691H6.57698L0.0248906 14.3618C0.166547 15.213 0.906 15.8621 1.79742 15.8621H2.26509L9.93103 10.8396V15.8621H14.069V10.8396L21.7349 15.8621H22.2026C23.094 15.8621 23.8335 15.213 23.9751 14.3618L17.423 10.069H24V5.93103H17.423L23.9751 1.63827Z" fill="#F5F5F5"/>
<path d="M13.2414 0.138062H10.7586V6.75873H0V9.24151H10.7586V15.8622H13.2414V9.24151H24V6.75873H13.2414V0.138062Z" fill="#FF4B55"/>
<path d="M1.16183 15.7463L9.90791 10.0691H8.38784L0.432031 15.2334C0.628401 15.4629 0.879375 15.6393 1.16183 15.7463ZM16.2366 10.0691H14.7165L23.1876 15.5678C23.4251 15.4117 23.6225 15.2017 23.7635 14.9549L16.2366 10.0691ZM0.189453 1.13179L7.58305 5.93118H9.10311L0.725047 0.492744C0.499078 0.66103 0.315651 0.879886 0.189453 1.13179ZM15.5887 5.93118L23.5591 0.757354C23.3605 0.528429 23.1074 0.353331 22.8232 0.248291L14.0686 5.93118H15.5887Z" fill="#FF4B55"/>
</svg>
