<svg width="20" height="17" viewBox="0 0 20 17" fill="none" xmlns="http://www.w3.org/2000/svg">
<path d="M19.7772 5.84209C19.5382 5.50526 19.1356 5.31203 18.6724 5.31203H16.9097V3.39501C16.9097 2.65622 16.3086 2.05519 15.5698 2.05519H9.3906C9.12771 2.05519 8.71743 1.8469 8.56238 1.6347L8.09989 1.00209C7.73908 0.508605 7.00602 0.136353 6.39462 0.136353H4.25345C3.58043 0.136353 2.90357 0.614921 2.67913 1.24963L2.53189 1.66621C2.46251 1.86247 2.18999 2.05519 1.98177 2.05519H1.33982C0.601035 2.05519 0 2.65622 0 3.39501V15.4946C0 15.5587 0.01166 15.6199 0.0320832 15.6771C0.0430914 15.9165 0.117542 16.1423 0.253189 16.3335C0.492184 16.6704 0.894853 16.8636 1.358 16.8636H15.0086C15.8339 16.8636 16.6939 16.2535 16.9666 15.4746L19.9125 7.05995C20.0655 6.62288 20.0162 6.179 19.7772 5.84209ZM1.33982 3.14153H1.98177C2.65494 3.14153 3.33173 2.66296 3.55609 2.02825L3.70326 1.61182C3.77271 1.41548 4.04524 1.22276 4.25345 1.22276H6.39455C6.65745 1.22276 7.06772 1.43105 7.22285 1.64325L7.68534 2.27579C8.04615 2.76935 8.77921 3.14153 9.3906 3.14153H15.5698C15.7073 3.14153 15.8233 3.25762 15.8233 3.39501V5.31203H5.02178C4.19653 5.31203 3.33651 5.92212 3.06384 6.70102L1.08634 12.3495V3.39501C1.08634 3.25762 1.20243 3.14153 1.33982 3.14153ZM18.8872 6.70102L15.9412 15.1157C15.82 15.4619 15.3755 15.7772 15.0086 15.7772H1.358C1.25313 15.7772 1.17136 15.7502 1.13928 15.705C1.1072 15.6597 1.10864 15.5736 1.14334 15.4746L4.08927 7.05995C4.2105 6.7137 4.65503 6.39837 5.02185 6.39837H18.6725C18.7774 6.39837 18.8591 6.42538 18.8913 6.47065C18.9233 6.51591 18.9218 6.60202 18.8872 6.70102Z" fill="#000002"/>
</svg>
