<svg width="177" height="62" viewBox="0 0 177 62" fill="none" xmlns="http://www.w3.org/2000/svg">
<path d="M159.348 42.0927C161.017 40.1731 161.406 38.1089 161.4 35.9117C161.4 30.9277 161.377 25.9436 161.406 20.9596C161.429 17.2765 163.638 14.4607 167.157 13.524C171.771 12.2982 176.618 15.5997 176.763 20.3467C176.942 26.1576 177.006 31.98 176.74 37.7851C176.403 45.186 168.223 50.0371 161.348 47.1345C160.71 46.8686 160.113 46.5159 159.4 46.1574C158.896 46.3944 158.339 46.6488 157.783 46.909C150.53 50.2626 142.124 45.2381 141.881 37.2589C141.713 31.7256 141.765 26.1865 141.875 20.6474C141.956 16.5075 145.51 13.1366 149.591 13.2233C154.681 13.3274 157.359 17.5656 157.296 20.8729C157.197 25.9899 157.255 31.1185 157.278 36.2355C157.29 38.3402 157.748 40.3118 159.342 42.0869L159.348 42.0927ZM156.896 44.0007C155.093 41.3584 154.293 38.6524 154.351 35.5244C154.438 30.8236 154.38 26.1287 154.362 21.4279C154.362 20.7514 154.333 20.0287 154.119 19.3985C153.429 17.3632 151.093 15.8136 149.162 16.1085C146.756 16.4786 144.814 18.3866 144.785 20.8613C144.716 26.3889 144.501 31.9338 144.843 37.444C145.22 43.5786 152.032 46.9322 156.896 44.0007ZM161.667 44.0007C163.255 44.8449 164.705 45.2785 166.241 45.1108C170.693 44.6194 173.91 41.0114 173.928 36.542C173.945 32.9398 173.928 29.3434 173.928 25.7413C173.928 24.0818 173.957 22.4166 173.916 20.7572C173.847 17.9241 170.577 15.0967 167.389 16.4728C165.505 17.2823 164.345 18.8318 164.339 20.9538C164.316 25.4522 164.258 29.9563 164.357 34.4547C164.432 37.8487 164.003 41.0519 161.667 44.0007Z" fill="white"/>
<path d="M55.4676 24.2322C55.6357 23.151 55.7226 22.2548 55.9198 21.3817C56.4879 18.9071 58.2212 17.6119 60.7198 17.7391C62.9344 17.849 64.3605 19.306 64.6793 21.7865C64.7257 22.1276 64.6909 22.4803 64.7373 22.8214C64.9112 24.0646 65.3286 24.4693 66.6098 24.637C66.8823 24.6717 67.1663 24.6601 67.4446 24.6601C68.1345 24.6601 68.8243 24.6601 69.7635 24.6601C69.9896 22.3936 69.8504 20.2022 69.8736 18.0224C69.8968 15.8947 69.8736 13.7611 69.8736 11.564H72.1171C72.523 12.9921 72.6447 23.6367 72.2737 27.262C69.5142 26.8862 66.546 28.1987 63.9141 25.9495C61.6532 27.8864 59.2589 27.8402 56.8705 26.0651C54.5342 27.7535 52.6907 27.7419 50.4182 26.0651C47.966 27.8055 45.4094 27.5858 42.7369 26.4525C41.0731 27.765 39.0557 27.1868 37.16 27.1984C35.3513 27.21 33.3396 27.8575 31.9773 25.99C29.5772 28.1004 26.8178 26.8688 24.1221 27.3198V24.7122C25.8728 24.6775 27.6932 24.6428 29.5772 24.6081C29.6874 24.0357 29.8265 23.6483 29.8323 23.2609C29.8787 20.5144 29.4091 20.0519 26.5917 19.9594C26.1859 19.9478 25.7859 19.8784 25.3047 19.8264V17.5888C26.4294 17.5888 27.4613 17.5252 28.4816 17.6003C30.8526 17.7854 32.0816 19.0285 32.3715 21.4106C32.4874 22.3473 32.6382 23.2782 32.7831 24.238C35.7397 25.0417 38.476 24.4577 41.5775 24.7122C40.7369 23.099 41.3977 21.4858 39.8963 20.1675C39.0267 20.2485 37.9542 20.3526 36.6904 20.4682C36.5107 19.9247 36.2904 19.2366 36.0411 18.4908C37.2238 17.6986 38.5397 17.5946 39.8325 17.5772C41.5311 17.5541 42.7543 18.5601 43.2992 20.3294C43.5427 21.1158 43.5891 21.9599 43.7746 22.7636C44.1166 24.2554 44.534 24.6196 46.0297 24.637C46.7602 24.6485 47.4848 24.5329 48.424 24.452V18.4734H51.0675C51.0675 19.6414 51.0675 20.7284 51.0675 21.8096C51.0791 24.2843 51.7284 24.8798 54.1922 24.6254C54.5864 24.5849 54.9574 24.3826 55.4618 24.2207L55.4676 24.2322ZM62.2677 22.596C62.2677 21.1389 61.4967 20.1907 60.3082 20.1849C59.1836 20.1733 58.2328 21.2372 58.1923 22.5439C58.1517 23.8044 59.1256 24.8162 60.3604 24.7873C61.5836 24.7584 62.2677 23.9778 62.2677 22.6017V22.596Z" fill="white"/>
<path d="M112.756 43.1219C114.257 44.18 115.869 43.7059 117.683 43.7232C117.805 42.9889 118.019 42.2835 118.031 41.5723C118.072 38.5946 118.048 35.6169 118.048 32.6392V30.7253H120.564C120.564 34.1251 120.541 37.4324 120.582 40.7339C120.593 41.6012 120.796 42.4627 120.947 43.5555C122.57 43.6596 123.991 43.7521 125.683 43.862C125.84 41.5665 125.741 39.4445 125.759 37.3284C125.776 35.189 125.759 33.0497 125.759 30.7369C126.582 30.6907 127.307 30.6502 128.182 30.5981V46.4234C125.434 45.9955 122.53 47.3312 120.019 45.2265C117.544 46.8975 114.072 46.8744 111.671 45.1167C109.341 46.9958 106.935 46.9495 104.506 45.1456C102.906 46.9958 100.923 46.4176 98.9814 45.9319C97.648 50.3089 96.5118 51.0952 92.7378 50.3031V48.1464C92.9465 48.0365 93.0682 47.9093 93.1726 47.9209C95.8103 48.1927 96.077 47.9729 96.0886 45.3479C96.106 42.8617 96.0886 40.3697 96.0886 37.6464C96.9408 37.6059 97.7118 37.577 98.5118 37.5365C98.993 39.5428 98.2335 41.4798 99.1553 43.3185C99.5843 43.4572 100.025 43.6769 100.489 43.7406C102.779 44.0586 103.242 43.6769 103.497 41.341C103.799 38.6119 105.544 36.8947 108.048 36.8658C110.292 36.8427 111.683 37.8776 112.24 40.0979C112.489 41.0924 112.587 42.1216 112.756 43.1219ZM110.089 41.659C110.066 40.335 109.144 39.3 107.996 39.3058C106.848 39.3173 105.973 40.3639 105.984 41.7226C105.996 43.012 106.779 43.8793 107.967 43.9024C109.254 43.9314 110.112 43.0236 110.089 41.6533V41.659Z" fill="white"/>
<path d="M72.7607 45.0644C70.036 47.331 67.0099 45.9491 64.0591 46.4579V30.731H66.5055V43.6363H70.552V37.6346C71.4911 37.5826 72.2215 37.5421 73.2419 37.4785C73.2419 38.6002 73.2187 39.5427 73.2477 40.4793C73.2766 41.364 73.3694 42.2428 73.4332 43.087C75.1955 44.2087 76.9463 43.6594 78.8246 43.7635V30.7541H81.3174V39.0685C81.9725 38.5886 82.3783 38.2591 82.8131 37.97C83.8681 37.2646 84.9986 36.8309 86.3146 36.8483C88.9697 36.8887 90.8364 38.3516 91.1494 41.0228C91.3465 42.7112 91.1842 44.4458 91.1842 46.3712H89.5436C85.2363 46.3712 80.929 46.3538 76.6216 46.3769C75.1491 46.3827 73.6824 46.4695 72.7607 45.0587V45.0644ZM88.8305 43.804C88.7494 42.8789 88.7494 42.1272 88.6045 41.4045C88.2914 39.8318 87.6189 39.3172 86.0305 39.3056C83.671 39.2883 81.8855 41.1096 81.6768 43.804H88.8305Z" fill="white"/>
<path d="M101.219 28.777C101.555 28.7943 101.764 28.8001 101.967 28.8175C103.955 29.0314 104.494 28.6209 104.535 26.6434C104.587 24.0127 104.547 21.3876 104.547 18.5718H106.987C107.515 20.4452 106.599 22.4747 107.671 24.296C109.666 24.9667 111.677 24.5446 113.602 24.6487C114.837 23.4229 113.944 21.8849 114.448 20.5782H116.674C117.057 24.614 117.364 24.9782 119.99 24.2439V19.7398H122.616C122.616 20.555 122.599 21.3645 122.616 22.1682C122.669 24.2786 123.173 24.6776 125.753 24.4579V18.5024H128.286V27.0135C124.825 27.5454 123.944 27.4067 122.13 26.0884C119.712 27.6842 118.495 27.69 116.321 26.1173C113.469 27.9675 110.402 27.2274 107.364 26.8689C106.216 31.1013 104.999 31.9513 100.97 31.1476C101.051 30.3728 101.138 29.5807 101.231 28.7712L101.219 28.777Z" fill="white"/>
<path d="M89.0394 24.5733H97.0627C97.1207 24.2437 97.2019 23.9778 97.2135 23.7118C97.3294 20.8382 96.7845 20.26 93.9612 20.2253C93.3525 20.2195 92.738 20.2253 92.1351 20.2253C91.6597 18.959 91.909 17.9703 92.5699 16.9874C93.7989 15.1603 94.9641 13.2927 96.2453 11.3037C96.97 11.8183 97.5671 12.2346 98.2801 12.7376C97.2077 14.4144 96.2163 15.9698 95.2192 17.5251C95.3641 17.6292 95.4569 17.7448 95.5728 17.7679C99.0338 18.589 99.7468 19.4852 99.7584 23.0584C99.7584 24.3652 99.7584 25.6719 99.7584 27.0885C99.1903 27.1405 98.7265 27.2215 98.2685 27.2272C94.0308 27.2388 89.7988 27.2388 85.5611 27.2272C84.9408 27.2272 84.3031 27.2099 83.7002 27.0827C81.0277 26.5218 79.8276 24.7294 80.1581 21.8847C80.4363 19.5025 82.4364 17.7275 84.819 17.7333C87.1901 17.7448 88.8713 19.3002 89.0336 21.6881C89.0974 22.567 89.0452 23.4574 89.0452 24.5675L89.0394 24.5733ZM86.3669 24.8219C86.3669 23.5557 86.4538 22.5901 86.3379 21.6476C86.2393 20.8555 85.7466 20.2658 84.8364 20.1848C83.8857 20.0981 83.219 20.5144 82.8132 21.3296C82.1639 22.6306 82.732 24.0356 84.1465 24.4924C84.7784 24.6947 85.4741 24.7005 86.3669 24.8219Z" fill="white"/>
<path d="M60.5403 46.36C56.0126 46.36 51.7807 46.412 47.5545 46.3369C45.2124 46.2964 44.3081 45.2846 44.2675 42.9833C44.2501 41.879 44.2675 40.7746 44.2675 39.4563C45.0443 39.4216 45.769 39.387 46.7661 39.3465C46.7661 40.1213 46.7545 40.7862 46.7661 41.4453C46.7777 42.0582 46.8183 42.6711 46.8415 43.232C48.2676 43.8853 53.6938 44.0703 57.9837 43.6367V37.6177H60.4649C60.4881 38.9764 60.5229 40.3872 60.5345 41.798C60.5461 43.2435 60.5345 44.6832 60.5345 46.3542L60.5403 46.36Z" fill="white"/>
<path d="M21.7685 27.1522C19.9424 27.1522 18.3424 27.3141 16.7829 27.1176C14.0814 26.7706 12.522 24.7007 12.8466 22.1913C13.2003 19.4333 15.2873 17.5947 17.9018 17.7334C20.07 17.8491 21.6584 19.3755 21.7512 21.5784C21.8265 23.3708 21.7685 25.1632 21.7685 27.1522ZM19.3105 24.6197C19.1482 23.0297 19.6931 21.4397 18.2844 20.318C16.2496 20.185 15.4438 20.7863 15.4322 22.3763C15.4206 24.1109 16.4467 24.7585 19.3105 24.6197Z" fill="white"/>
<path d="M76.1347 11.5522H78.5C78.6971 16.7213 78.5289 21.8441 78.6101 27.1404C77.7289 27.1809 77.0043 27.2156 76.1289 27.2561V11.5522H76.1347Z" fill="white"/>
<path d="M9.7569 23.9722C10.696 24.0126 11.4961 24.799 11.4787 25.6605C11.4555 26.5972 10.5105 27.3777 9.49603 27.2968C8.49891 27.2158 7.87861 26.4989 7.94817 25.5102C8.01774 24.5388 8.73659 23.9317 9.7569 23.978V23.9722Z" fill="white"/>
<path d="M14.3306 14.9983C14.603 14.0905 15.1422 13.4487 16.1161 13.7552C16.5277 13.8824 17.0263 14.5184 17.0321 14.9289C17.0321 15.3394 16.5625 15.9465 16.1451 16.1258C15.1364 16.5652 14.6552 15.8598 14.3306 15.0041V14.9983Z" fill="white"/>
<path d="M46.8706 15.01C47.2416 14.0791 47.746 13.3852 48.7373 13.7726C49.1431 13.9287 49.6127 14.5763 49.6011 14.9811C49.5895 15.3858 49.0793 15.9467 48.6561 16.1375C47.746 16.548 47.288 15.8715 46.8706 15.01Z" fill="white"/>
<path d="M49.792 34.1195C50.1108 33.1829 50.6384 32.5989 51.5022 32.8417C51.9254 32.9631 52.5167 33.6049 52.4819 33.9519C52.4297 34.4375 51.9486 35.0851 51.4906 35.2759C50.5978 35.646 50.1282 34.9637 49.792 34.1138V34.1195Z" fill="white"/>
<path d="M122.269 13.5469C121.695 13.5469 121.127 13.5469 120.553 13.5469L120.594 13.5816C120.594 13.4544 120.64 13.281 120.576 13.2058C119.95 12.4657 119.846 11.7314 120.715 11.1358C121.481 10.6097 122.13 10.9682 122.866 12.2576C122.663 12.6796 122.449 13.1306 122.234 13.5874L122.275 13.5527L122.269 13.5469Z" fill="white"/>
<path d="M17.7856 14.7266C18.2378 13.9576 18.7422 13.4026 19.6408 13.7668C20.2611 14.0212 20.6958 14.5474 20.4408 15.2297C20.2958 15.6113 19.8668 16.0565 19.49 16.1432C18.5219 16.3629 17.9422 15.8541 17.7914 14.7266H17.7856Z" fill="white"/>
<path d="M81.5957 14.6861C82.1348 13.9287 82.6508 13.3794 83.5378 13.7957C84.1639 14.0906 84.5175 14.6572 84.2508 15.3048C84.0943 15.6806 83.6247 16.1027 83.2421 16.1663C82.2566 16.3282 81.729 15.75 81.6015 14.6861H81.5957Z" fill="white"/>
<path d="M87.7988 14.5475C87.764 15.6634 87.2597 16.2821 86.2857 16.1722C85.8741 16.126 85.2944 15.594 85.2133 15.2009C85.1321 14.8019 85.4567 14.1254 85.822 13.871C86.7727 13.2119 87.2655 14.0676 87.7988 14.5475Z" fill="white"/>
<path d="M120.553 13.5474C120.64 13.7844 120.715 14.0273 120.819 14.2585C121.127 14.9582 121.161 15.6404 120.402 16.0394C119.619 16.4441 118.93 16.236 118.495 15.4323C118.396 15.2588 118.379 15.0391 118.327 14.8599C118.663 13.663 119.672 13.6977 120.599 13.5878L120.559 13.5531L120.553 13.5474Z" fill="white"/>
<path d="M122.228 13.5821C123.017 13.8307 124.118 13.4086 124.501 14.9929C124.391 15.1721 124.211 15.785 123.822 15.9758C123.417 16.1782 122.715 16.1261 122.315 15.8891C122.019 15.7156 121.904 15.0796 121.886 14.6402C121.875 14.2817 122.124 13.9116 122.263 13.5474L122.222 13.5821H122.228Z" fill="white"/>
<path d="M53.2529 33.8244C53.7283 33.0785 54.2385 32.5177 55.1254 32.8935C55.7457 33.1595 56.1573 33.703 55.8965 34.3737C55.7515 34.7495 55.3109 35.1889 54.9283 35.2699C53.9486 35.478 53.3921 34.9403 53.2529 33.8244Z" fill="white"/>
<path d="M70.3491 48.7478C70.9057 48.0193 71.4158 47.4642 72.3086 47.8921C72.9463 48.1985 73.2767 48.7709 73.0042 49.4127C72.8477 49.7828 72.3608 50.1991 71.9723 50.2569C70.981 50.413 70.4651 49.8175 70.3491 48.7478Z" fill="white"/>
<path d="M53.056 14.9755C53.056 15.6809 52.4589 16.2417 51.7226 16.2302C51.0153 16.2186 50.3719 15.5884 50.4008 14.9466C50.4298 14.299 51.1197 13.6456 51.7632 13.6514C52.4241 13.6572 53.056 14.3048 53.056 14.9813V14.9755Z" fill="white"/>
<path d="M156.89 44.0005C152.026 46.932 145.214 43.5785 144.837 37.4438C144.495 31.9336 144.71 26.3887 144.779 20.8611C144.808 18.3864 146.75 16.4784 149.156 16.1084C151.093 15.8135 153.423 17.363 154.113 19.3983C154.327 20.0285 154.356 20.7455 154.356 21.4278C154.374 26.1285 154.432 30.8292 154.345 35.5242C154.287 38.6522 155.087 41.3582 156.89 44.0005Z" fill="#505FA5"/>
<path d="M161.661 44.0006C163.997 41.0518 164.426 37.8485 164.351 34.4545C164.252 29.9562 164.31 25.452 164.334 20.9536C164.345 18.8317 165.499 17.2821 167.383 16.4726C170.571 15.1023 173.841 17.9239 173.911 20.7571C173.951 22.4165 173.922 24.0817 173.922 25.7411C173.922 29.3433 173.934 32.9397 173.922 36.5418C173.905 41.0055 170.687 44.6192 166.235 45.1107C164.699 45.2784 163.25 44.8447 161.661 44.0006Z" fill="#74BF9A"/>
</svg>
