<svg width="21" height="20" viewBox="0 0 21 20" fill="none" xmlns="http://www.w3.org/2000/svg">
<path d="M2.50943 5.85938L3.55347 18.3881C3.62829 19.2916 4.4025 20 5.31486 20H14.9347C15.847 20 16.6212 19.2916 16.696 18.3881L17.7401 5.85938H2.50943ZM7.17701 17.6562C6.86846 17.6562 6.60887 17.4177 6.5893 17.1069L5.99987 7.65379C5.97971 7.33051 6.22664 7.05242 6.5513 7.03238C6.88803 7.00891 7.15571 7.25727 7.17642 7.58055L7.76586 17.0337C7.78672 17.3684 7.52026 17.6562 7.17701 17.6562ZM10.7142 17.0703C10.7142 17.3942 10.4505 17.6562 10.1247 17.6562C9.79894 17.6562 9.5353 17.3942 9.5353 17.0703V7.61719C9.5353 7.29332 9.79894 7.03125 10.1247 7.03125C10.4505 7.03125 10.7142 7.29332 10.7142 7.61719V17.0703ZM14.2496 7.65383L13.6602 17.107C13.6408 17.4145 13.3829 17.6709 13.0351 17.6551C12.7104 17.6351 12.4635 17.357 12.4836 17.0337L13.0731 7.58059C13.0932 7.2573 13.3781 7.02211 13.6982 7.03242C14.0228 7.05246 14.2698 7.33055 14.2496 7.65383ZM17.7874 2.34375H14.2508V1.75781C14.2508 0.788516 13.4576 0 12.4825 0H7.767C6.79191 0 5.99869 0.788516 5.99869 1.75781V2.34375H2.46207C1.81098 2.34375 1.2832 2.8684 1.2832 3.51562C1.2832 4.16277 1.81098 4.6875 2.46207 4.6875H17.7874C18.4385 4.6875 18.9663 4.16277 18.9663 3.51562C18.9663 2.8684 18.4385 2.34375 17.7874 2.34375ZM13.0719 2.34375H7.17756V1.75781C7.17756 1.43453 7.44178 1.17188 7.767 1.17188H12.4825C12.8077 1.17188 13.0719 1.43453 13.0719 1.75781V2.34375Z" fill="#F15353"/>
</svg>
