<svg width="37" height="45" viewBox="0 0 37 45" fill="none" xmlns="http://www.w3.org/2000/svg">
<path d="M18.3188 20.9262V40.597C18.3188 42.4149 19.8 43.8934 21.621 43.8934H32.6992C34.5202 43.8934 36.0014 42.4149 36.0014 40.5976V20.9267C36.0014 20.8014 35.957 20.6802 35.8761 20.5847L30.9919 14.8146C31.258 14.7156 31.4877 14.5378 31.65 14.3049C31.8124 14.072 31.8998 13.795 31.9005 13.511V10.2105C31.9003 9.8403 31.7531 9.48533 31.4914 9.2235C31.2296 8.96167 30.8747 8.81438 30.5045 8.81396H23.8157C23.4456 8.81452 23.0908 8.96187 22.8292 9.22369C22.5676 9.4855 22.4205 9.84039 22.4202 10.2105V13.511C22.4202 14.1084 22.7992 14.6158 23.3283 14.8146L18.4441 20.5847C18.3633 20.6801 18.3189 20.8011 18.3188 20.9262ZM23.4769 10.2105C23.4769 10.0234 23.6291 9.87115 23.8157 9.87115H30.5045C30.6911 9.87115 30.8428 10.0234 30.8428 10.2105V13.511C30.8425 13.6007 30.8068 13.6866 30.7434 13.75C30.68 13.8133 30.5942 13.8491 30.5045 13.8493H23.8157C23.7261 13.8491 23.6402 13.8133 23.5768 13.75C23.5134 13.6866 23.4777 13.6007 23.4774 13.511L23.4769 10.2105ZM19.376 21.1196L24.6355 14.9071H29.6852L34.9447 21.1196V40.5976C34.9432 41.1921 34.7058 41.7617 34.2847 42.1814C33.8636 42.6011 33.2932 42.8366 32.6987 42.8362H21.621C21.0266 42.8363 20.4565 42.6007 20.0356 42.181C19.6148 41.7614 19.3776 41.1919 19.376 40.5976V21.1196Z" fill="#4E5EA5" stroke="#4E5EA5" stroke-width="1.55469"/>
<path d="M1.49951 13.7182V40.5971C1.49951 42.415 2.98063 43.8934 4.80164 43.8934H15.8799C17.7009 43.8934 19.182 42.415 19.182 40.5977V13.7187C19.1821 13.5934 19.1377 13.4722 19.0568 13.3767L14.1726 7.60655C14.4387 7.50763 14.6683 7.32982 14.8307 7.09688C14.9931 6.86394 15.0805 6.58699 15.0812 6.30304V3.0025C15.0809 2.63229 14.9338 2.27732 14.672 2.01549C14.4103 1.75366 14.0554 1.60638 13.6852 1.60596H6.99636C6.62624 1.60652 6.27146 1.75387 6.00985 2.01568C5.74823 2.27749 5.60115 2.63238 5.60087 3.0025V6.30304C5.60087 6.90035 5.97987 7.4078 6.509 7.60655L1.62479 13.3767C1.54395 13.4721 1.49956 13.5931 1.49951 13.7182ZM6.65753 3.0025C6.65753 2.81538 6.80977 2.66314 6.99636 2.66314H13.6852C13.8718 2.66314 14.0235 2.81538 14.0235 3.0025V6.30304C14.0232 6.39268 13.9875 6.47856 13.9241 6.54195C13.8607 6.60533 13.7748 6.64106 13.6852 6.64134H6.99636C6.90672 6.64106 6.82084 6.60533 6.75745 6.54195C6.69407 6.47856 6.65834 6.39268 6.65806 6.30304L6.65753 3.0025ZM2.5567 13.9116L7.81621 7.69906H12.8659L18.1254 13.9116V40.5977C18.1238 41.1922 17.8865 41.7618 17.4654 42.1815C17.0443 42.6012 16.4739 42.8367 15.8794 42.8363H4.80164C4.2073 42.8364 3.63717 42.6008 3.21631 42.1811C2.79546 41.7615 2.55824 41.192 2.5567 40.5977V13.9116Z" fill="#4E5EA5" stroke="#4E5EA5" stroke-width="1.55469"/>
</svg>
