<svg width="44" height="44" viewBox="0 0 44 44" fill="none" xmlns="http://www.w3.org/2000/svg">
<path d="M38.7414 22.2561V27.0896C38.7414 27.5321 38.9172 27.9565 39.2301 28.2694C39.543 28.5823 39.9674 28.7581 40.4099 28.7581C40.8524 28.7581 41.2768 28.5823 41.5897 28.2694C41.9026 27.9565 42.0784 27.5321 42.0784 27.0896V9.9479C42.0761 7.5567 41.1254 5.26404 39.4347 3.57305C37.744 1.88206 35.4515 0.930873 33.0603 0.928223H9.08462C6.69342 0.930431 4.40076 1.8812 2.70977 3.57187C1.01878 5.26255 0.0675919 7.55503 0.0649414 9.94623V32.5488C0.0662666 34.9409 1.01687 37.2346 2.70801 38.9264C4.39914 40.6182 6.69255 41.5696 9.08462 41.5718H29.0093C29.4518 41.5718 29.8762 41.396 30.1891 41.0832C30.502 40.7703 30.6778 40.3459 30.6778 39.9034C30.6778 39.4609 30.502 39.0365 30.1891 38.7236C29.8762 38.4107 29.4518 38.2349 29.0093 38.2349H9.08295C7.57677 38.2332 6.13279 37.634 5.06776 36.569C4.00273 35.504 3.40362 34.06 3.40186 32.5538V30.4432C5.77774 29.3821 7.46288 27.2732 8.85771 25.4979C9.9005 24.1748 10.8815 22.9235 11.7959 22.5264C12.5383 22.201 13.0989 22.5714 14.7941 24.5336C16.2907 26.2637 18.171 28.4127 21.0591 28.1374C24.2542 27.8321 26.1479 24.7438 27.9782 21.7539C29.4848 19.2913 31.0432 16.7469 32.8334 16.7469C34.6687 16.7469 37.2999 19.8552 38.7398 22.2544L38.7414 22.2561ZM25.1302 20.0137C23.7287 22.3028 22.2771 24.672 20.7421 24.8189C19.646 24.9056 18.6682 23.9129 17.3201 22.3512C15.7618 20.5509 13.6278 18.0883 10.4628 19.4681C8.77762 20.2022 7.54297 21.7723 6.2349 23.4374C5.34227 24.5719 4.42963 25.7215 3.40186 26.5574V9.9479C3.40318 8.44143 4.00209 6.99702 5.06717 5.93163C6.13225 4.86624 7.57649 4.2669 9.08295 4.26514H33.0603C34.5667 4.26646 36.0109 4.86543 37.076 5.93055C38.1412 6.99568 38.7401 8.43992 38.7414 9.94623V16.7152C37.1364 14.9933 35.0625 13.4099 32.8334 13.4099C29.1745 13.4099 27.0272 16.9187 25.1302 20.0137Z" fill="#4E5EA5"/>
<path d="M10.6313 15.0785C12.3148 15.0785 13.6796 13.7137 13.6796 12.0302C13.6796 10.3467 12.3148 8.98193 10.6313 8.98193C8.94776 8.98193 7.58301 10.3467 7.58301 12.0302C7.58301 13.7137 8.94776 15.0785 10.6313 15.0785Z" fill="#4E5EA5"/>
<path d="M42.7422 33.7286L39.5738 30.5602C39.3406 30.3265 39.0432 30.1673 38.7195 30.1029C38.3957 30.0384 38.0601 30.0716 37.7552 30.1981C37.5512 30.2816 37.3657 30.4046 37.2096 30.5602L34.0445 33.7302C33.8852 33.8841 33.7581 34.0682 33.6706 34.2718C33.5832 34.4754 33.5371 34.6943 33.5352 34.9158C33.5333 35.1374 33.5755 35.3571 33.6594 35.5621C33.7433 35.7672 33.8672 35.9534 34.0238 36.1101C34.1805 36.2668 34.3668 36.3906 34.5718 36.4745C34.7769 36.5584 34.9966 36.6006 35.2181 36.5987C35.4396 36.5968 35.6586 36.5508 35.8621 36.4633C36.0657 36.3759 36.2498 36.2488 36.4037 36.0894L36.7257 35.7674V41.5736C36.7257 42.0161 36.9015 42.4405 37.2144 42.7534C37.5273 43.0663 37.9517 43.2421 38.3942 43.2421C38.8367 43.2421 39.2611 43.0663 39.574 42.7534C39.8869 42.4405 40.0626 42.0161 40.0626 41.5736V35.7657L40.3847 36.0877C40.5386 36.2471 40.7227 36.3742 40.9262 36.4617C41.1298 36.5491 41.3487 36.5951 41.5703 36.597C41.7918 36.599 42.0115 36.5568 42.2165 36.4729C42.4216 36.389 42.6079 36.2651 42.7645 36.1084C42.9212 35.9518 43.0451 35.7655 43.129 35.5604C43.2129 35.3554 43.2551 35.1357 43.2531 34.9142C43.2512 34.6926 43.2052 34.4737 43.1178 34.2701C43.0303 34.0666 42.9015 33.8825 42.7422 33.7286Z" fill="#4E5EA5"/>
</svg>
