<svg width="41" height="51" viewBox="0 0 41 51" fill="none" xmlns="http://www.w3.org/2000/svg">
<path d="M34.5843 29.2611H29.4475C29.1829 25.2487 27.8668 21.3767 25.6315 18.0342L24.0594 15.6778C23.9503 15.5143 23.8102 15.3739 23.6469 15.2646C23.4835 15.1554 23.3003 15.0793 23.1076 15.0408C22.9149 15.0024 22.7165 15.0022 22.5238 15.0404C22.331 15.0786 22.1477 15.1544 21.9842 15.2634C21.8208 15.3725 21.6804 15.5127 21.5711 15.676C21.4618 15.8393 21.3858 16.0225 21.3473 16.2152C21.3088 16.4079 21.3087 16.6063 21.3469 16.799C21.385 16.9918 21.4608 17.1751 21.5699 17.3386L23.1421 19.695C25.049 22.546 26.1875 25.8411 26.4473 29.2613H14.0524C14.3122 25.8411 15.4507 22.546 17.3577 19.695L18.9299 17.3384C19.1502 17.0083 19.2303 16.6042 19.1525 16.215C19.0748 15.8259 18.8457 15.4835 18.5156 15.2633C18.1855 15.0431 17.7814 14.963 17.3922 15.0407C17.003 15.1184 16.6607 15.3475 16.4405 15.6776L14.8684 18.0342C12.633 21.3767 11.3169 25.2487 11.0523 29.2611H5.9155C5.51866 29.2611 5.13806 29.4188 4.85745 29.6994C4.57684 29.98 4.41919 30.3606 4.41919 30.7575C4.41919 31.1543 4.57684 31.5349 4.85745 31.8155C5.13806 32.0961 5.51866 32.2538 5.9155 32.2538H11.0522C11.3167 36.2662 12.6329 40.1382 14.8682 43.4807L16.4405 45.8373C16.6607 46.1674 17.003 46.3965 17.3922 46.4742C17.7814 46.5519 18.1855 46.4719 18.5156 46.2516C18.8457 46.0314 19.0748 45.689 19.1525 45.2999C19.2303 44.9107 19.1502 44.5066 18.9299 44.1765L17.3576 41.82C15.4506 38.9689 14.3121 35.6738 14.0524 32.2536H26.4473C26.1875 35.6738 25.049 38.9689 23.1421 41.82L21.5699 44.1765C21.3496 44.5066 21.2696 44.9107 21.3473 45.2999C21.425 45.689 21.6541 46.0314 21.9842 46.2516C22.3144 46.4719 22.7185 46.5519 23.1076 46.4742C23.4968 46.3965 23.8391 46.1674 24.0594 45.8373L25.6316 43.4809C27.867 40.1383 29.183 36.2662 29.4475 32.2538H34.5843C34.9812 32.2538 35.3618 32.0961 35.6424 31.8155C35.923 31.5349 36.0806 31.1543 36.0806 30.7575C36.0806 30.3606 35.923 29.98 35.6424 29.6994C35.3618 29.4188 34.9812 29.2611 34.5843 29.2611Z" fill="#4E5EA5"/>
<path d="M35.5577 17.6839L38.7029 10.8457C38.7151 10.8192 38.7265 10.7924 38.7371 10.7651C39.1784 9.63554 39.3374 8.41536 39.2002 7.21045C39.0631 6.00554 38.6339 4.85232 37.95 3.85087C37.2661 2.84942 36.3481 2.03001 35.2758 1.46377C34.2034 0.897527 33.009 0.601562 31.7963 0.601562C30.5836 0.601562 29.3893 0.897527 28.3169 1.46377C27.2445 2.03001 26.3265 2.84942 25.6426 3.85087C24.9587 4.85232 24.5296 6.00554 24.3924 7.21045C24.2552 8.41536 24.4142 9.63554 24.8555 10.7651C24.8661 10.7923 24.8776 10.8191 24.8898 10.8457L25.0529 11.2005C23.4813 10.8129 21.8687 10.6168 20.25 10.6163C9.14416 10.6163 0.108887 19.6516 0.108887 30.7575C0.108887 41.8633 9.14416 50.8988 20.25 50.8988C31.3559 50.8988 40.3913 41.8635 40.3913 30.7575C40.3953 25.9618 38.6804 21.3236 35.5577 17.6839ZM28.1138 5.53858C28.7296 4.63697 29.6547 3.9926 30.7138 3.72757C31.773 3.46255 32.8925 3.5953 33.8603 4.10066C34.8281 4.60602 35.5769 5.44887 35.9647 6.46947C36.3525 7.49006 36.3524 8.61747 35.9645 9.63801L31.7963 18.7005L27.6282 9.63787C27.3674 8.96702 27.2754 8.24243 27.36 7.52769C27.4447 6.81295 27.7036 6.12993 28.1138 5.53858ZM20.25 47.9061C17.7159 47.9082 15.2128 47.3486 12.9207 46.2676C10.6287 45.1866 8.60478 43.6111 6.99449 41.6543C5.38421 39.6975 4.22762 37.4082 3.60792 34.951C2.98822 32.4938 2.92082 29.9298 3.41056 27.4434C3.9003 24.957 4.93502 22.6101 6.44027 20.5714C7.94552 18.5327 9.8839 16.853 12.116 15.6531C14.348 14.4531 16.8183 13.7628 19.349 13.6318C21.8798 13.5007 24.4082 13.9322 26.7522 14.8951L30.437 22.9067C30.5565 23.1667 30.7481 23.387 30.989 23.5414C31.23 23.6958 31.5101 23.7779 31.7963 23.7779C32.0825 23.7779 32.3627 23.6958 32.6036 23.5414C32.8446 23.387 33.0361 23.1667 33.1557 22.9067L34.1524 20.7394C36.0017 23.2984 37.1079 26.3186 37.3488 29.4667C37.5898 32.6147 36.9561 35.7681 35.5178 38.5787C34.0795 41.3893 31.8925 43.7478 29.1982 45.3938C26.504 47.0398 23.4073 47.9092 20.25 47.9061Z" fill="#4E5EA5"/>
<path d="M31.7965 9.82003C32.0855 9.82003 32.3679 9.73434 32.6082 9.5738C32.8485 9.41326 33.0357 9.18508 33.1463 8.91811C33.2569 8.65114 33.2858 8.35737 33.2295 8.07396C33.1731 7.79054 33.0339 7.53021 32.8296 7.32588C32.6253 7.12155 32.3649 6.9824 32.0815 6.92602C31.7981 6.86965 31.5043 6.89858 31.2374 7.00917C30.9704 7.11975 30.7422 7.30701 30.5817 7.54728C30.4211 7.78755 30.3354 8.07002 30.3354 8.35899C30.3354 8.74648 30.4894 9.11811 30.7634 9.39211C31.0374 9.6661 31.409 9.82003 31.7965 9.82003Z" fill="#4E5EA5"/>
</svg>
