<svg width="46" height="48" viewBox="0 0 46 48" fill="none" xmlns="http://www.w3.org/2000/svg">
<path d="M34.8984 6.66846C32.6348 6.66846 30.7932 8.51004 30.7932 10.7737C30.7932 13.0373 32.6348 14.8789 34.8984 14.8789C37.1621 14.8789 39.0037 13.0373 39.0037 10.7737C39.0037 8.51004 37.162 6.66846 34.8984 6.66846ZM34.8984 12.1322C34.1493 12.1322 33.5398 11.5228 33.5398 10.7736C33.5398 10.0244 34.1493 9.41495 34.8984 9.41495C35.6476 9.41495 36.2571 10.0244 36.2571 10.7736C36.2571 11.5228 35.6475 12.1322 34.8984 12.1322Z" fill="#4E5EA5"/>
<path d="M42.0685 3.50299C40.1074 1.56903 37.5132 0.525421 34.7535 0.563507C32.0983 0.600403 29.5926 1.66049 27.6981 3.54849C25.8034 5.43658 24.7346 7.93854 24.6887 10.5937C24.6396 13.4369 25.7899 16.1938 27.8448 18.1574L34.8986 25.1365C34.8986 25.1365 40.5631 19.4344 41.798 18.3021C43.9029 16.3721 45.1102 13.6283 45.1102 10.774C45.1101 8.01947 44.0298 5.43732 42.0685 3.50299ZM39.9417 16.2776C38.6625 17.4506 34.8986 21.236 34.8986 21.236L29.7423 16.1717C28.2179 14.715 27.3984 12.7508 27.4349 10.6412C27.4684 8.70355 28.2504 6.87561 29.6368 5.49408C31.0232 4.11255 32.854 3.33682 34.7919 3.30991C34.8275 3.30936 34.8633 3.30908 34.899 3.30908C36.8744 3.30908 38.7319 4.07007 40.1399 5.45865C41.5738 6.87268 42.3635 8.76041 42.3635 10.774C42.3635 12.8604 41.4807 14.8665 39.9417 16.2776ZM34.9566 27.2199C33.1983 27.2199 31.6952 28.3313 31.1115 29.8883H15.7541C13.3351 29.8883 11.3669 31.8564 11.3669 34.2755V34.2907C11.3669 36.7098 13.3351 38.6778 15.7541 38.6778H23.205C24.1096 38.6778 24.8456 39.4138 24.8456 40.3185C24.8456 41.2231 24.1096 41.9591 23.205 41.9591H8.86316C8.2969 40.3689 6.77704 39.2271 4.99496 39.2271C2.73123 39.2271 0.889648 41.0687 0.889648 43.3324C0.889648 45.596 2.73132 47.4375 4.99506 47.4375C6.77713 47.4375 8.2969 46.2957 8.86325 44.7056H23.205C25.6241 44.7056 27.5922 42.7375 27.5922 40.3184C27.5922 37.8993 25.6241 35.9312 23.205 35.9312H15.7541C14.8495 35.9312 14.1135 35.1952 14.1135 34.2906V34.2754C14.1135 33.3708 14.8495 32.6348 15.7541 32.6348H31.0668C31.6148 34.2579 33.1508 35.4303 34.9565 35.4303C37.2201 35.4303 39.0617 33.5887 39.0617 31.325C39.0617 29.0614 37.2201 27.2199 34.9566 27.2199ZM4.99506 44.6909C4.24579 44.6909 3.63632 44.0815 3.63632 43.3323C3.63632 42.5831 4.24579 41.9736 4.99506 41.9736C5.74423 41.9736 6.3537 42.5831 6.3537 43.3323C6.3537 44.0815 5.74414 44.6909 4.99506 44.6909ZM34.9566 32.6838C34.2074 32.6838 33.598 32.0743 33.598 31.3251C33.598 30.576 34.2074 29.9665 34.9566 29.9665C35.7058 29.9665 36.3152 30.576 36.3152 31.3251C36.3152 32.0743 35.7057 32.6838 34.9566 32.6838Z" fill="#4E5EA5"/>
</svg>
