<svg width="169" height="37" viewBox="0 0 169 37" fill="none" xmlns="http://www.w3.org/2000/svg">
<path d="M166.169 18.8186H162.353C161.209 18.8186 160.272 19.7561 160.272 20.8998V21.2842H93.9875C93.875 19.9061 92.7312 18.8186 91.3344 18.8186H87.4344V14.8998H90.6875C91.2125 14.8998 91.625 14.4779 91.625 13.9623V13.8029C91.625 10.8311 89.8906 8.26231 87.3781 7.05293V3.67793C87.3781 1.8873 85.9156 0.424805 84.125 0.424805C82.3344 0.424805 80.8719 1.8873 80.8719 3.67793V7.05293C79.6001 7.66381 78.5267 8.62149 77.7753 9.81569C77.024 11.0099 76.6252 12.392 76.625 13.8029V13.9623C76.625 14.4779 77.0375 14.8998 77.5625 14.8998H80.8156V18.8186H76.9156C75.5188 18.8186 74.375 19.9061 74.2625 21.2842H7.97812V20.8998C7.97812 19.7561 7.04063 18.8186 5.89687 18.8186H2.08125C0.928125 18.8186 0 19.7561 0 20.8998V34.4936C0 35.6373 0.928125 36.5748 2.08125 36.5748H5.89687C7.04063 36.5748 7.97812 35.6373 7.97812 34.4936V34.1186H74.2625C74.375 35.4873 75.5188 36.5748 76.9156 36.5748H91.3344C92.7312 36.5748 93.875 35.4873 93.9875 34.1186H160.272V34.4936C160.272 35.6373 161.209 36.5748 162.353 36.5748H166.169C167.322 36.5748 168.25 35.6373 168.25 34.4936V20.8998C168.25 19.7561 167.322 18.8186 166.169 18.8186ZM74.2438 32.2436H7.97812V23.1592H74.2438V32.2436ZM82.6906 18.8186V14.8998H85.5594V18.8186H82.6906ZM82.7469 3.67793C82.7469 2.91855 83.3656 2.2998 84.125 2.2998C84.8844 2.2998 85.5031 2.91855 85.5031 3.67793V6.42481C85.0531 6.34043 84.5938 6.29355 84.125 6.29355C83.6562 6.29355 83.1969 6.34043 82.7469 6.42481V3.67793ZM78.5469 13.0248C78.6894 12.0224 79.0988 11.0767 79.7321 10.2867C80.3655 9.49667 81.1995 8.8914 82.1469 8.53418C82.1562 8.52481 82.1656 8.52481 82.175 8.52481C82.7844 8.29981 83.4406 8.16855 84.125 8.16855C84.8094 8.16855 85.4656 8.29981 86.075 8.52481C86.0844 8.52481 86.0938 8.52481 86.1031 8.53418C87.9969 9.24668 89.4125 10.9529 89.7031 13.0248H78.5469ZM160.272 32.2436H94.0063V23.1592H160.272V32.2436Z" fill="#4E5EA5"/>
</svg>
