<svg width="16" height="20" viewBox="0 0 16 20" fill="none" xmlns="http://www.w3.org/2000/svg">
<path d="M12 19.75H4C1.582 19.75 0.25 18.418 0.25 16V4C0.25 1.582 1.582 0.25 4 0.25H12C14.418 0.25 15.75 1.582 15.75 4V16C15.75 18.418 14.418 19.75 12 19.75ZM4 1.75C2.423 1.75 1.75 2.423 1.75 4V16C1.75 17.577 2.423 18.25 4 18.25H12C13.577 18.25 14.25 17.577 14.25 16V4C14.25 2.423 13.577 1.75 12 1.75H4ZM10.25 4C10.25 3.586 9.914 3.25 9.5 3.25H6.5C6.086 3.25 5.75 3.586 5.75 4C5.75 4.414 6.086 4.75 6.5 4.75H9.5C9.914 4.75 10.25 4.414 10.25 4ZM8 15C7.448 15 7 15.448 7 16C7 16.552 7.448 17 8 17C8.552 17 9 16.552 9 16C9 15.448 8.552 15 8 15Z" fill="#474647"/>
</svg>
