<svg width="24" height="25" viewBox="0 0 24 25" fill="none" xmlns="http://www.w3.org/2000/svg">
<path d="M12 12.876C8.83 12.876 6.25 10.296 6.25 7.12598C6.25 3.95598 8.83 1.37598 12 1.37598C15.17 1.37598 17.75 3.95598 17.75 7.12598C17.75 10.296 15.17 12.876 12 12.876ZM12 2.87598C9.66 2.87598 7.75 4.78598 7.75 7.12598C7.75 9.46598 9.66 11.376 12 11.376C14.34 11.376 16.25 9.46598 16.25 7.12598C16.25 4.78598 14.34 2.87598 12 2.87598Z" fill="#394149"/>
<path d="M20.5862 22.876C20.1762 22.876 19.8362 22.536 19.8362 22.126C19.8362 18.676 16.3162 15.876 11.9962 15.876C7.67625 15.876 4.15625 18.676 4.15625 22.126C4.15625 22.536 3.81625 22.876 3.40625 22.876C2.99625 22.876 2.65625 22.536 2.65625 22.126C2.65625 17.856 6.84625 14.376 11.9962 14.376C17.1462 14.376 21.3362 17.856 21.3362 22.126C21.3362 22.536 20.9962 22.876 20.5862 22.876Z" fill="#394149"/>
</svg>
