<svg width="170" height="40" viewBox="0 0 170 40" fill="none" xmlns="http://www.w3.org/2000/svg">
<g clip-path="url(#clip0_518_616)">
<path d="M151.51 31.3313C153.185 29.3704 153.574 27.2618 153.569 25.0174C153.569 19.9262 153.545 14.835 153.574 9.74373C153.598 5.98141 155.813 3.10504 159.343 2.14822C163.972 0.896079 168.834 4.26858 168.979 9.11766C169.159 15.0535 169.223 21.0011 168.956 26.9311C168.618 34.4912 160.413 39.4465 153.516 36.4816C152.877 36.2099 152.278 35.8496 151.562 35.4834C151.056 35.7256 150.498 35.9854 149.94 36.2512C142.665 39.6769 134.233 34.5443 133.989 26.3936C133.82 20.7413 133.872 15.083 133.983 9.42479C134.064 5.19587 137.629 1.75249 141.723 1.84109C146.829 1.9474 149.515 6.27672 149.451 9.65513C149.353 14.8822 149.411 20.1211 149.434 25.3482C149.446 27.4981 149.905 29.5121 151.504 31.3254L151.51 31.3313ZM149.05 33.2804C147.242 30.5812 146.439 27.817 146.497 24.6217C146.584 19.8199 146.526 15.024 146.509 10.2221C146.509 9.5311 146.48 8.79281 146.265 8.14902C145.573 6.07 143.229 4.48711 141.293 4.78834C138.879 5.16634 136.931 7.11542 136.902 9.64332C136.832 15.2898 136.617 20.9539 136.96 26.5826C137.338 32.8492 144.171 36.2749 149.05 33.2804ZM153.836 33.2804C155.429 34.1427 156.883 34.5857 158.424 34.4144C162.89 33.9123 166.118 30.2268 166.135 25.6612C166.153 21.9816 166.135 18.3079 166.135 14.6282C166.135 12.9331 166.164 11.2321 166.124 9.53701C166.054 6.64292 162.774 3.75473 159.576 5.16043C157.686 5.98732 156.523 7.57021 156.517 9.73782C156.494 14.3329 156.435 18.9339 156.534 23.529C156.61 26.9961 156.18 30.2681 153.836 33.2804Z" fill="#474647"/>
<path d="M47.3067 13.0867C47.4754 11.9822 47.5626 11.0668 47.7603 10.1749C48.3302 7.64701 50.069 6.32399 52.5753 6.45393C54.7967 6.56615 56.2273 8.05454 56.5471 10.5883C56.5937 10.9368 56.5588 11.2971 56.6053 11.6456C56.7797 12.9154 57.1984 13.3289 58.4836 13.5002C58.7569 13.5356 59.0419 13.5238 59.321 13.5238C60.013 13.5238 60.705 13.5238 61.6471 13.5238C61.8739 11.2085 61.7343 8.97002 61.7576 6.74334C61.7808 4.56982 61.7576 2.39039 61.7576 0.145996H64.0081C64.4151 1.60485 64.5373 12.4784 64.1651 16.1816C61.397 15.7977 58.4196 17.1384 55.7795 14.8409C53.5116 16.8195 51.1099 16.7723 48.714 14.959C46.3705 16.6837 44.5212 16.6718 42.2417 14.959C39.7818 16.7368 37.2173 16.5124 34.5365 15.3547C32.8675 16.6955 30.8438 16.1048 28.9422 16.1167C27.1279 16.1285 25.11 16.79 23.7434 14.8822C21.3359 17.038 18.5679 15.78 15.8638 16.2407V13.5769C17.62 13.5415 19.446 13.5061 21.3359 13.4706C21.4464 12.8859 21.586 12.4902 21.5918 12.0945C21.6383 9.28896 21.1673 8.81645 18.3411 8.72195C17.934 8.71014 17.5327 8.63927 17.0501 8.58611V6.30037C18.1782 6.30037 19.2133 6.2354 20.2368 6.31218C22.6153 6.50118 23.8481 7.77104 24.1388 10.2044C24.2551 11.1613 24.4063 12.1122 24.5517 13.0926C27.5175 13.9136 30.2623 13.3171 33.3734 13.5769C32.5302 11.9291 33.1932 10.2812 31.687 8.93458C30.8147 9.01727 29.7389 9.12358 28.4712 9.24171C28.2909 8.68652 28.0699 7.98367 27.8199 7.22175C29.0062 6.41259 30.3263 6.30627 31.623 6.28856C33.3269 6.26493 34.5539 7.29263 35.1006 9.09996C35.3448 9.90322 35.3913 10.7655 35.5774 11.5865C35.9205 13.1103 36.3392 13.4824 37.8395 13.5002C38.5723 13.512 39.2992 13.3938 40.2412 13.3112V7.20403H42.893C42.893 8.39711 42.893 9.50749 42.893 10.612C42.9046 13.1399 43.5559 13.7482 46.0274 13.4883C46.4228 13.447 46.795 13.2403 47.3009 13.0749L47.3067 13.0867ZM54.128 11.4152C54.128 9.92684 53.3546 8.95821 52.1624 8.9523C51.0343 8.94049 50.0806 10.0272 50.0399 11.3621C49.9992 12.6496 50.9761 13.6833 52.2148 13.6537C53.4418 13.6242 54.128 12.8268 54.128 11.4211V11.4152Z" fill="#474647"/>
<path d="M104.773 32.3826C106.279 33.4635 107.896 32.9791 109.716 32.9969C109.838 32.2468 110.053 31.5262 110.065 30.7997C110.105 27.758 110.082 24.7162 110.082 21.6745V19.7195H112.606C112.606 23.1924 112.583 26.5708 112.623 29.9433C112.635 30.8292 112.839 31.7093 112.99 32.8256C114.618 32.9319 116.043 33.0264 117.741 33.1386C117.898 30.7938 117.799 28.6262 117.816 26.4645C117.834 24.2791 117.816 22.0938 117.816 19.7313C118.642 19.684 119.369 19.6427 120.247 19.5895V35.7551C117.491 35.318 114.577 36.6824 112.059 34.5325C109.576 36.2394 106.093 36.2158 103.685 34.4203C101.348 36.3398 98.9344 36.2926 96.4978 34.4498C94.8928 36.3398 92.904 35.7492 90.9559 35.2531C89.6184 39.7241 88.4786 40.5274 84.6929 39.7182V37.5152C84.9022 37.403 85.0243 37.273 85.129 37.2848C87.7749 37.5624 88.0424 37.338 88.0541 34.6565C88.0715 32.1168 88.0541 29.5712 88.0541 26.7893C88.9089 26.748 89.6823 26.7185 90.4848 26.6771C90.9675 28.7266 90.2057 30.7052 91.1303 32.5834C91.5607 32.7252 92.0026 32.9496 92.4678 33.0146C94.7649 33.3394 95.2301 32.9496 95.4859 30.5635C95.7883 27.7757 97.5387 26.0215 100.051 25.992C102.301 25.9684 103.697 27.0256 104.255 29.2936C104.505 30.3095 104.604 31.3608 104.773 32.3826ZM102.098 30.8883C102.075 29.5358 101.15 28.4785 99.9986 28.4844C98.8471 28.4963 97.9691 29.5653 97.9807 30.9533C97.9923 32.2704 98.7774 33.1563 99.9695 33.18C101.26 33.2095 102.121 32.2822 102.098 30.8824V30.8883Z" fill="#474647"/>
<path d="M64.6535 34.3671C61.9203 36.6824 58.8848 35.2707 55.9248 35.7905V19.7253H58.3788V32.9082H62.4379V26.7775C63.3799 26.7243 64.1127 26.683 65.1361 26.618C65.1361 27.7638 65.1129 28.7266 65.1419 29.6834C65.171 30.587 65.2641 31.4848 65.328 32.3471C67.0959 33.4929 68.8521 32.9318 70.7362 33.0382V19.749H73.2368V28.2422C73.8939 27.752 74.3009 27.4154 74.7371 27.12C75.7955 26.3995 76.9294 25.9565 78.2495 25.9742C80.9129 26.0156 82.7854 27.5099 83.0994 30.2386C83.2971 31.9632 83.1343 33.7351 83.1343 35.7019H81.4886C77.1679 35.7019 72.8471 35.6842 68.5264 35.7078C67.0493 35.7137 65.5781 35.8023 64.6535 34.3612V34.3671ZM80.7733 33.0795C80.6919 32.1345 80.6919 31.3667 80.5465 30.6284C80.2325 29.0219 79.5579 28.4962 77.9645 28.4844C75.5977 28.4667 73.8066 30.3272 73.5973 33.0795H80.7733Z" fill="#474647"/>
<path d="M93.2003 17.729C93.5375 17.7467 93.7469 17.7526 93.9504 17.7703C95.945 17.9888 96.4859 17.5695 96.5266 15.5495C96.5789 12.8622 96.5382 10.1807 96.5382 7.30433H98.9864C99.5156 9.21798 98.5968 11.2911 99.6726 13.1516C101.673 13.8367 103.691 13.4056 105.622 13.5119C106.86 12.2597 105.965 10.6886 106.471 9.35382H108.704C109.087 13.4764 109.396 13.8485 112.03 13.0984V8.49741H114.664C114.664 9.3302 114.647 10.1571 114.664 10.9781C114.717 13.1339 115.223 13.5414 117.81 13.317V7.23346H120.352V15.9275C116.88 16.4709 115.996 16.3292 114.176 14.9825C111.751 16.6127 110.53 16.6186 108.349 15.0121C105.488 16.9021 102.412 16.1461 99.3644 15.7799C98.213 20.1033 96.9918 20.9715 92.9502 20.1506C93.0316 19.3591 93.1188 18.5499 93.2119 17.7231L93.2003 17.729Z" fill="#474647"/>
<path d="M80.9832 13.4352H89.0315C89.0896 13.0985 89.171 12.8268 89.1827 12.5551C89.299 9.61969 88.7523 9.02906 85.9203 8.99362C85.3097 8.98771 84.6933 8.99362 84.0885 8.99362C83.6117 7.70014 83.8617 6.69016 84.5247 5.68609C85.7575 3.81969 86.9264 1.91196 88.2115 -0.119812C88.9384 0.405849 89.5374 0.831104 90.2527 1.34495C89.1769 3.05778 88.1824 4.64658 87.1822 6.23537C87.3276 6.34169 87.4207 6.45981 87.537 6.48344C91.0087 7.32213 91.7239 8.23761 91.7356 11.8877C91.7356 13.2225 91.7356 14.5574 91.7356 16.0044C91.1657 16.0576 90.7004 16.1403 90.241 16.1462C85.9901 16.158 81.745 16.158 77.494 16.1462C76.8718 16.1462 76.2321 16.1284 75.6274 15.9985C72.9465 15.4256 71.7428 13.5946 72.0743 10.6887C72.3534 8.25533 74.3596 6.4421 76.7497 6.448C79.1281 6.45981 80.8145 8.04861 80.9774 10.4879C81.0413 11.3857 80.989 12.2952 80.989 13.4293L80.9832 13.4352ZM78.3024 13.6891C78.3024 12.3957 78.3896 11.4093 78.2733 10.4466C78.1744 9.63741 77.6801 9.03496 76.7671 8.95228C75.8134 8.86368 75.1447 9.28894 74.7376 10.1217C74.0863 11.4506 74.6562 12.8859 76.0751 13.3525C76.709 13.5592 77.4068 13.5651 78.3024 13.6891Z" fill="#474647"/>
<path d="M52.3951 35.6901C47.8534 35.6901 43.6083 35.7433 39.369 35.6665C37.0196 35.6251 36.1124 34.5915 36.0717 32.2408C36.0543 31.1127 36.0717 29.9846 36.0717 28.638C36.851 28.6025 37.5779 28.5671 38.5781 28.5258C38.5781 29.3172 38.5665 29.9964 38.5781 30.6697C38.5897 31.2958 38.6304 31.9219 38.6537 32.4948C40.0842 33.1622 45.5273 33.3512 49.8306 32.9082V26.7598H52.3195C52.3427 28.1477 52.3776 29.5889 52.3893 31.03C52.4009 32.5066 52.3893 33.9773 52.3893 35.6842L52.3951 35.6901Z" fill="#474647"/>
<path d="M13.503 16.0693C11.6712 16.0693 10.0662 16.2347 8.50186 16.0339C5.79196 15.6795 4.22766 13.565 4.55332 11.0017C4.90804 8.18439 7.00153 6.30619 9.6242 6.44794C11.7991 6.56606 13.3925 8.12533 13.4855 10.3756C13.5611 12.2066 13.503 14.0375 13.503 16.0693ZM11.0373 13.4823C10.8745 11.8581 11.4211 10.2339 10.008 9.08806C7.96686 8.95221 7.15854 9.56647 7.14691 11.1907C7.13528 12.9626 8.16458 13.6241 11.0373 13.4823Z" fill="#474647"/>
<path d="M68.038 0.134155H70.4107C70.6084 5.41439 70.4397 10.6474 70.5211 16.0576C69.6372 16.0989 68.9103 16.1343 68.0322 16.1757V0.134155H68.038Z" fill="#474647"/>
<path d="M1.45395 12.8209C2.39602 12.8622 3.19852 13.6655 3.18107 14.5455C3.15781 15.5023 2.20993 16.2997 1.19226 16.217C0.192043 16.1343 -0.430187 15.4019 -0.360404 14.3919C-0.290621 13.3997 0.430468 12.7795 1.45395 12.8268V12.8209Z" fill="#474647"/>
<path d="M6.04199 3.65426C6.31531 2.72697 6.85612 2.07137 7.83308 2.3844C8.24597 2.51434 8.74608 3.16403 8.75189 3.58338C8.75189 4.00273 8.28086 4.62289 7.86216 4.80599C6.85031 5.25487 6.36765 4.5343 6.04199 3.66016V3.65426Z" fill="#474647"/>
<path d="M38.6826 3.66607C39.0548 2.71516 39.5607 2.0064 40.5551 2.40212C40.9622 2.56159 41.4332 3.2231 41.4216 3.63654C41.41 4.04998 40.8982 4.6229 40.4737 4.8178C39.5607 5.23715 39.1013 4.54611 38.6826 3.66607Z" fill="#474647"/>
<path d="M41.6138 23.1864C41.9336 22.2296 42.4628 21.633 43.3293 21.8811C43.7538 22.0051 44.3469 22.6607 44.312 23.0151C44.2597 23.5113 43.777 24.1728 43.3176 24.3677C42.4221 24.7457 41.9511 24.0487 41.6138 23.1805V23.1864Z" fill="#474647"/>
<path d="M114.316 2.17179C113.74 2.17179 113.17 2.17179 112.595 2.17179L112.635 2.20723C112.635 2.07729 112.682 1.9001 112.618 1.82332C111.99 1.06731 111.885 0.317214 112.757 -0.291136C113.525 -0.82861 114.176 -0.462419 114.915 0.854688C114.711 1.28585 114.496 1.74654 114.281 2.21314L114.322 2.1777L114.316 2.17179Z" fill="#474647"/>
<path d="M9.50781 3.37674C9.9614 2.5912 10.4673 2.0242 11.3687 2.39629C11.9909 2.65617 12.4271 3.19365 12.1712 3.89059C12.0258 4.28041 11.5955 4.73519 11.2175 4.82379C10.2463 5.04823 9.66482 4.52847 9.51363 3.37674H9.50781Z" fill="#474647"/>
<path d="M73.5161 3.33538C74.0569 2.56165 74.5745 2.00055 75.4642 2.42581C76.0923 2.72703 76.447 3.30585 76.1795 3.96735C76.0225 4.35126 75.5514 4.78242 75.1676 4.84739C74.179 5.01277 73.6499 4.42214 73.5219 3.33538H73.5161Z" fill="#474647"/>
<path d="M79.7385 3.19361C79.7036 4.33353 79.1977 4.9655 78.2207 4.85328C77.8079 4.80603 77.2263 4.26266 77.1449 3.86103C77.0635 3.45349 77.3892 2.76245 77.7555 2.50257C78.7092 1.82926 79.2035 2.70339 79.7385 3.19361Z" fill="#474647"/>
<path d="M112.594 2.17181C112.682 2.41397 112.757 2.66204 112.862 2.89829C113.17 3.61295 113.205 4.3099 112.443 4.71743C111.658 5.13087 110.966 4.91825 110.53 4.09727C110.431 3.92008 110.414 3.69564 110.361 3.51255C110.699 2.28994 111.71 2.32538 112.641 2.21316L112.6 2.17772L112.594 2.17181Z" fill="#474647"/>
<path d="M114.275 2.20725C115.066 2.46122 116.171 2.03006 116.555 3.64839C116.444 3.83149 116.264 4.45755 115.874 4.65246C115.467 4.85918 114.764 4.80603 114.362 4.56387C114.066 4.38668 113.949 3.73698 113.932 3.28811C113.92 2.92191 114.17 2.54391 114.31 2.17181L114.269 2.20725H114.275Z" fill="#474647"/>
<path d="M45.0854 22.8852C45.5623 22.1233 46.074 21.5504 46.9638 21.9343C47.586 22.206 47.9989 22.7612 47.7372 23.4463C47.5918 23.8303 47.1499 24.2791 46.7661 24.3618C45.7833 24.5745 45.225 24.0252 45.0854 22.8852Z" fill="#474647"/>
<path d="M62.2349 38.1294C62.7931 37.3852 63.3049 36.8182 64.2004 37.2553C64.8401 37.5683 65.1716 38.153 64.8982 38.8086C64.7412 39.1866 64.2528 39.6119 63.8631 39.671C62.8687 39.8304 62.3512 39.2221 62.2349 38.1294Z" fill="#474647"/>
<path d="M44.8875 3.6306C44.8875 4.35117 44.2885 4.92408 43.55 4.91227C42.8405 4.90045 42.195 4.25667 42.2241 3.60107C42.2532 2.93956 42.9452 2.27215 43.5907 2.27805C44.2536 2.28396 44.8875 2.94547 44.8875 3.6365V3.6306Z" fill="#474647"/>
<path d="M149.045 33.2803C144.166 36.2748 137.333 32.8492 136.955 26.5826C136.612 20.9539 136.827 15.2897 136.896 9.64331C136.926 7.11541 138.874 5.16633 141.287 4.78833C143.229 4.4871 145.567 6.06999 146.259 8.14901C146.474 8.7928 146.503 9.52518 146.503 10.2221C146.521 15.024 146.579 19.8258 146.492 24.6217C146.433 27.817 147.236 30.5812 149.045 33.2803Z" fill="#505FA5"/>
<path d="M153.83 33.2803C156.174 30.2681 156.604 26.996 156.528 23.529C156.429 18.9339 156.488 14.3329 156.511 9.7378C156.523 7.57019 157.68 5.9873 159.57 5.16042C162.768 3.76062 166.048 6.6429 166.118 9.53699C166.158 11.2321 166.129 12.9331 166.129 14.6282C166.129 18.3079 166.141 21.9816 166.129 25.6612C166.112 30.2209 162.884 33.9123 158.418 34.4144C156.877 34.5856 155.423 34.1427 153.83 33.2803Z" fill="#74BF9A"/>
</g>
<defs>
<clipPath id="clip0_518_616">
<rect width="170" height="40" fill="white"/>
</clipPath>
</defs>
</svg>
