<svg width="25" height="25" viewBox="0 0 25 25" fill="none" xmlns="http://www.w3.org/2000/svg">
<path d="M21.2349 21.1998C21.0349 21.1998 20.8449 21.1198 20.7049 20.9798L14.3249 14.5998C14.0349 14.3098 14.0349 13.8298 14.3249 13.5398L22.0549 5.8098C22.2449 5.6198 22.5349 5.5498 22.7949 5.6198C23.0549 5.6998 23.2549 5.90981 23.3149 6.16981C23.5049 7.01981 23.6049 7.9698 23.6049 9.0698V15.0698C23.6049 17.8398 23.0249 19.7098 21.7649 20.9798C21.6249 21.1198 21.4149 21.1498 21.2349 21.1998ZM15.9149 14.0698L21.1749 19.3298C21.8049 18.3598 22.1049 16.9798 22.1049 15.0698V9.0698C22.1049 8.6598 22.0949 8.27981 22.0649 7.91981L15.9149 14.0698Z" fill="#394149"/>
<path d="M7.12448 22.5498C7.06448 22.5498 7.0145 22.5398 6.9545 22.5298C3.6445 21.7698 2.10449 19.3998 2.10449 15.0698V9.06979C2.10449 3.63979 4.42449 1.31979 9.85449 1.31979H15.8545C20.1845 1.31979 22.5545 2.8598 23.3145 6.1698C23.3745 6.4198 23.2945 6.6898 23.1145 6.8698L7.65448 22.3298C7.51448 22.4698 7.32448 22.5498 7.12448 22.5498ZM9.85449 2.81979C5.24449 2.81979 3.60449 4.45979 3.60449 9.06979V15.0698C3.60449 18.5398 4.5645 20.2798 6.8945 20.9698L21.7445 6.1198C21.0645 3.7898 19.3145 2.82979 15.8445 2.82979H9.85449V2.81979Z" fill="#394149"/>
<path d="M15.8539 22.8198H9.85389C8.75389 22.8198 7.8139 22.7298 6.9539 22.5298C6.6839 22.4698 6.47388 22.2698 6.40388 22.0098C6.32388 21.7498 6.40388 21.4698 6.59388 21.2698L14.3239 13.5398C14.6139 13.2498 15.0939 13.2498 15.3839 13.5398L21.7639 19.9198C21.9039 20.0598 21.9839 20.2498 21.9839 20.4498C21.9839 20.6498 21.9039 20.8398 21.7639 20.9798C20.4939 22.2398 18.6239 22.8198 15.8539 22.8198ZM8.7039 21.2798C9.0639 21.3098 9.44389 21.3198 9.85389 21.3198H15.8539C17.7739 21.3198 19.1439 21.0198 20.1139 20.3898L14.8539 15.1298L8.7039 21.2798Z" fill="#394149"/>
<path d="M9.97443 13.3798C9.34443 13.3798 8.71442 13.1498 8.21442 12.6798C6.62442 11.1698 5.98445 9.50979 6.36445 7.88979C6.74445 6.22979 8.19443 5.10977 9.97443 5.10977C11.7544 5.10977 13.2044 6.22979 13.5844 7.88979C13.9544 9.51979 13.3144 11.1698 11.7244 12.6798C11.2344 13.1398 10.6044 13.3798 9.97443 13.3798ZM7.82444 8.21977C7.50444 9.57977 8.42443 10.7998 9.25443 11.5898C9.66443 11.9798 10.2944 11.9798 10.6944 11.5898C11.5144 10.8098 12.4344 9.58977 12.1244 8.21977C11.8544 7.02977 10.7944 6.59978 9.97443 6.59978C9.15443 6.59978 8.10444 7.02977 7.82444 8.21977Z" fill="#394149"/>
<path d="M10.0039 9.55978C9.45391 9.55978 9.00391 9.10978 9.00391 8.55978C9.00391 8.00978 9.44391 7.55978 10.0039 7.55978H10.0139C10.5639 7.55978 11.0139 8.00978 11.0139 8.55978C11.0139 9.10978 10.5539 9.55978 10.0039 9.55978Z" fill="#394149"/>
</svg>
