<svg width="25" height="25" viewBox="0 0 25 25" fill="none" xmlns="http://www.w3.org/2000/svg">
<path d="M15.8545 22.8198H9.85449C5.44449 22.8198 4.10449 21.4798 4.10449 17.0698V7.06982C4.10449 2.65982 5.44449 1.31982 9.85449 1.31982H15.8545C20.2645 1.31982 21.6045 2.65982 21.6045 7.06982V17.0698C21.6045 21.4798 20.2645 22.8198 15.8545 22.8198ZM9.85449 2.81982C6.27449 2.81982 5.60449 3.49982 5.60449 7.06982V17.0698C5.60449 20.6398 6.27449 21.3198 9.85449 21.3198H15.8545C19.4345 21.3198 20.1045 20.6398 20.1045 17.0698V7.06982C20.1045 3.49982 19.4345 2.81982 15.8545 2.81982H9.85449Z" fill="#394149"/>
<path d="M14.8545 6.31982H10.8545C10.4445 6.31982 10.1045 5.97982 10.1045 5.56982C10.1045 5.15982 10.4445 4.81982 10.8545 4.81982H14.8545C15.2645 4.81982 15.6045 5.15982 15.6045 5.56982C15.6045 5.97982 15.2645 6.31982 14.8545 6.31982Z" fill="#394149"/>
<path d="M12.8547 19.9298C11.5847 19.9298 10.5547 18.8998 10.5547 17.6298C10.5547 16.3598 11.5847 15.3298 12.8547 15.3298C14.1247 15.3298 15.1547 16.3598 15.1547 17.6298C15.1547 18.8998 14.1247 19.9298 12.8547 19.9298ZM12.8547 16.8198C12.4147 16.8198 12.0547 17.1798 12.0547 17.6198C12.0547 18.0598 12.4147 18.4198 12.8547 18.4198C13.2947 18.4198 13.6547 18.0598 13.6547 17.6198C13.6547 17.1798 13.2947 16.8198 12.8547 16.8198Z" fill="#394149"/>
</svg>
