<svg width="9" height="16" viewBox="0 0 9 16" fill="none" xmlns="http://www.w3.org/2000/svg">
<path d="M2.16256 1.08431L8.41256 7.33431C8.49996 7.42141 8.56931 7.5249 8.61663 7.63886C8.66395 7.75281 8.6883 7.87499 8.6883 7.99837C8.6883 8.12176 8.66395 8.24394 8.61663 8.35789C8.56931 8.47185 8.49996 8.57534 8.41256 8.66244L2.16256 14.9124C1.98644 15.0886 1.74757 15.1875 1.4985 15.1875C1.24943 15.1875 1.01056 15.0886 0.834439 14.9124C0.658318 14.7363 0.559375 14.4974 0.559375 14.2484C0.559375 13.9993 0.658318 13.7604 0.834439 13.5843L6.42116 7.99759L0.833658 2.41088C0.657538 2.23475 0.558594 1.99588 0.558594 1.74681C0.558594 1.49774 0.657538 1.25887 0.833658 1.08275C1.00978 0.90663 1.24865 0.807684 1.49772 0.807684C1.74679 0.807684 1.98566 0.90663 2.16178 1.08275L2.16256 1.08431Z" fill="#4E5EA5"/>
</svg>
