<svg width="106" height="106" viewBox="0 0 106 106" fill="none" xmlns="http://www.w3.org/2000/svg">
<g clip-path="url(#clip0_158_10167)">
<path d="M47.5658 12.3129V19.3488C42.8589 20.8731 38.7726 23.8812 35.9187 27.9227C33.0648 31.9641 31.597 36.8213 31.735 41.7669C31.6599 44.3723 32.2662 46.9522 33.494 49.2513L36.3945 55.0559C36.5747 55.414 36.6377 55.8197 36.5746 56.2156C36.5115 56.6115 36.3254 56.9774 36.0427 57.2617L33.362 59.9424C33.0536 60.2507 32.86 60.6552 32.8132 61.0888C32.7665 61.5224 32.8696 61.9589 33.1052 62.3258L35.3761 65.8684C35.607 66.23 35.7099 66.6588 35.6681 67.0858C35.6263 67.5129 35.4423 67.9136 35.1456 68.2236L33.5344 69.9035C33.324 70.1203 33.1673 70.3835 33.0769 70.6718C32.9864 70.9602 32.9648 71.2657 33.0137 71.5639C33.0626 71.8621 33.1807 72.1447 33.3585 72.3891C33.5363 72.6335 33.7688 72.8328 34.0375 72.9711L37.4429 74.7459C37.6553 74.8567 37.8365 75.019 37.9699 75.2179C38.1034 75.4169 38.1847 75.6461 38.2066 75.8847C38.2285 76.1232 38.1902 76.3635 38.0951 76.5834C38.0001 76.8033 37.8515 76.9958 37.6627 77.1434L33.0542 80.7475C32.6412 81.0746 32.3078 81.4912 32.0793 81.966C31.8508 82.4407 31.733 82.9611 31.735 83.488V95.3822C31.6593 97.4611 32.3828 99.4899 33.7569 101.052C35.131 102.614 37.0511 103.59 39.1227 103.78C40.5611 103.825 41.9828 103.46 43.2218 102.728C44.4608 101.996 45.4659 100.926 46.1199 99.6442C46.7455 100.889 47.7048 101.936 48.8907 102.667C50.0766 103.398 51.4424 103.785 52.8357 103.785C54.2289 103.785 55.5947 103.398 56.7806 102.667C57.9665 101.936 58.9258 100.889 59.5514 99.6442C60.2064 100.928 61.2138 101.999 62.4555 102.732C63.6972 103.464 65.1219 103.828 66.5627 103.78C68.6343 103.59 70.5544 102.614 71.9285 101.052C73.3025 99.4899 74.0261 97.4611 73.9504 95.3822V80.5945C73.9771 79.1409 73.593 77.7094 72.8422 76.4644C72.4156 75.7969 72.1897 75.0209 72.1914 74.2288V70.4347C72.1928 69.927 71.9988 69.4382 71.6496 69.0697L67.5847 65.1366C67.2365 64.7674 67.0425 64.2791 67.0425 63.7717C67.0425 63.2642 67.2365 62.7759 67.5847 62.4067L72.4412 57.3426C72.6294 57.1435 72.7743 56.9076 72.8668 56.6498C72.9593 56.3919 72.9975 56.1177 72.9788 55.8444C72.9601 55.5711 72.885 55.3046 72.7583 55.0618C72.6316 54.8189 72.4559 54.6049 72.2424 54.4333L67.5372 50.4509C67.3584 50.2996 67.2135 50.1122 67.112 49.9011C67.0105 49.69 66.9546 49.4599 66.948 49.2257C66.9413 48.9915 66.9841 48.7586 67.0735 48.5421C67.1629 48.3256 67.2969 48.1303 67.4668 47.969L73.3857 42.3526C73.7518 41.9669 73.9508 41.4524 73.9398 40.9208C73.9128 36.1167 72.3685 31.4439 69.5273 27.5698C66.6862 23.6957 62.6936 20.8184 58.1196 19.3488V12.3129H47.5658Z" fill="#C2CAEE"/>
<path fill-rule="evenodd" clip-rule="evenodd" d="M47.5655 19.3488V12.3129H58.1194V15.0769H55.0737V21.6134C50.3379 23.0295 46.2264 25.8241 43.3549 29.5786C40.4835 33.3331 39.0066 37.8456 39.1455 42.4401C39.0699 44.8605 39.68 47.2572 40.9153 49.3932L43.8337 54.7858C44.015 55.1184 44.0784 55.4953 44.0149 55.8631C43.9514 56.2309 43.7641 56.5709 43.4797 56.8349L40.7826 59.3253C40.4722 59.6117 40.2774 59.9875 40.2304 60.3903C40.1834 60.7931 40.287 61.1987 40.5242 61.5395L42.809 64.8306C43.0414 65.1666 43.1448 65.5649 43.1028 65.9617C43.0607 66.3584 42.8756 66.7307 42.5771 67.0187L40.956 68.5793C40.7443 68.7808 40.5866 69.0252 40.4956 69.2931C40.4046 69.561 40.3829 69.8448 40.4321 70.1219C40.4813 70.3989 40.6001 70.6614 40.779 70.8885C40.9579 71.1155 41.1918 71.3006 41.4622 71.4291L44.8885 73.078C45.1022 73.1809 45.2845 73.3316 45.4188 73.5165C45.5531 73.7013 45.6349 73.9143 45.6569 74.1359C45.679 74.3575 45.6404 74.5807 45.5448 74.785C45.4492 74.9893 45.2996 75.1682 45.1097 75.3052L40.4728 78.6535C40.0573 78.9574 39.7219 79.3445 39.4919 79.7855C39.262 80.2265 39.1435 80.71 39.1455 81.1995V92.2493C39.0693 94.1806 39.7973 96.0655 41.1799 97.5164C42.4203 98.8183 44.1031 99.6821 45.9414 99.9733C45.2893 101.109 44.353 102.059 43.2216 102.728C41.9826 103.46 40.5609 103.825 39.1224 103.78C37.0509 103.59 35.1307 102.614 33.7567 101.052C32.3826 99.4899 31.6591 97.4611 31.7347 95.3822V83.488C31.7328 82.9611 31.8505 82.4407 32.079 81.966C32.3076 81.4912 32.6409 81.0746 33.054 80.7475L37.6625 77.1434C37.8512 76.9958 37.9999 76.8033 38.0949 76.5834C38.1899 76.3635 38.2283 76.1232 38.2064 75.8847C38.1845 75.6461 38.1031 75.4169 37.9697 75.2179C37.8362 75.019 37.655 74.8567 37.4426 74.7459L34.0372 72.9711C33.7686 72.8328 33.536 72.6335 33.3582 72.3891C33.1805 72.1447 33.0624 71.8621 33.0135 71.5639C32.9646 71.2657 32.9862 70.9602 33.0766 70.6718C33.167 70.3835 33.3237 70.1203 33.5342 69.9035L35.1454 68.2236C35.4421 67.9136 35.626 67.5129 35.6678 67.0858C35.7096 66.6588 35.6068 66.23 35.3758 65.8684L33.105 62.3258C32.8693 61.9589 32.7663 61.5224 32.813 61.0888C32.8597 60.6552 33.0534 60.2507 33.3618 59.9424L36.0425 57.2617C36.3251 56.9774 36.5112 56.6115 36.5744 56.2156C36.6375 55.8197 36.5745 55.414 36.3943 55.0559L33.4937 49.2513C32.2659 46.9522 31.6596 44.3723 31.7347 41.7669C31.5967 36.8213 33.0645 31.9641 35.9184 27.9227C38.7723 23.8812 42.8587 20.8731 47.5655 19.3488ZM46.3252 100.025C46.9469 101.103 47.8277 102.011 48.8905 102.667C50.0764 103.398 51.4422 103.785 52.8354 103.785C54.2286 103.785 55.5945 103.398 56.7804 102.667C57.8537 102.005 58.7414 101.085 59.3641 99.9932C58.3189 99.8629 57.3109 99.5316 56.4068 99.0168C55.2136 98.3375 54.2483 97.3653 53.6189 96.2088C52.9609 97.3998 51.9496 98.3934 50.703 99.0736C49.4564 99.7539 48.026 100.093 46.5786 100.051C46.4939 100.043 46.4094 100.035 46.3252 100.025ZM59.764 100.033C60.4156 101.145 61.3411 102.075 62.4552 102.732C63.6969 103.464 65.1216 103.828 66.5624 103.78C68.634 103.59 70.5542 102.614 71.9282 101.052C72.2281 100.711 72.4969 100.348 72.7333 99.9669C71.7922 99.8286 70.8832 99.5282 70.055 99.0772C68.8056 98.3968 67.7921 97.4018 67.1331 96.2088C66.5036 97.3653 65.5384 98.3375 64.3452 99.0168C63.152 99.6962 61.7778 100.056 60.376 100.056C60.1713 100.056 59.9671 100.048 59.764 100.033Z" fill="#D6DEFF"/>
<path d="M47.5658 1.75891H58.1196C59.0527 1.75891 59.9475 2.12955 60.6072 2.78929C61.267 3.44904 61.6376 4.34384 61.6376 5.27686V12.3128C61.6376 12.7793 61.4523 13.2267 61.1224 13.5565C60.7925 13.8864 60.3451 14.0717 59.8786 14.0717H45.8068C45.3403 14.0717 44.8929 13.8864 44.563 13.5565C44.2332 13.2267 44.0479 12.7793 44.0479 12.3128V5.27686C44.0479 4.34384 44.4185 3.44904 45.0782 2.78929C45.738 2.12955 46.6328 1.75891 47.5658 1.75891Z" fill="#71C19B"/>
<path d="M29.9761 83.488V95.3839C29.9062 97.9174 30.8092 100.382 32.4995 102.27C34.1897 104.159 36.539 105.328 39.0648 105.538C40.3819 105.594 41.6955 105.365 42.9152 104.864C44.1349 104.364 45.2319 103.606 46.1306 102.641C46.9918 103.558 48.0317 104.289 49.1861 104.788C50.3405 105.287 51.585 105.545 52.8428 105.545C54.1006 105.545 55.3451 105.287 56.4995 104.788C57.6539 104.289 58.6938 103.558 59.555 102.641C60.4179 103.557 61.4589 104.286 62.6142 104.785C63.7695 105.283 65.0145 105.539 66.2726 105.538H66.6244C69.1495 105.327 71.4979 104.157 73.1874 102.269C74.877 100.38 75.7794 97.9169 75.7095 95.3839V91.4667C75.7095 91.0002 75.5241 90.5528 75.1943 90.2229C74.8644 89.893 74.417 89.7077 73.9505 89.7077C73.484 89.7077 73.0366 89.893 72.7067 90.2229C72.3768 90.5528 72.1915 91.0002 72.1915 91.4667V95.3839C72.266 97.0083 71.7174 98.5998 70.6579 99.8333C69.5983 101.067 68.1077 101.849 66.4907 102.021C65.3842 102.043 64.2936 101.755 63.3425 101.189C62.3915 100.623 61.618 99.8023 61.11 98.8192C60.9606 98.536 60.7368 98.2989 60.4626 98.1336C60.1884 97.9682 59.8743 97.8808 59.5542 97.8808C59.234 97.8808 58.9199 97.9682 58.6457 98.1336C58.3716 98.2989 58.1477 98.536 57.9984 98.8192C57.5216 99.7805 56.7859 100.589 55.874 101.155C54.9622 101.721 53.9105 102.02 52.8375 102.02C51.7645 102.02 50.7128 101.721 49.801 101.155C48.8892 100.589 48.1534 99.7805 47.6767 98.8192C47.5125 98.5541 47.2833 98.3353 47.0109 98.1836C46.7385 98.0319 46.4318 97.9522 46.12 97.9522C45.8082 97.9522 45.5015 98.0319 45.2291 98.1836C44.9567 98.3353 44.7275 98.5541 44.5633 98.8192C44.0621 99.8052 43.2919 100.629 42.3418 101.196C41.3918 101.762 40.3007 102.048 39.1949 102.021C37.5779 101.849 36.0873 101.067 35.0277 99.8333C33.9681 98.5998 33.4196 97.0083 33.4941 95.3839V83.488C33.4917 83.2287 33.5479 82.9722 33.6584 82.7377C33.769 82.5032 33.9311 82.2967 34.1326 82.1336L38.7411 78.5294C39.1615 78.2004 39.4927 77.7713 39.7044 77.2812C39.9161 76.7912 40.0015 76.2559 39.9529 75.7243C39.9042 75.1927 39.7231 74.6818 39.4259 74.2383C39.1288 73.7948 38.7252 73.4329 38.2521 73.1856L34.8467 71.4144L34.7992 71.1259L36.4087 69.4461C36.9816 68.8525 37.3369 68.0828 37.4171 67.2618C37.4972 66.4408 37.2974 65.6169 36.8502 64.9237L34.5794 61.3794C34.5605 61.3502 34.5523 61.3153 34.5561 61.2807C34.56 61.2461 34.5756 61.2138 34.6005 61.1894L37.2829 58.5088C37.8277 57.9643 38.1872 57.2621 38.3104 56.5018C38.4335 55.7415 38.314 54.9617 37.9689 54.2732L35.0578 48.4422C33.9579 46.3936 33.4184 44.0908 33.4941 41.7668C33.3324 37.2001 34.6653 32.7053 37.2904 28.965C39.9154 25.2247 43.6893 22.4431 48.039 21.0426C48.4089 20.9393 48.7348 20.7178 48.9669 20.412C49.1991 20.1061 49.3248 19.7327 49.3249 19.3487V15.8308H56.3607V19.3487C56.3608 19.7327 56.4865 20.1061 56.7187 20.412C56.9508 20.7178 57.2767 20.9393 57.6466 21.0426C61.8509 22.4237 65.5155 25.09 68.1233 28.6654C70.731 32.2408 72.1504 36.5448 72.181 40.97C72.181 41.0263 72.1634 41.0896 72.181 41.0791L66.2655 46.6937C65.9159 47.0248 65.64 47.426 65.4558 47.8709C65.2717 48.3159 65.1835 48.7947 65.1969 49.2761C65.2104 49.7575 65.3252 50.2306 65.5338 50.6646C65.7425 51.0986 66.0404 51.4837 66.408 51.7948L71.1133 55.7753C71.1291 55.7894 71.159 56.1095 71.1766 56.1271L66.3201 61.1894C65.6579 61.8988 65.2936 62.8354 65.3024 63.8057C65.3113 64.776 65.6926 65.7059 66.3675 66.403L70.4325 70.4346V74.2287C70.4308 75.3576 70.7531 76.4632 71.3613 77.4142C71.9315 78.3751 72.2193 79.4774 72.1915 80.5945V84.4308C72.1915 84.8973 72.3768 85.3447 72.7067 85.6746C73.0366 86.0044 73.484 86.1898 73.9505 86.1898C74.417 86.1898 74.8644 86.0044 75.1943 85.6746C75.5241 85.3447 75.7095 84.8973 75.7095 84.4308V80.5945C75.7354 78.8044 75.2549 77.0434 74.3234 75.5145C74.0781 75.1307 73.9486 74.6843 73.9505 74.2287V70.4346C73.9502 69.4505 73.5629 68.506 72.8722 67.8049L68.8495 63.9194C68.8145 63.8781 68.7953 63.8257 68.7953 63.7716C68.7953 63.7175 68.8145 63.6652 68.8495 63.6239L73.7042 58.5615C74.0639 58.1841 74.3406 57.7356 74.5166 57.2449C74.6926 56.7541 74.764 56.232 74.7262 55.712C74.6938 55.2055 74.5569 54.7111 74.3241 54.26C74.0913 53.809 73.7677 53.411 73.3735 53.0911L68.6736 49.2513L74.6541 43.5751C74.9962 43.2174 75.2645 42.7957 75.4435 42.3342C75.6225 41.8727 75.7087 41.3805 75.6972 40.8856C75.661 35.9387 74.1314 31.1181 71.3088 27.0553C68.4862 22.9926 64.5021 19.8772 59.8787 18.1174V15.8308C60.8117 15.8308 61.7065 15.4601 62.3663 14.8004C63.026 14.1406 63.3966 13.2458 63.3966 12.3128V5.27692C63.3966 3.8774 62.8407 2.53519 61.8511 1.54558C60.8615 0.55596 59.5192 0 58.1197 0L47.5659 0C46.1663 0 44.8241 0.55596 43.8345 1.54558C42.8449 2.53519 42.289 3.8774 42.289 5.27692V12.3128C42.289 13.2458 42.6596 14.1406 43.3193 14.8004C43.9791 15.4601 44.8739 15.8308 45.8069 15.8308V18.1174C41.0488 19.9427 36.9724 23.1964 34.1378 27.4316C31.3033 31.6668 29.8495 36.6757 29.9761 41.7704C29.8981 44.6482 30.5691 47.497 31.9233 50.0375L34.8221 55.8422C34.8364 55.8708 34.8413 55.9031 34.8363 55.9346C34.8312 55.9662 34.8164 55.9953 34.794 56.0181L32.1115 58.6987C31.5244 59.293 31.156 60.0688 31.0665 60.8994C30.9771 61.73 31.1718 62.5664 31.619 63.2721L33.8899 66.8164C33.9079 66.8455 33.9158 66.8798 33.9123 66.9138C33.9088 66.9479 33.8941 66.9798 33.8705 67.0046L32.261 68.6844C31.8619 69.0984 31.5649 69.5998 31.3937 70.1487C31.2225 70.6977 31.1818 71.2791 31.2749 71.8465C31.368 72.414 31.5923 72.9519 31.9299 73.4173C32.2675 73.8828 32.7092 74.263 33.2197 74.5277L36.1748 76.0686L31.9673 79.3596C31.3455 79.853 30.8433 80.4806 30.4985 81.1956C30.1537 81.9105 29.9751 82.6942 29.9761 83.488ZM45.8069 5.27692C45.8069 4.81041 45.9922 4.36301 46.3221 4.03314C46.652 3.70327 47.0994 3.51795 47.5659 3.51795H58.1197C58.5862 3.51795 59.0336 3.70327 59.3635 4.03314C59.6934 4.36301 59.8787 4.81041 59.8787 5.27692V12.3128H45.8069V5.27692Z" fill="#474647"/>
<path d="M47.5659 75.6359C47.6394 75.6356 47.7128 75.6309 47.7857 75.6219L61.8575 73.8629C62.0908 73.8393 62.3171 73.7693 62.5229 73.6571C62.7288 73.5448 62.9101 73.3925 63.0563 73.2091C63.2024 73.0257 63.3104 72.8149 63.3739 72.5892C63.4375 72.3635 63.4552 72.1273 63.4261 71.8947C63.397 71.662 63.3217 71.4374 63.2046 71.2343C63.0875 71.0311 62.9309 70.8535 62.7441 70.7117C62.5573 70.5699 62.3441 70.4669 62.1169 70.4088C61.8897 70.3506 61.6532 70.3385 61.4213 70.3731L47.3495 72.1321C46.9063 72.1884 46.5012 72.4114 46.2163 72.7556C45.9315 73.0998 45.7883 73.5395 45.8158 73.9854C45.8434 74.4313 46.0396 74.85 46.3646 75.1566C46.6896 75.4631 47.1191 75.6345 47.5659 75.6359ZM61.5638 41.7106C61.4975 41.4893 61.3883 41.2832 61.2423 41.1041C61.0964 40.9251 60.9166 40.7765 60.7133 40.6669C60.5099 40.5573 60.287 40.4888 60.0571 40.4654C59.8273 40.4419 59.5951 40.464 59.3738 40.5303L41.7841 45.8072C41.3795 45.9284 41.0319 46.1911 40.805 46.5473C40.5781 46.9035 40.4869 47.3295 40.5481 47.7474C40.6094 48.1654 40.819 48.5473 41.1386 48.8234C41.4582 49.0995 41.8665 49.2514 42.2889 49.2513C42.4599 49.2508 42.6298 49.2259 42.7938 49.1774L60.3835 43.9005C60.6048 43.8342 60.8109 43.725 60.99 43.5791C61.169 43.4332 61.3176 43.2534 61.4272 43.05C61.5368 42.8467 61.6053 42.6237 61.6287 42.3939C61.6522 42.1641 61.6301 41.9319 61.5638 41.7106ZM45.4551 61.529L54.25 63.2879C54.3656 63.3121 54.4836 63.3239 54.6018 63.3231C55.038 63.3236 55.4588 63.1619 55.7825 62.8695C56.1062 62.5771 56.3098 62.1749 56.3536 61.7409C56.3974 61.3069 56.2784 60.8721 56.0197 60.5209C55.761 60.1697 55.381 59.9271 54.9535 59.8403L46.1587 58.0814C45.9289 58.0271 45.6906 58.0197 45.4579 58.0595C45.2252 58.0993 45.0028 58.1856 44.8042 58.3132C44.6055 58.4407 44.4346 58.607 44.3015 58.802C44.1685 58.997 44.076 59.2168 44.0297 59.4483C43.9834 59.6798 43.9842 59.9183 44.032 60.1495C44.0798 60.3807 44.1737 60.5999 44.308 60.794C44.4423 60.9882 44.6144 61.1533 44.8138 61.2796C45.0133 61.4058 45.2362 61.4907 45.4692 61.529H45.4551Z" fill="#474647"/>
<path d="M93.6525 49.1955C93.768 49.3443 93.8544 49.5155 93.9069 49.6994C93.9069 49.6994 93.9769 50.0761 93.9583 50.267C93.9398 50.4579 93.8856 50.6432 93.7988 50.8121C93.7121 50.981 93.5945 51.1304 93.4527 51.2516C93.3109 51.3728 93.1478 51.4636 92.9727 51.5186L80.6768 54.7638C80.547 54.8041 80.4125 54.8247 80.2772 54.8252C79.9428 54.8253 79.6196 54.6991 79.3666 54.4697C79.1136 54.2403 78.9477 53.923 78.8992 53.5758C78.8508 53.2287 78.9229 52.8748 79.1026 52.5788C79.2822 52.2829 79.5573 52.0646 79.8776 51.964L92.1735 48.7188C92.3486 48.6638 92.5324 48.6454 92.7143 48.6649C92.8962 48.6843 93.0727 48.7412 93.2337 48.8323C93.3947 48.9233 93.537 49.0468 93.6525 49.1955Z" fill="#474647"/>
<path d="M92.9672 61.8255C93.0827 61.6767 93.1691 61.5055 93.2216 61.3216C93.2216 61.3216 93.2916 60.9449 93.273 60.754C93.2545 60.5631 93.2003 60.3778 93.1135 60.2089C93.0268 60.04 92.9091 59.8906 92.7674 59.7694C92.6256 59.6482 92.4625 59.5574 92.2873 59.5024L79.9915 56.2572C79.8617 56.2169 79.7272 56.1962 79.5919 56.1958C79.2575 56.1957 78.9343 56.3219 78.6813 56.5513C78.4283 56.7807 78.2624 57.098 78.2139 57.4452C78.1655 57.7923 78.2376 58.1462 78.4173 58.4422C78.5969 58.7381 78.872 58.9564 79.1923 59.057L91.4882 62.3022C91.6633 62.3572 91.8471 62.3756 92.029 62.3561C92.2109 62.3366 92.3874 62.2798 92.5484 62.1887C92.7094 62.0977 92.8517 61.9742 92.9672 61.8255Z" fill="#474647"/>
<path d="M12.6901 75.863C12.5851 75.9953 12.5065 76.1475 12.4588 76.3109C12.4588 76.3109 12.3952 76.6457 12.412 76.8154C12.4289 76.9852 12.4782 77.1498 12.557 77.3C12.6359 77.4501 12.7428 77.5829 12.8717 77.6907C13.0006 77.7984 13.1488 77.8791 13.3081 77.928L24.4862 80.8126C24.6041 80.8484 24.7264 80.8668 24.8494 80.8672C25.1534 80.8672 25.4472 80.7551 25.6772 80.5512C25.9072 80.3473 26.058 80.0652 26.1021 79.7566C26.1462 79.448 26.0806 79.1334 25.9173 78.8704C25.754 78.6073 25.5039 78.4133 25.2127 78.3239L14.0346 75.4393C13.8754 75.3903 13.7083 75.374 13.5429 75.3913C13.3776 75.4086 13.2171 75.4592 13.0708 75.5401C12.9244 75.6211 12.7951 75.7308 12.6901 75.863Z" fill="#474647"/>
<path d="M13.3754 87.2419C13.2704 87.1097 13.1918 86.9575 13.1441 86.7941C13.1441 86.7941 13.0805 86.4592 13.0973 86.2895C13.1142 86.1198 13.1635 85.9552 13.2423 85.805C13.3212 85.6548 13.4281 85.5221 13.557 85.4143C13.6859 85.3066 13.8341 85.2259 13.9934 85.177L25.1715 82.2924C25.2894 82.2566 25.4117 82.2382 25.5347 82.2378C25.8387 82.2377 26.1325 82.3499 26.3625 82.5538C26.5925 82.7577 26.7433 83.0397 26.7874 83.3483C26.8315 83.657 26.7659 83.9715 26.6026 84.2346C26.4393 84.4977 26.1892 84.6916 25.898 84.7811L14.7199 87.6657C14.5607 87.7146 14.3936 87.7309 14.2282 87.7136C14.0629 87.6963 13.9024 87.6458 13.7561 87.5648C13.6097 87.4839 13.4804 87.3742 13.3754 87.2419Z" fill="#474647"/>
</g>
<defs>
<clipPath id="clip0_158_10167">
<rect width="105.538" height="105.538" fill="white" transform="translate(0.0734863)"/>
</clipPath>
</defs>
</svg>
