<svg width="20" height="24" viewBox="0 0 20 24" fill="none" xmlns="http://www.w3.org/2000/svg">
<path d="M19.3394 17.0367C18.616 16.4264 18.0347 15.6653 17.6362 14.8068C17.2377 13.9482 17.0317 13.013 17.0324 12.0665V9.36399C17.0294 7.73347 16.44 6.15845 15.3718 4.92655C14.3036 3.69466 12.8279 2.8881 11.2143 2.65417V1.6069C11.2143 1.34959 11.1121 1.10282 10.9301 0.920879C10.7482 0.738935 10.5014 0.636719 10.2441 0.636719C9.98678 0.636719 9.74001 0.738935 9.55806 0.920879C9.37612 1.10282 9.2739 1.34959 9.2739 1.6069V2.65417C7.66025 2.8881 6.18458 3.69466 5.11639 4.92655C4.04819 6.15845 3.45876 7.73347 3.45572 9.36399V12.068C3.4559 13.0163 3.24873 13.9532 2.84872 14.813C2.44872 15.6728 1.86556 16.4347 1.14009 17.0454C0.876017 17.2708 0.687444 17.5717 0.599831 17.9076C0.512217 18.2435 0.529782 18.5981 0.650154 18.9237C0.770527 19.2493 0.987908 19.5301 1.27295 19.7283C1.55799 19.9264 1.89696 20.0323 2.24409 20.0316H18.2441C18.5917 20.031 18.9308 19.9237 19.2156 19.7242C19.5003 19.5248 19.717 19.2427 19.8364 18.9162C19.9558 18.5897 19.9722 18.2344 19.8833 17.8983C19.7944 17.5622 19.6046 17.2615 19.3394 17.0367Z" fill="#4E5EA5"/>
<path d="M10.2441 23.9093C11.9997 23.9093 13.4688 22.6584 13.8062 21.0002H6.68042C7.01933 22.6584 8.48842 23.9093 10.2441 23.9093Z" fill="#4E5EA5"/>
</svg>
