<svg width="9" height="16" viewBox="0 0 9 16" fill="none" xmlns="http://www.w3.org/2000/svg">
<path d="M7.08451 1.08431L0.834506 7.33431C0.747106 7.42141 0.67776 7.5249 0.630443 7.63886C0.583125 7.75281 0.558766 7.87499 0.558766 7.99837C0.558766 8.12176 0.583125 8.24394 0.630443 8.35789C0.67776 8.47185 0.747106 8.57534 0.834506 8.66244L7.08451 14.9124C7.26063 15.0886 7.4995 15.1875 7.74857 15.1875C7.99764 15.1875 8.23651 15.0886 8.41263 14.9124C8.58875 14.7363 8.6877 14.4974 8.6877 14.2484C8.6877 13.9993 8.58875 13.7604 8.41263 13.5843L2.82591 7.99759L8.41341 2.41088C8.58953 2.23475 8.68848 1.99588 8.68848 1.74681C8.68848 1.49774 8.58953 1.25887 8.41341 1.08275C8.23729 0.90663 7.99842 0.807684 7.74935 0.807684C7.50028 0.807684 7.26141 0.90663 7.08529 1.08275L7.08451 1.08431Z" fill="#4E5EA5"/>
</svg>
