<svg width="736" height="108" viewBox="0 0 736 108" fill="none" xmlns="http://www.w3.org/2000/svg">
<rect x="61" y="42" width="610" height="4" rx="2" fill="#D7D7D7"/>
<rect x="57.9492" y="33" width="22" height="22" rx="11" fill="#D7D7D7"/>
<path d="M44.7903 28.074C44.5383 27.15 44.3223 26.244 44.1423 25.356C43.9623 24.48 43.8243 23.694 43.7283 22.998C43.6323 22.302 43.5843 21.786 43.5843 21.45C43.5843 20.562 43.7283 19.752 44.0163 19.02C44.3043 18.288 44.6763 17.646 45.1323 17.094C45.5883 16.53 46.0803 16.056 46.6083 15.672C47.1363 15.276 47.6463 14.982 48.1383 14.79C48.6423 14.586 49.0683 14.484 49.4163 14.484C49.7163 14.484 49.9803 14.55 50.2083 14.682C50.4363 14.814 50.6583 15.072 50.8743 15.456C51.0903 15.84 51.3183 16.404 51.5583 17.148C51.7863 17.832 52.0023 18.354 52.2063 18.714C52.4103 19.062 52.6323 19.302 52.8723 19.434C53.1123 19.554 53.3883 19.614 53.7003 19.614C53.9523 19.614 54.1323 19.686 54.2403 19.83C54.3603 19.962 54.4203 20.124 54.4203 20.316C54.4203 20.508 54.3363 20.688 54.1683 20.856C54.0003 21.012 53.7843 21.09 53.5203 21.09C53.0523 21.09 52.6503 21.006 52.3143 20.838C51.9903 20.67 51.7083 20.442 51.4683 20.154L51.8823 19.812C51.7383 20.16 51.5523 20.448 51.3243 20.676C51.1083 20.892 50.8623 21.054 50.5863 21.162C50.3223 21.27 50.0403 21.324 49.7403 21.324C49.3923 21.324 49.0323 21.258 48.6603 21.126C48.2883 21.006 47.9223 20.826 47.5623 20.586C47.2023 20.334 46.8603 20.028 46.5363 19.668C46.2243 19.308 45.9483 18.9 45.7083 18.444L45.8883 18.48C45.5523 18.948 45.3303 19.458 45.2223 20.01C45.1143 20.55 45.0603 21.03 45.0603 21.45C45.0603 21.786 45.0963 22.212 45.1683 22.728C45.2403 23.256 45.3303 23.814 45.4383 24.402C45.5583 24.99 45.6843 25.572 45.8163 26.148C45.9603 26.736 46.0923 27.264 46.2123 27.732L44.7903 28.074ZM49.8843 19.848C50.1003 19.848 50.2743 19.806 50.4063 19.722C50.5503 19.638 50.6463 19.512 50.6943 19.344C50.7423 19.176 50.7243 18.966 50.6403 18.714C50.4963 18.282 50.3643 17.904 50.2443 17.58C50.1243 17.244 50.0043 16.968 49.8843 16.752C49.7763 16.524 49.6623 16.356 49.5423 16.248C49.4223 16.14 49.2963 16.086 49.1643 16.086C49.0323 16.086 48.8643 16.116 48.6603 16.176C48.4683 16.236 48.2583 16.326 48.0303 16.446C47.8143 16.566 47.5923 16.716 47.3643 16.896C47.1363 17.076 46.9203 17.286 46.7163 17.526L46.7343 17.382C46.9983 17.934 47.3163 18.396 47.6883 18.768C48.0723 19.14 48.4563 19.416 48.8403 19.596C49.2363 19.764 49.5843 19.848 49.8843 19.848ZM53.5117 21.09L53.6917 19.614C54.2917 19.614 54.7597 19.572 55.0957 19.488C55.4317 19.392 55.6837 19.218 55.8517 18.966C56.0317 18.702 56.1757 18.324 56.2837 17.832C56.3917 17.34 56.5237 16.698 56.6797 15.906L58.0837 16.176C58.0357 16.392 57.9817 16.632 57.9217 16.896C57.8617 17.16 57.8077 17.424 57.7597 17.688C57.7237 17.94 57.7057 18.162 57.7057 18.354C57.7057 18.534 57.7177 18.702 57.7417 18.858C57.7657 19.014 57.8557 19.146 58.0117 19.254C58.1677 19.362 58.4317 19.452 58.8037 19.524C59.1757 19.584 59.7097 19.614 60.4057 19.614C60.6577 19.614 60.8377 19.686 60.9457 19.83C61.0657 19.962 61.1257 20.124 61.1257 20.316C61.1257 20.508 61.0417 20.688 60.8737 20.856C60.7057 21.012 60.4897 21.09 60.2257 21.09C59.4937 21.09 58.9117 21.054 58.4797 20.982C58.0477 20.898 57.7177 20.778 57.4897 20.622C57.2737 20.466 57.1177 20.274 57.0217 20.046C56.9377 19.806 56.8717 19.53 56.8237 19.218L57.3637 19.254C57.1717 19.638 56.9617 19.95 56.7337 20.19C56.5177 20.43 56.2657 20.616 55.9777 20.748C55.6897 20.88 55.3417 20.97 54.9337 21.018C54.5377 21.066 54.0637 21.09 53.5117 21.09ZM58.0477 24.492C57.7957 24.492 57.5797 24.402 57.3997 24.222C57.2317 24.054 57.1477 23.85 57.1477 23.61C57.1477 23.37 57.2317 23.16 57.3997 22.98C57.5797 22.8 57.7957 22.71 58.0477 22.71C58.2877 22.71 58.4917 22.8 58.6597 22.98C58.8397 23.16 58.9297 23.37 58.9297 23.61C58.9297 23.85 58.8397 24.054 58.6597 24.222C58.4917 24.402 58.2877 24.492 58.0477 24.492ZM55.5817 24.492C55.3297 24.492 55.1137 24.402 54.9337 24.222C54.7657 24.054 54.6817 23.85 54.6817 23.61C54.6817 23.37 54.7657 23.16 54.9337 22.98C55.1137 22.8 55.3297 22.71 55.5817 22.71C55.8217 22.71 56.0257 22.8 56.1937 22.98C56.3737 23.16 56.4637 23.37 56.4637 23.61C56.4637 23.85 56.3737 24.054 56.1937 24.222C56.0257 24.402 55.8217 24.492 55.5817 24.492ZM60.2266 21.09L60.3886 19.614C61.0726 19.614 61.5526 19.548 61.8286 19.416C62.1046 19.284 62.2606 19.05 62.2966 18.714C62.3446 18.378 62.3566 17.91 62.3326 17.31L62.0266 8.148H63.5206L63.8086 17.274C63.8326 17.886 63.9286 18.366 64.0966 18.714C64.2766 19.05 64.5166 19.284 64.8166 19.416C65.1166 19.548 65.4466 19.614 65.8066 19.614C66.0586 19.614 66.2386 19.686 66.3466 19.83C66.4666 19.962 66.5266 20.124 66.5266 20.316C66.5266 20.508 66.4426 20.688 66.2746 20.856C66.1066 21.012 65.8906 21.09 65.6266 21.09C65.1226 21.09 64.7026 21.012 64.3666 20.856C64.0426 20.688 63.7846 20.478 63.5926 20.226C63.4126 19.962 63.2926 19.686 63.2326 19.398L63.6106 19.434C63.4906 19.794 63.2926 20.1 63.0166 20.352C62.7526 20.592 62.3926 20.778 61.9366 20.91C61.4806 21.03 60.9106 21.09 60.2266 21.09ZM65.623 21.09L65.803 19.614C66.187 19.614 66.499 19.59 66.739 19.542C66.979 19.482 67.177 19.344 67.333 19.128C67.501 18.9 67.657 18.546 67.801 18.066C67.945 17.586 68.113 16.914 68.305 16.05L69.655 16.428C69.583 16.728 69.499 17.088 69.403 17.508C69.307 17.928 69.259 18.312 69.259 18.66C69.259 18.852 69.307 19.02 69.403 19.164C69.499 19.308 69.661 19.422 69.889 19.506C70.129 19.578 70.447 19.614 70.843 19.614C71.203 19.614 71.497 19.584 71.725 19.524C71.953 19.464 72.139 19.32 72.283 19.092C72.439 18.864 72.577 18.498 72.697 17.994C72.817 17.49 72.943 16.8 73.075 15.924L74.443 16.176C74.407 16.392 74.365 16.656 74.317 16.968C74.269 17.28 74.221 17.592 74.173 17.904C74.137 18.204 74.119 18.456 74.119 18.66C74.119 18.828 74.155 18.99 74.227 19.146C74.311 19.29 74.467 19.404 74.695 19.488C74.935 19.572 75.289 19.614 75.757 19.614C76.357 19.614 76.789 19.488 77.053 19.236C77.329 18.984 77.467 18.6 77.467 18.084C77.467 17.808 77.461 17.52 77.449 17.22C77.437 16.908 77.413 16.566 77.377 16.194C77.353 15.81 77.311 15.372 77.251 14.88L78.565 14.79C78.637 15.762 78.715 16.56 78.799 17.184C78.895 17.808 79.027 18.3 79.195 18.66C79.375 19.008 79.615 19.254 79.915 19.398C80.215 19.542 80.611 19.614 81.103 19.614C81.355 19.614 81.535 19.686 81.643 19.83C81.763 19.962 81.823 20.124 81.823 20.316C81.823 20.508 81.739 20.688 81.571 20.856C81.403 21.012 81.187 21.09 80.923 21.09C80.515 21.09 80.149 21.036 79.825 20.928C79.513 20.808 79.237 20.652 78.997 20.46C78.769 20.256 78.577 20.028 78.421 19.776C78.277 19.512 78.175 19.236 78.115 18.948L78.439 19.056C78.307 19.596 78.097 20.016 77.809 20.316C77.533 20.604 77.203 20.808 76.819 20.928C76.435 21.036 76.027 21.09 75.595 21.09C75.067 21.09 74.635 21.024 74.299 20.892C73.963 20.76 73.699 20.562 73.507 20.298C73.327 20.022 73.207 19.674 73.147 19.254H73.759C73.531 19.77 73.291 20.16 73.039 20.424C72.787 20.688 72.475 20.868 72.103 20.964C71.731 21.048 71.239 21.09 70.627 21.09C70.327 21.09 70.003 21.042 69.655 20.946C69.319 20.85 69.025 20.664 68.773 20.388C68.521 20.1 68.371 19.674 68.323 19.11L68.863 19.002C68.659 19.614 68.407 20.07 68.107 20.37C67.819 20.658 67.471 20.85 67.063 20.946C66.655 21.042 66.175 21.09 65.623 21.09ZM80.916 21.09L81.096 19.614C81.696 19.614 82.164 19.572 82.5 19.488C82.836 19.392 83.088 19.218 83.256 18.966C83.436 18.702 83.58 18.324 83.688 17.832C83.796 17.34 83.928 16.698 84.084 15.906L85.488 16.176C85.44 16.392 85.386 16.632 85.326 16.896C85.266 17.16 85.212 17.424 85.164 17.688C85.128 17.94 85.11 18.162 85.11 18.354C85.11 18.534 85.122 18.702 85.146 18.858C85.17 19.014 85.26 19.146 85.416 19.254C85.572 19.362 85.836 19.452 86.208 19.524C86.58 19.584 87.114 19.614 87.81 19.614C88.062 19.614 88.242 19.686 88.35 19.83C88.47 19.962 88.53 20.124 88.53 20.316C88.53 20.508 88.446 20.688 88.278 20.856C88.11 21.012 87.894 21.09 87.63 21.09C86.898 21.09 86.316 21.054 85.884 20.982C85.452 20.898 85.122 20.778 84.894 20.622C84.678 20.466 84.522 20.274 84.426 20.046C84.342 19.806 84.276 19.53 84.228 19.218L84.768 19.254C84.576 19.638 84.366 19.95 84.138 20.19C83.922 20.43 83.67 20.616 83.382 20.748C83.094 20.88 82.746 20.97 82.338 21.018C81.942 21.066 81.468 21.09 80.916 21.09ZM85.722 14.052C85.47 14.052 85.254 13.968 85.074 13.8C84.906 13.62 84.822 13.41 84.822 13.17C84.822 12.93 84.906 12.72 85.074 12.54C85.254 12.36 85.47 12.27 85.722 12.27C85.962 12.27 86.166 12.36 86.334 12.54C86.514 12.72 86.604 12.93 86.604 13.17C86.604 13.41 86.514 13.62 86.334 13.8C86.166 13.968 85.962 14.052 85.722 14.052ZM83.256 14.052C83.004 14.052 82.788 13.968 82.608 13.8C82.44 13.62 82.356 13.41 82.356 13.17C82.356 12.93 82.44 12.72 82.608 12.54C82.788 12.36 83.004 12.27 83.256 12.27C83.496 12.27 83.7 12.36 83.868 12.54C84.048 12.72 84.138 12.93 84.138 13.17C84.138 13.41 84.048 13.62 83.868 13.8C83.7 13.968 83.496 14.052 83.256 14.052ZM87.6309 21.09L87.7929 19.614C88.4769 19.614 88.9569 19.548 89.2329 19.416C89.5089 19.284 89.6649 19.05 89.7009 18.714C89.7489 18.378 89.7609 17.91 89.7369 17.31L89.3949 8.148H90.8529L91.2129 17.148C91.2369 17.784 91.2129 18.348 91.1409 18.84C91.0809 19.332 90.9249 19.746 90.6729 20.082C90.4329 20.418 90.0669 20.67 89.5749 20.838C89.0949 21.006 88.4469 21.09 87.6309 21.09ZM93.9626 21L93.6026 8.148H95.0606L95.4206 21H93.9626Z" fill="#B8B8B8"/>
<rect x="256.828" y="33" width="22" height="22" rx="11" fill="#D7D7D7"/>
<path d="M242.606 21.018C242.606 20.586 242.666 20.106 242.786 19.578C242.906 19.05 243.098 18.468 243.362 17.832L244.658 18.336C244.466 18.84 244.322 19.302 244.226 19.722C244.13 20.142 244.082 20.532 244.082 20.892C244.082 21.552 244.244 22.086 244.568 22.494C244.904 22.914 245.348 23.22 245.9 23.412C246.464 23.604 247.082 23.7 247.754 23.7C248.57 23.7 249.254 23.61 249.806 23.43C250.358 23.262 250.796 23.028 251.12 22.728C251.444 22.428 251.672 22.086 251.804 21.702C251.948 21.33 252.02 20.94 252.02 20.532C252.02 20.004 251.978 19.506 251.894 19.038C251.822 18.57 251.72 18.114 251.588 17.67C251.468 17.214 251.336 16.752 251.192 16.284L252.65 15.888C252.782 16.344 252.884 16.716 252.956 17.004C253.028 17.28 253.082 17.502 253.118 17.67C253.166 17.838 253.208 17.988 253.244 18.12C253.376 18.564 253.55 18.894 253.766 19.11C253.982 19.314 254.228 19.452 254.504 19.524C254.792 19.584 255.086 19.614 255.386 19.614C255.638 19.614 255.818 19.686 255.926 19.83C256.046 19.962 256.106 20.124 256.106 20.316C256.106 20.508 256.022 20.688 255.854 20.856C255.686 21.012 255.47 21.09 255.206 21.09C254.702 21.09 254.282 21.006 253.946 20.838C253.61 20.658 253.346 20.436 253.154 20.172C252.974 19.908 252.854 19.632 252.794 19.344L253.532 20.262C253.496 20.874 253.376 21.468 253.172 22.044C252.98 22.632 252.668 23.16 252.236 23.628C251.804 24.108 251.216 24.486 250.472 24.762C249.74 25.038 248.816 25.176 247.7 25.176C247.016 25.176 246.368 25.092 245.756 24.924C245.144 24.756 244.598 24.498 244.118 24.15C243.65 23.814 243.278 23.382 243.002 22.854C242.738 22.338 242.606 21.726 242.606 21.018ZM248.042 13.836C247.79 13.836 247.574 13.752 247.394 13.584C247.226 13.404 247.142 13.194 247.142 12.954C247.142 12.714 247.226 12.504 247.394 12.324C247.574 12.144 247.79 12.054 248.042 12.054C248.282 12.054 248.486 12.144 248.654 12.324C248.834 12.504 248.924 12.714 248.924 12.954C248.924 13.194 248.834 13.404 248.654 13.584C248.486 13.752 248.282 13.836 248.042 13.836ZM266.681 21.09C266.177 21.09 265.715 21.06 265.295 21C264.875 20.928 264.497 20.802 264.161 20.622C263.825 20.442 263.543 20.184 263.315 19.848C263.087 19.5 262.913 19.044 262.793 18.48L263.855 17.85C264.011 18.33 264.203 18.696 264.431 18.948C264.659 19.2 264.965 19.374 265.349 19.47C265.745 19.566 266.249 19.614 266.861 19.614C267.113 19.614 267.293 19.686 267.401 19.83C267.521 19.962 267.581 20.124 267.581 20.316C267.581 20.508 267.497 20.688 267.329 20.856C267.161 21.012 266.945 21.09 266.681 21.09ZM255.215 21.09L255.377 19.614C256.001 19.614 256.613 19.566 257.213 19.47C257.813 19.374 258.401 19.236 258.977 19.056C259.553 18.876 260.105 18.66 260.633 18.408C261.173 18.144 261.683 17.844 262.163 17.508C261.851 17.232 261.491 16.992 261.083 16.788C260.675 16.584 260.225 16.428 259.733 16.32C259.253 16.2 258.743 16.14 258.203 16.14C258.011 16.14 257.831 16.146 257.663 16.158C257.495 16.17 257.327 16.194 257.159 16.23C256.991 16.254 256.799 16.29 256.583 16.338L256.295 14.97C256.619 14.874 256.943 14.802 257.267 14.754C257.591 14.694 257.903 14.664 258.203 14.664C258.827 14.664 259.391 14.742 259.895 14.898C260.399 15.042 260.855 15.222 261.263 15.438C261.683 15.654 262.073 15.87 262.433 16.086C262.805 16.302 263.165 16.488 263.513 16.644C263.861 16.788 264.221 16.86 264.593 16.86H264.971L265.097 18.156C264.581 18.156 264.107 18.228 263.675 18.372C263.243 18.516 262.817 18.702 262.397 18.93C261.989 19.146 261.557 19.38 261.101 19.632C260.645 19.872 260.141 20.106 259.589 20.334C259.037 20.55 258.401 20.73 257.681 20.874C256.973 21.018 256.151 21.09 255.215 21.09ZM266.676 21.09L266.856 19.614C267.24 19.614 267.552 19.59 267.792 19.542C268.032 19.482 268.23 19.344 268.386 19.128C268.554 18.9 268.71 18.546 268.854 18.066C268.998 17.586 269.166 16.914 269.358 16.05L270.708 16.428C270.636 16.728 270.552 17.088 270.456 17.508C270.36 17.928 270.312 18.312 270.312 18.66C270.312 18.852 270.36 19.02 270.456 19.164C270.552 19.308 270.714 19.422 270.942 19.506C271.182 19.578 271.5 19.614 271.896 19.614C272.256 19.614 272.55 19.584 272.778 19.524C273.006 19.464 273.192 19.32 273.336 19.092C273.492 18.864 273.63 18.498 273.75 17.994C273.87 17.49 273.996 16.8 274.128 15.924L275.496 16.176C275.46 16.392 275.418 16.656 275.37 16.968C275.322 17.28 275.274 17.592 275.226 17.904C275.19 18.204 275.172 18.456 275.172 18.66C275.172 18.828 275.208 18.99 275.28 19.146C275.364 19.29 275.52 19.404 275.748 19.488C275.988 19.572 276.342 19.614 276.81 19.614C277.41 19.614 277.842 19.488 278.106 19.236C278.382 18.984 278.52 18.6 278.52 18.084C278.52 17.808 278.514 17.52 278.502 17.22C278.49 16.908 278.466 16.566 278.43 16.194C278.406 15.81 278.364 15.372 278.304 14.88L279.618 14.79C279.69 15.762 279.768 16.56 279.852 17.184C279.948 17.808 280.08 18.3 280.248 18.66C280.428 19.008 280.668 19.254 280.968 19.398C281.268 19.542 281.664 19.614 282.156 19.614C282.408 19.614 282.588 19.686 282.696 19.83C282.816 19.962 282.876 20.124 282.876 20.316C282.876 20.508 282.792 20.688 282.624 20.856C282.456 21.012 282.24 21.09 281.976 21.09C281.568 21.09 281.202 21.036 280.878 20.928C280.566 20.808 280.29 20.652 280.05 20.46C279.822 20.256 279.63 20.028 279.474 19.776C279.33 19.512 279.228 19.236 279.168 18.948L279.492 19.056C279.36 19.596 279.15 20.016 278.862 20.316C278.586 20.604 278.256 20.808 277.872 20.928C277.488 21.036 277.08 21.09 276.648 21.09C276.12 21.09 275.688 21.024 275.352 20.892C275.016 20.76 274.752 20.562 274.56 20.298C274.38 20.022 274.26 19.674 274.2 19.254H274.812C274.584 19.77 274.344 20.16 274.092 20.424C273.84 20.688 273.528 20.868 273.156 20.964C272.784 21.048 272.292 21.09 271.68 21.09C271.38 21.09 271.056 21.042 270.708 20.946C270.372 20.85 270.078 20.664 269.826 20.388C269.574 20.1 269.424 19.674 269.376 19.11L269.916 19.002C269.712 19.614 269.46 20.07 269.16 20.37C268.872 20.658 268.524 20.85 268.116 20.946C267.708 21.042 267.228 21.09 266.676 21.09ZM274.434 11.19C274.182 11.19 273.966 11.106 273.786 10.938C273.618 10.758 273.534 10.548 273.534 10.308C273.534 10.068 273.618 9.858 273.786 9.678C273.966 9.498 274.182 9.408 274.434 9.408C274.674 9.408 274.878 9.498 275.046 9.678C275.226 9.858 275.316 10.068 275.316 10.308C275.316 10.548 275.226 10.758 275.046 10.938C274.878 11.106 274.674 11.19 274.434 11.19ZM273.21 13.17C272.958 13.17 272.742 13.086 272.562 12.918C272.394 12.738 272.31 12.528 272.31 12.288C272.31 12.048 272.394 11.838 272.562 11.658C272.742 11.478 272.958 11.388 273.21 11.388C273.45 11.388 273.654 11.478 273.822 11.658C274.002 11.838 274.092 12.048 274.092 12.288C274.092 12.528 274.002 12.738 273.822 12.918C273.654 13.086 273.45 13.17 273.21 13.17ZM275.658 13.17C275.406 13.17 275.19 13.086 275.01 12.918C274.842 12.738 274.758 12.528 274.758 12.288C274.758 12.048 274.842 11.838 275.01 11.658C275.19 11.478 275.406 11.388 275.658 11.388C275.898 11.388 276.102 11.478 276.27 11.658C276.45 11.838 276.54 12.048 276.54 12.288C276.54 12.528 276.45 12.738 276.27 12.918C276.102 13.086 275.898 13.17 275.658 13.17ZM281.969 21.09L282.131 19.614C282.815 19.614 283.295 19.548 283.571 19.416C283.847 19.284 284.003 19.05 284.039 18.714C284.087 18.378 284.099 17.91 284.075 17.31L283.733 8.148H285.191L285.551 17.148C285.575 17.784 285.551 18.348 285.479 18.84C285.419 19.332 285.263 19.746 285.011 20.082C284.771 20.418 284.405 20.67 283.913 20.838C283.433 21.006 282.785 21.09 281.969 21.09ZM288.301 21L287.941 8.148H289.399L289.759 21H288.301Z" fill="#B8B8B8"/>
<rect x="449.008" y="33" width="22" height="22" rx="11" fill="#D7D7D7"/>
<path d="M440.342 19.614C440.942 19.614 441.416 19.554 441.764 19.434C442.124 19.314 442.382 19.14 442.538 18.912C442.706 18.672 442.79 18.396 442.79 18.084C442.79 17.844 442.724 17.556 442.592 17.22C442.472 16.884 442.304 16.512 442.088 16.104C441.872 15.684 441.62 15.246 441.332 14.79C441.056 14.322 440.756 13.848 440.432 13.368L441.674 12.558C442.142 13.266 442.55 13.938 442.898 14.574C443.246 15.198 443.54 15.786 443.78 16.338C444.02 16.878 444.212 17.388 444.356 17.868C444.524 18.396 444.71 18.786 444.914 19.038C445.13 19.29 445.352 19.452 445.58 19.524C445.808 19.584 446.018 19.614 446.21 19.614C446.462 19.614 446.648 19.686 446.768 19.83C446.888 19.962 446.948 20.124 446.948 20.316C446.948 20.508 446.864 20.688 446.696 20.856C446.528 21.012 446.312 21.09 446.048 21.09C445.652 21.09 445.262 21.018 444.878 20.874C444.506 20.718 444.182 20.472 443.906 20.136C443.63 19.788 443.438 19.326 443.33 18.75L444.05 18.174C444.05 18.654 443.948 19.122 443.744 19.578C443.54 20.022 443.168 20.388 442.628 20.676C442.1 20.964 441.338 21.108 440.342 21.108C439.91 21.108 439.49 21.072 439.082 21C438.686 20.928 438.32 20.826 437.984 20.694C437.648 20.55 437.354 20.382 437.102 20.19L437.822 18.948C438.062 19.104 438.398 19.254 438.83 19.398C439.262 19.542 439.766 19.614 440.342 19.614ZM440.45 10.92C440.198 10.92 439.982 10.836 439.802 10.668C439.634 10.488 439.55 10.278 439.55 10.038C439.55 9.798 439.634 9.588 439.802 9.408C439.982 9.228 440.198 9.138 440.45 9.138C440.69 9.138 440.894 9.228 441.062 9.408C441.242 9.588 441.332 9.798 441.332 10.038C441.332 10.278 441.242 10.488 441.062 10.668C440.894 10.836 440.69 10.92 440.45 10.92ZM446.052 21.09L446.232 19.614C446.832 19.614 447.3 19.572 447.636 19.488C447.972 19.392 448.224 19.218 448.392 18.966C448.572 18.702 448.716 18.324 448.824 17.832C448.932 17.34 449.064 16.698 449.22 15.906L450.624 16.176C450.576 16.392 450.522 16.632 450.462 16.896C450.402 17.16 450.348 17.424 450.3 17.688C450.264 17.94 450.246 18.162 450.246 18.354C450.246 18.534 450.258 18.702 450.282 18.858C450.306 19.014 450.396 19.146 450.552 19.254C450.708 19.362 450.972 19.452 451.344 19.524C451.716 19.584 452.25 19.614 452.946 19.614C453.198 19.614 453.378 19.686 453.486 19.83C453.606 19.962 453.666 20.124 453.666 20.316C453.666 20.508 453.582 20.688 453.414 20.856C453.246 21.012 453.03 21.09 452.766 21.09C452.034 21.09 451.452 21.054 451.02 20.982C450.588 20.898 450.258 20.778 450.03 20.622C449.814 20.466 449.658 20.274 449.562 20.046C449.478 19.806 449.412 19.53 449.364 19.218L449.904 19.254C449.712 19.638 449.502 19.95 449.274 20.19C449.058 20.43 448.806 20.616 448.518 20.748C448.23 20.88 447.882 20.97 447.474 21.018C447.078 21.066 446.604 21.09 446.052 21.09ZM450.588 24.492C450.336 24.492 450.12 24.402 449.94 24.222C449.772 24.054 449.688 23.85 449.688 23.61C449.688 23.37 449.772 23.16 449.94 22.98C450.12 22.8 450.336 22.71 450.588 22.71C450.828 22.71 451.032 22.8 451.2 22.98C451.38 23.16 451.47 23.37 451.47 23.61C451.47 23.85 451.38 24.054 451.2 24.222C451.032 24.402 450.828 24.492 450.588 24.492ZM448.122 24.492C447.87 24.492 447.654 24.402 447.474 24.222C447.306 24.054 447.222 23.85 447.222 23.61C447.222 23.37 447.306 23.16 447.474 22.98C447.654 22.8 447.87 22.71 448.122 22.71C448.362 22.71 448.566 22.8 448.734 22.98C448.914 23.16 449.004 23.37 449.004 23.61C449.004 23.85 448.914 24.054 448.734 24.222C448.566 24.402 448.362 24.492 448.122 24.492ZM452.767 21.09L452.947 19.614C453.247 19.614 453.553 19.614 453.865 19.614C454.189 19.602 454.507 19.584 454.819 19.56C455.131 19.536 455.431 19.506 455.719 19.47C456.007 19.434 456.265 19.38 456.493 19.308C456.913 19.176 457.297 19.002 457.645 18.786C458.005 18.57 458.293 18.306 458.509 17.994C458.737 17.682 458.851 17.322 458.851 16.914C458.851 16.638 458.785 16.356 458.653 16.068C458.521 15.768 458.341 15.516 458.113 15.312C457.885 15.108 457.621 15.006 457.321 15.006C457.033 15.006 456.763 15.102 456.511 15.294C456.271 15.486 456.073 15.738 455.917 16.05C455.773 16.35 455.701 16.662 455.701 16.986C455.701 17.37 455.797 17.718 455.989 18.03C456.193 18.33 456.439 18.588 456.727 18.804C457.015 19.02 457.303 19.194 457.591 19.326L455.881 19.83C455.689 19.686 455.461 19.488 455.197 19.236C454.945 18.972 454.717 18.648 454.513 18.264C454.321 17.88 454.225 17.442 454.225 16.95C454.225 16.47 454.309 16.026 454.477 15.618C454.657 15.198 454.891 14.832 455.179 14.52C455.479 14.208 455.815 13.968 456.187 13.8C456.571 13.62 456.967 13.53 457.375 13.53C457.963 13.53 458.479 13.692 458.923 14.016C459.367 14.34 459.709 14.754 459.949 15.258C460.201 15.75 460.327 16.266 460.327 16.806C460.327 17.322 460.231 17.79 460.039 18.21C459.847 18.618 459.583 18.984 459.247 19.308C458.923 19.632 458.539 19.908 458.095 20.136C457.663 20.364 457.201 20.55 456.709 20.694C456.433 20.778 456.133 20.844 455.809 20.892C455.497 20.94 455.167 20.976 454.819 21C454.471 21.036 454.123 21.06 453.775 21.072C453.427 21.084 453.091 21.09 452.767 21.09ZM461.677 21.09C461.077 21.09 460.453 21.054 459.805 20.982C459.169 20.898 458.563 20.796 457.987 20.676C457.423 20.544 456.955 20.4 456.583 20.244L457.825 19.344C458.185 19.392 458.611 19.44 459.103 19.488C459.595 19.524 460.087 19.554 460.579 19.578C461.071 19.602 461.497 19.614 461.857 19.614C462.109 19.614 462.289 19.686 462.397 19.83C462.517 19.962 462.577 20.124 462.577 20.316C462.577 20.508 462.493 20.688 462.325 20.856C462.157 21.012 461.941 21.09 461.677 21.09ZM457.213 11.676C456.961 11.676 456.745 11.592 456.565 11.424C456.397 11.244 456.313 11.034 456.313 10.794C456.313 10.554 456.397 10.344 456.565 10.164C456.745 9.984 456.961 9.894 457.213 9.894C457.453 9.894 457.657 9.984 457.825 10.164C458.005 10.344 458.095 10.554 458.095 10.794C458.095 11.034 458.005 11.244 457.825 11.424C457.657 11.592 457.453 11.676 457.213 11.676ZM461.679 21.09L461.859 19.614C462.363 19.614 462.759 19.572 463.047 19.488C463.335 19.392 463.551 19.218 463.695 18.966C463.851 18.702 463.983 18.324 464.091 17.832C464.199 17.34 464.331 16.698 464.487 15.906L465.891 16.176C465.843 16.392 465.789 16.632 465.729 16.896C465.669 17.16 465.615 17.424 465.567 17.688C465.531 17.94 465.513 18.162 465.513 18.354C465.513 18.594 465.567 18.81 465.675 19.002C465.783 19.194 466.017 19.344 466.377 19.452C466.737 19.56 467.289 19.614 468.033 19.614C468.285 19.614 468.465 19.686 468.573 19.83C468.693 19.962 468.753 20.124 468.753 20.316C468.753 20.508 468.669 20.688 468.501 20.856C468.333 21.012 468.117 21.09 467.853 21.09C467.073 21.09 466.461 21.024 466.017 20.892C465.573 20.748 465.249 20.538 465.045 20.262C464.841 19.974 464.703 19.626 464.631 19.218L465.171 19.254C464.979 19.638 464.769 19.95 464.541 20.19C464.325 20.43 464.085 20.616 463.821 20.748C463.557 20.88 463.251 20.97 462.903 21.018C462.555 21.066 462.147 21.09 461.679 21.09ZM464.487 14.052C464.235 14.052 464.019 13.968 463.839 13.8C463.671 13.62 463.587 13.41 463.587 13.17C463.587 12.93 463.671 12.72 463.839 12.54C464.019 12.36 464.235 12.27 464.487 12.27C464.727 12.27 464.931 12.36 465.099 12.54C465.279 12.72 465.369 12.93 465.369 13.17C465.369 13.41 465.279 13.62 465.099 13.8C464.931 13.968 464.727 14.052 464.487 14.052ZM467.849 21.09L468.029 19.614C468.629 19.614 469.097 19.572 469.433 19.488C469.769 19.392 470.021 19.218 470.189 18.966C470.369 18.702 470.513 18.324 470.621 17.832C470.729 17.34 470.861 16.698 471.017 15.906L472.421 16.176C472.373 16.392 472.319 16.632 472.259 16.896C472.199 17.16 472.145 17.424 472.097 17.688C472.061 17.94 472.043 18.162 472.043 18.354C472.043 18.534 472.055 18.702 472.079 18.858C472.103 19.014 472.193 19.146 472.349 19.254C472.505 19.362 472.769 19.452 473.141 19.524C473.513 19.584 474.047 19.614 474.743 19.614C474.995 19.614 475.175 19.686 475.283 19.83C475.403 19.962 475.463 20.124 475.463 20.316C475.463 20.508 475.379 20.688 475.211 20.856C475.043 21.012 474.827 21.09 474.563 21.09C473.831 21.09 473.249 21.054 472.817 20.982C472.385 20.898 472.055 20.778 471.827 20.622C471.611 20.466 471.455 20.274 471.359 20.046C471.275 19.806 471.209 19.53 471.161 19.218L471.701 19.254C471.509 19.638 471.299 19.95 471.071 20.19C470.855 20.43 470.603 20.616 470.315 20.748C470.027 20.88 469.679 20.97 469.271 21.018C468.875 21.066 468.401 21.09 467.849 21.09ZM472.655 14.052C472.403 14.052 472.187 13.968 472.007 13.8C471.839 13.62 471.755 13.41 471.755 13.17C471.755 12.93 471.839 12.72 472.007 12.54C472.187 12.36 472.403 12.27 472.655 12.27C472.895 12.27 473.099 12.36 473.267 12.54C473.447 12.72 473.537 12.93 473.537 13.17C473.537 13.41 473.447 13.62 473.267 13.8C473.099 13.968 472.895 14.052 472.655 14.052ZM470.189 14.052C469.937 14.052 469.721 13.968 469.541 13.8C469.373 13.62 469.289 13.41 469.289 13.17C469.289 12.93 469.373 12.72 469.541 12.54C469.721 12.36 469.937 12.27 470.189 12.27C470.429 12.27 470.633 12.36 470.801 12.54C470.981 12.72 471.071 12.93 471.071 13.17C471.071 13.41 470.981 13.62 470.801 13.8C470.633 13.968 470.429 14.052 470.189 14.052ZM474.563 21.09L474.725 19.614C475.409 19.614 475.889 19.548 476.165 19.416C476.441 19.284 476.597 19.05 476.633 18.714C476.681 18.378 476.693 17.91 476.669 17.31L476.327 8.148H477.785L478.145 17.148C478.169 17.784 478.145 18.348 478.073 18.84C478.013 19.332 477.857 19.746 477.605 20.082C477.365 20.418 476.999 20.67 476.507 20.838C476.027 21.006 475.379 21.09 474.563 21.09ZM480.895 21L480.535 8.148H481.993L482.353 21H480.895Z" fill="#B8B8B8"/>
<rect x="671.963" y="33" width="22" height="22" rx="11" fill="#4DAC7F"/>
<path d="M636.809 21.378L637.277 18.858C638.141 18.858 638.969 18.816 639.761 18.732C640.565 18.648 641.327 18.48 642.047 18.228C642.779 17.976 643.463 17.604 644.099 17.112C644.735 16.62 645.311 15.96 645.827 15.132L647.843 16.05C647.771 16.278 647.711 16.5 647.663 16.716C647.615 16.92 647.591 17.088 647.591 17.22C647.591 17.496 647.657 17.736 647.789 17.94C647.933 18.144 648.173 18.3 648.509 18.408C648.845 18.516 649.307 18.57 649.895 18.57C650.351 18.57 650.675 18.69 650.867 18.93C651.059 19.158 651.155 19.446 651.155 19.794C651.155 20.166 651.029 20.478 650.777 20.73C650.537 20.97 650.183 21.09 649.715 21.09C648.887 21.09 648.167 20.976 647.555 20.748C646.955 20.52 646.481 20.202 646.133 19.794C645.797 19.374 645.599 18.894 645.539 18.354L646.259 18.426C645.827 18.942 645.287 19.386 644.639 19.758C644.003 20.13 643.277 20.436 642.461 20.676C641.657 20.916 640.775 21.09 639.815 21.198C638.867 21.318 637.865 21.378 636.809 21.378ZM636.791 21.378C635.495 21.378 634.397 21.276 633.497 21.072C632.609 20.88 631.883 20.604 631.319 20.244C630.767 19.872 630.365 19.44 630.113 18.948C629.861 18.456 629.735 17.916 629.735 17.328C629.735 16.944 629.765 16.56 629.825 16.176C629.897 15.78 629.981 15.396 630.077 15.024C630.185 14.652 630.281 14.316 630.365 14.016L632.615 14.538C632.567 14.754 632.513 14.988 632.453 15.24C632.393 15.492 632.345 15.738 632.309 15.978C632.273 16.206 632.255 16.416 632.255 16.608C632.255 17.052 632.411 17.448 632.723 17.796C633.047 18.132 633.575 18.396 634.307 18.588C635.039 18.768 636.023 18.858 637.259 18.858L637.619 20.802L636.791 21.378ZM638.087 25.59C637.739 25.59 637.439 25.47 637.187 25.23C636.947 24.99 636.827 24.696 636.827 24.348C636.827 24 636.947 23.694 637.187 23.43C637.439 23.178 637.739 23.052 638.087 23.052C638.435 23.052 638.729 23.178 638.969 23.43C639.221 23.694 639.347 24 639.347 24.348C639.347 24.696 639.221 24.99 638.969 25.23C638.729 25.47 638.435 25.59 638.087 25.59ZM649.708 21.09L649.888 18.57C650.452 18.57 650.848 18.516 651.076 18.408C651.316 18.288 651.46 18.072 651.508 17.76C651.556 17.436 651.568 16.968 651.544 16.356L651.256 7.824H653.812L654.118 16.338C654.142 16.938 654.214 17.4 654.334 17.724C654.454 18.048 654.652 18.27 654.928 18.39C655.216 18.51 655.6 18.57 656.08 18.57C656.536 18.57 656.86 18.69 657.052 18.93C657.244 19.158 657.34 19.446 657.34 19.794C657.34 20.166 657.214 20.478 656.962 20.73C656.71 20.97 656.356 21.09 655.9 21.09C655.372 21.09 654.88 21.03 654.424 20.91C653.968 20.79 653.59 20.562 653.29 20.226C652.99 19.89 652.792 19.404 652.696 18.768L653.488 18.786C653.284 19.41 653.02 19.89 652.696 20.226C652.372 20.55 651.964 20.778 651.472 20.91C650.992 21.03 650.404 21.09 649.708 21.09ZM669.594 21.09C668.982 21.09 668.394 21.036 667.83 20.928C667.266 20.808 666.756 20.652 666.3 20.46C665.856 20.268 665.49 20.052 665.202 19.812L666.822 18.066C667.254 18.246 667.698 18.378 668.154 18.462C668.61 18.534 669.15 18.57 669.774 18.57C670.23 18.57 670.554 18.69 670.746 18.93C670.95 19.158 671.052 19.446 671.052 19.794C671.052 20.166 670.926 20.478 670.674 20.73C670.422 20.97 670.062 21.09 669.594 21.09ZM655.896 21.09L656.076 18.57H660.108C661.236 18.57 662.172 18.528 662.916 18.444C663.672 18.36 664.272 18.24 664.716 18.084C665.16 17.916 665.472 17.724 665.652 17.508C665.844 17.292 665.94 17.058 665.94 16.806C665.94 16.578 665.886 16.362 665.778 16.158C665.67 15.942 665.508 15.768 665.292 15.636C665.076 15.504 664.794 15.438 664.446 15.438C664.002 15.438 663.558 15.546 663.114 15.762C662.67 15.966 662.238 16.248 661.818 16.608C661.398 16.956 660.996 17.346 660.612 17.778C660.24 18.21 659.898 18.648 659.586 19.092L656.868 18.714C657.372 17.934 657.918 17.196 658.506 16.5C659.106 15.792 659.736 15.174 660.396 14.646C661.068 14.106 661.758 13.686 662.466 13.386C663.186 13.074 663.918 12.918 664.662 12.918C665.454 12.918 666.132 13.08 666.696 13.404C667.26 13.728 667.692 14.172 667.992 14.736C668.304 15.3 668.46 15.954 668.46 16.698C668.46 17.478 668.238 18.18 667.794 18.804C667.362 19.428 666.624 19.944 665.58 20.352C665.136 20.52 664.656 20.658 664.14 20.766C663.624 20.874 663.018 20.952 662.322 21C661.626 21.06 660.792 21.09 659.82 21.09H655.896ZM657.768 19.254L657.39 7.824H659.91L660.234 16.464L657.768 19.254ZM669.606 21.09L669.786 18.57C670.338 18.57 670.734 18.516 670.974 18.408C671.214 18.288 671.358 18.072 671.406 17.76C671.454 17.436 671.466 16.968 671.442 16.356L671.118 7.824H673.656L674.016 16.536C674.04 17.232 674.01 17.862 673.926 18.426C673.854 18.978 673.668 19.452 673.368 19.848C673.08 20.244 672.63 20.55 672.018 20.766C671.418 20.982 670.614 21.09 669.606 21.09ZM676.39 21L676.012 7.824H678.532L678.91 21H676.39ZM685.597 28.074C685.381 27.234 685.195 26.448 685.039 25.716C684.895 24.996 684.787 24.342 684.715 23.754C684.643 23.178 684.607 22.686 684.607 22.278C684.607 21.438 684.745 20.736 685.021 20.172C685.309 19.608 685.687 19.158 686.155 18.822C686.635 18.474 687.157 18.228 687.721 18.084C688.285 17.928 688.849 17.85 689.413 17.85C689.989 17.85 690.517 17.898 690.997 17.994C691.021 17.622 690.991 17.286 690.907 16.986C690.835 16.686 690.721 16.428 690.565 16.212C690.421 15.996 690.241 15.828 690.025 15.708C689.821 15.588 689.599 15.528 689.359 15.528C689.131 15.528 688.903 15.588 688.675 15.708C688.447 15.816 688.231 15.978 688.027 16.194C687.835 16.41 687.649 16.686 687.469 17.022L685.507 15.942C685.831 15.21 686.215 14.634 686.659 14.214C687.103 13.782 687.565 13.476 688.045 13.296C688.537 13.104 689.017 13.008 689.485 13.008C690.205 13.008 690.823 13.164 691.339 13.476C691.867 13.776 692.293 14.172 692.617 14.664C692.941 15.144 693.181 15.66 693.337 16.212C693.493 16.764 693.571 17.292 693.571 17.796C693.571 18.18 693.529 18.564 693.445 18.948C693.373 19.32 693.283 19.656 693.175 19.956C693.079 20.256 692.983 20.49 692.887 20.658C692.227 20.478 691.603 20.346 691.015 20.262C690.427 20.178 689.893 20.154 689.413 20.19C688.945 20.214 688.537 20.31 688.189 20.478C687.853 20.634 687.589 20.868 687.397 21.18C687.217 21.492 687.127 21.888 687.127 22.368C687.127 22.812 687.163 23.316 687.235 23.88C687.307 24.456 687.409 25.05 687.541 25.662C687.673 26.274 687.823 26.88 687.991 27.48L685.597 28.074ZM706.438 21.09C705.598 21.09 704.902 21.03 704.35 20.91C703.81 20.778 703.384 20.58 703.072 20.316C702.76 20.04 702.538 19.698 702.406 19.29C702.274 18.882 702.196 18.396 702.172 17.832L701.794 7.824H704.314L704.692 16.626C704.716 17.178 704.776 17.592 704.872 17.868C704.968 18.144 705.148 18.33 705.412 18.426C705.688 18.522 706.09 18.57 706.618 18.57C707.074 18.57 707.398 18.69 707.59 18.93C707.794 19.158 707.896 19.446 707.896 19.794C707.896 20.166 707.77 20.478 707.518 20.73C707.266 20.97 706.906 21.09 706.438 21.09ZM696.754 21.09C696.43 21.09 696.1 21.06 695.764 21C695.44 20.952 695.212 20.916 695.08 20.892L695.422 18.282C696.25 18.39 697.054 18.414 697.834 18.354C698.626 18.282 699.334 18.09 699.958 17.778C700.594 17.454 701.098 16.986 701.47 16.374C701.842 15.75 702.028 14.946 702.028 13.962L703 16.788C702.856 17.604 702.61 18.282 702.262 18.822C701.926 19.35 701.524 19.77 701.056 20.082C700.6 20.382 700.114 20.604 699.598 20.748C699.082 20.892 698.578 20.982 698.086 21.018C697.594 21.066 697.15 21.09 696.754 21.09ZM700.66 18.624C700.48 18.276 700.222 17.868 699.886 17.4C699.55 16.92 699.136 16.392 698.644 15.816C698.164 15.228 697.612 14.61 696.988 13.962C696.364 13.302 695.674 12.624 694.918 11.928L696.484 10.218C697.6 11.274 698.506 12.162 699.202 12.882C699.898 13.602 700.45 14.208 700.858 14.7C701.278 15.18 701.596 15.594 701.812 15.942C702.04 16.29 702.232 16.626 702.388 16.95L700.66 18.624ZM706.45 21.09L706.63 18.57C707.062 18.57 707.434 18.528 707.746 18.444C708.058 18.36 708.322 18.192 708.538 17.94C708.754 17.676 708.934 17.292 709.078 16.788C709.234 16.284 709.372 15.612 709.492 14.772L711.85 15.168C711.826 15.348 711.79 15.558 711.742 15.798C711.706 16.038 711.67 16.284 711.634 16.536C711.61 16.776 711.598 17.004 711.598 17.22C711.598 17.436 711.64 17.628 711.724 17.796C711.808 17.964 711.94 18.108 712.12 18.228C712.312 18.336 712.558 18.42 712.858 18.48C713.17 18.54 713.548 18.57 713.992 18.57C714.448 18.57 714.772 18.69 714.964 18.93C715.156 19.158 715.252 19.446 715.252 19.794C715.252 20.166 715.126 20.478 714.874 20.73C714.634 20.97 714.28 21.09 713.812 21.09C713.272 21.09 712.78 21.048 712.336 20.964C711.904 20.88 711.526 20.742 711.202 20.55C710.89 20.346 710.632 20.082 710.428 19.758C710.236 19.422 710.116 19.014 710.068 18.534H710.932C710.716 19.11 710.44 19.572 710.104 19.92C709.78 20.256 709.414 20.508 709.006 20.676C708.598 20.844 708.172 20.952 707.728 21C707.296 21.06 706.87 21.09 706.45 21.09ZM712.228 13.152C711.88 13.152 711.58 13.032 711.328 12.792C711.088 12.54 710.968 12.246 710.968 11.91C710.968 11.562 711.088 11.262 711.328 11.01C711.58 10.758 711.88 10.632 712.228 10.632C712.564 10.632 712.852 10.758 713.092 11.01C713.332 11.262 713.452 11.562 713.452 11.91C713.452 12.246 713.332 12.54 713.092 12.792C712.852 13.032 712.564 13.152 712.228 13.152ZM709.114 13.134C708.766 13.134 708.466 13.014 708.214 12.774C707.974 12.522 707.854 12.228 707.854 11.892C707.854 11.544 707.974 11.244 708.214 10.992C708.466 10.74 708.766 10.614 709.114 10.614C709.45 10.614 709.738 10.74 709.978 10.992C710.218 11.244 710.338 11.544 710.338 11.892C710.338 12.228 710.218 12.522 709.978 12.774C709.738 13.014 709.45 13.134 709.114 13.134ZM713.815 21.09L713.995 18.57C714.391 18.57 714.715 18.54 714.967 18.48C715.219 18.408 715.423 18.258 715.579 18.03C715.747 17.79 715.891 17.436 716.011 16.968C716.143 16.488 716.287 15.84 716.443 15.024L718.783 15.456C718.747 15.636 718.705 15.846 718.657 16.086C718.609 16.326 718.567 16.572 718.531 16.824C718.495 17.064 718.477 17.28 718.477 17.472C718.477 17.808 718.585 18.078 718.801 18.282C719.017 18.474 719.425 18.57 720.025 18.57C720.325 18.57 720.583 18.54 720.799 18.48C721.027 18.408 721.219 18.258 721.375 18.03C721.543 17.79 721.687 17.424 721.807 16.932C721.939 16.428 722.065 15.75 722.185 14.898L724.561 15.276C724.513 15.552 724.465 15.846 724.417 16.158C724.369 16.47 724.327 16.758 724.291 17.022C724.255 17.286 724.237 17.502 724.237 17.67C724.237 17.826 724.279 17.976 724.363 18.12C724.459 18.252 724.627 18.36 724.867 18.444C725.119 18.528 725.473 18.57 725.929 18.57C726.253 18.57 726.529 18.528 726.757 18.444C726.997 18.36 727.177 18.222 727.297 18.03C727.429 17.838 727.495 17.586 727.495 17.274C727.495 16.83 727.393 16.248 727.189 15.528C726.985 14.808 726.745 14.052 726.469 13.26L729.007 12.504C729.199 13.02 729.367 13.572 729.511 14.16C729.667 14.736 729.787 15.3 729.871 15.852C729.967 16.392 730.015 16.866 730.015 17.274C730.015 17.886 729.919 18.432 729.727 18.912C729.535 19.38 729.265 19.776 728.917 20.1C728.569 20.424 728.155 20.67 727.675 20.838C727.195 21.006 726.667 21.09 726.091 21.09C725.395 21.09 724.825 21.024 724.381 20.892C723.937 20.748 723.595 20.514 723.355 20.19C723.127 19.854 722.977 19.398 722.905 18.822H723.517C723.265 19.53 722.983 20.046 722.671 20.37C722.359 20.682 721.987 20.88 721.555 20.964C721.135 21.048 720.607 21.09 719.971 21.09C719.575 21.09 719.167 21.048 718.747 20.964C718.339 20.868 717.973 20.652 717.649 20.316C717.325 19.98 717.085 19.458 716.929 18.75L717.901 18.714C717.649 19.422 717.319 19.944 716.911 20.28C716.515 20.616 716.059 20.838 715.543 20.946C715.027 21.042 714.451 21.09 713.815 21.09ZM732.359 21L731.981 7.824H734.501L734.879 21H732.359ZM732.251 26.562L731.945 25.302C732.365 25.23 732.677 25.17 732.881 25.122C733.097 25.074 733.325 25.02 733.565 24.96L733.385 25.41C733.073 25.302 732.773 25.086 732.485 24.762C732.209 24.45 732.071 24.09 732.071 23.682C732.071 23.25 732.167 22.902 732.359 22.638C732.551 22.374 732.797 22.182 733.097 22.062C733.397 21.942 733.709 21.882 734.033 21.882C734.213 21.882 734.381 21.894 734.537 21.918C734.705 21.942 734.855 21.978 734.987 22.026L734.843 23.322C734.723 23.298 734.603 23.274 734.483 23.25C734.363 23.226 734.231 23.214 734.087 23.214C733.931 23.214 733.787 23.262 733.655 23.358C733.535 23.466 733.475 23.592 733.475 23.736C733.475 23.94 733.547 24.12 733.691 24.276C733.835 24.432 734.003 24.552 734.195 24.636C734.399 24.732 734.567 24.786 734.699 24.798L733.709 24.906C734.033 24.822 734.339 24.732 734.627 24.636C734.915 24.552 735.185 24.462 735.437 24.366L735.797 25.572C735.497 25.68 735.143 25.794 734.735 25.914C734.339 26.046 733.925 26.166 733.493 26.274C733.073 26.382 732.659 26.478 732.251 26.562Z" fill="#4DAC7F"/>
</svg>
