<svg width="18" height="17" viewBox="0 0 18 17" fill="none" xmlns="http://www.w3.org/2000/svg">
<path d="M14.0189 16.0625H3.98109C2.90184 16.0625 1.92684 15.5105 1.37184 14.5858C0.819089 13.6633 0.79198 12.5466 1.29823 11.5986L6.2527 2.33234C6.80245 1.30259 7.83005 0.688232 8.99855 0.688232C10.167 0.688232 11.1945 1.30259 11.7442 2.33234L16.6987 11.5986C17.2064 12.5466 17.1795 13.6633 16.626 14.5858C16.0747 15.5105 15.0989 16.0625 14.0189 16.0625ZM9.00001 1.8125C8.25301 1.8125 7.59743 2.20469 7.24568 2.86169L2.29121 12.1279C1.97246 12.7242 1.99047 13.4263 2.33772 14.0068C2.68722 14.5895 3.30157 14.9368 3.98182 14.9368H14.0198C14.7001 14.9368 15.315 14.5888 15.6638 14.0068C16.011 13.427 16.0275 12.7249 15.7095 12.1279L10.7551 2.86169C10.4026 2.20469 9.74701 1.8125 9.00001 1.8125ZM9.56251 9.5V6.5C9.56251 6.1895 9.31051 5.9375 9.00001 5.9375C8.68951 5.9375 8.43751 6.1895 8.43751 6.5V9.5C8.43751 9.8105 8.68951 10.0625 9.00001 10.0625C9.31051 10.0625 9.56251 9.8105 9.56251 9.5ZM9.76503 11.75C9.76503 11.336 9.42978 11 9.01503 11H9.00752C8.59352 11 8.26118 11.336 8.26118 11.75C8.26118 12.164 8.60103 12.5 9.01503 12.5C9.42903 12.5 9.76503 12.164 9.76503 11.75Z" fill="#F31629"/>
</svg>
