<svg width="32" height="27" viewBox="0 0 32 27" fill="none" xmlns="http://www.w3.org/2000/svg">
<path d="M28.0285 10.1005C28.0701 9.93407 28.1014 9.76243 28.1222 9.58559C28.143 9.40874 28.1534 9.2267 28.1534 9.03946C28.1534 7.66632 27.6644 6.49084 26.6866 5.513C25.7088 4.53517 24.5333 4.04625 23.1602 4.04625C22.9313 4.04625 22.7128 4.06185 22.5048 4.09306C22.2967 4.12427 22.0887 4.16068 21.8806 4.20229C21.4854 2.99559 20.7676 2.00216 19.7273 1.22197C18.6871 0.441778 17.5012 0.0516834 16.1697 0.0516834C14.7965 0.0516834 13.5846 0.457382 12.534 1.26878C11.4833 2.08017 10.7812 3.11002 10.4275 4.35832C10.0738 4.2543 9.70971 4.17628 9.33522 4.12427C8.96072 4.07225 8.57583 4.04625 8.18054 4.04625C7.07787 4.04625 6.03762 4.2543 5.05978 4.6704C4.10275 5.0865 3.26015 5.65864 2.53197 6.38681C1.8038 7.11499 1.23166 7.95759 0.815557 8.91463C0.399457 9.89246 0.191406 10.9327 0.191406 12.0354C0.191406 13.138 0.399457 14.1783 0.815557 15.1561C1.23166 16.1132 1.8038 16.9558 2.53197 17.6839C3.26015 18.4121 4.10275 18.9843 5.05978 19.4004C6.03762 19.8165 7.07787 20.0245 8.18054 20.0245H12.1751V26.0164H20.1642V20.0245H27.1547C28.5279 20.0245 29.7033 19.5356 30.6812 18.5578C31.659 17.5799 32.1479 16.4044 32.1479 15.0313C32.1479 13.8038 31.7526 12.7323 30.962 11.8169C30.1715 10.9015 29.1936 10.3294 28.0285 10.1005ZM18.167 18.0272V24.0191H14.1724V18.0272H9.17918L16.1697 11.0367L23.1602 18.0272H18.167Z" fill="#AAAAAA"/>
</svg>
