<svg width="25" height="25" viewBox="0 0 25 25" fill="none" xmlns="http://www.w3.org/2000/svg">
<path d="M12.8545 12.8198C9.68449 12.8198 7.10449 10.2398 7.10449 7.06982C7.10449 3.89982 9.68449 1.31982 12.8545 1.31982C16.0245 1.31982 18.6045 3.89982 18.6045 7.06982C18.6045 10.2398 16.0245 12.8198 12.8545 12.8198ZM12.8545 2.81982C10.5145 2.81982 8.60449 4.72982 8.60449 7.06982C8.60449 9.40982 10.5145 11.3198 12.8545 11.3198C15.1945 11.3198 17.1045 9.40982 17.1045 7.06982C17.1045 4.72982 15.1945 2.81982 12.8545 2.81982Z" fill="#394149"/>
<path d="M21.4407 22.8198C21.0307 22.8198 20.6907 22.4798 20.6907 22.0698C20.6907 18.6198 17.1707 15.8198 12.8507 15.8198C8.53074 15.8198 5.01074 18.6198 5.01074 22.0698C5.01074 22.4798 4.67074 22.8198 4.26074 22.8198C3.85074 22.8198 3.51074 22.4798 3.51074 22.0698C3.51074 17.7998 7.70074 14.3198 12.8507 14.3198C18.0007 14.3198 22.1907 17.7998 22.1907 22.0698C22.1907 22.4798 21.8507 22.8198 21.4407 22.8198Z" fill="#394149"/>
</svg>
