<svg width="28" height="28" viewBox="0 0 28 28" fill="none" xmlns="http://www.w3.org/2000/svg">
<g clip-path="url(#clip0_52_1638)">
<path d="M11.3272 0.581918L11.7784 1.85078C11.7977 1.90508 11.836 1.94818 11.8842 1.96989L13.0116 2.47777C13.1708 2.54952 13.1708 2.80327 13.0116 2.87502L11.8842 3.3829C11.8359 3.40467 11.7977 3.44771 11.7784 3.50201L11.3272 4.77087C11.2634 4.95014 11.038 4.95014 10.9742 4.77087L10.523 3.50201C10.5037 3.44771 10.4654 3.40461 10.4172 3.3829L9.28985 2.87502C9.1306 2.80327 9.1306 2.54952 9.28985 2.47777L10.4172 1.96989C10.4655 1.94812 10.5037 1.90508 10.523 1.85078L10.9742 0.581918C11.038 0.402707 11.2634 0.402707 11.3272 0.581918ZM23.989 13.7389L24.3238 14.6801C24.3381 14.7204 24.3665 14.7523 24.4023 14.7685L25.2385 15.1452C25.3567 15.1984 25.3567 15.3866 25.2385 15.4399L24.4023 15.8167C24.3665 15.8328 24.3382 15.8647 24.3238 15.905L23.989 16.8463C23.9417 16.9792 23.7745 16.9792 23.7272 16.8463L23.3924 15.905C23.3781 15.8647 23.3497 15.8328 23.314 15.8167L22.4777 15.4399C22.3596 15.3867 22.3596 15.1985 22.4777 15.1452L23.314 14.7685C23.3498 14.7523 23.3781 14.7204 23.3924 14.6801L23.7272 13.7389C23.7745 13.6059 23.9417 13.6059 23.989 13.7389Z" fill="#F0F0F0"/>
<path d="M26.8231 1.80409C26.8538 1.37186 26.5284 0.996538 26.0961 0.965783C25.6639 0.935028 25.2886 1.26049 25.2578 1.69272C25.2271 2.12495 25.5525 2.50027 25.9848 2.53103C26.417 2.56178 26.7923 2.23632 26.8231 1.80409Z" fill="#F0F0F0"/>
<path d="M18.8669 16.6588C18.1928 15.2329 17.0117 13.6379 15.5413 12.1673C15.0975 11.723 14.6343 11.2986 14.1529 10.8954L13.7989 9.6214L14.6936 9.91316C14.6985 9.91474 14.7034 9.91628 14.7083 9.9177C15.5507 10.1666 16.455 9.94056 17.0679 9.32756L17.9914 8.40411C18.6043 7.79117 18.8304 6.88703 18.5815 6.04451L18.0736 4.32503C17.8112 3.43723 16.8757 2.9282 15.9877 3.19059C15.1012 3.45249 14.5926 4.38578 14.8521 5.27243L15.2108 6.55185L14.3066 6.29662C13.4649 6.0491 12.5625 6.27562 11.9503 6.88774L11.0269 7.81113C10.8004 8.03769 10.6227 8.30822 10.5047 8.60607C8.88866 7.97323 8.02121 8.27029 7.56451 8.68521C7.25957 8.86751 7.0174 9.13839 6.87026 9.46177L0.185474 24.8775C-0.170049 25.6515 -0.00472876 26.5749 0.597873 27.1774C0.988834 27.5684 1.51476 27.7754 2.04747 27.7753C2.34078 27.7755 2.63067 27.7123 2.89732 27.5901L18.3456 20.9391C18.3503 20.9372 18.3549 20.935 18.3595 20.933C18.6148 20.8144 18.8378 20.6361 19.0095 20.413C19.1812 20.19 19.2966 19.9288 19.3458 19.6517C19.3503 19.6268 19.353 19.6019 19.3563 19.577C19.5615 18.9837 19.5327 18.0669 18.8669 16.6588ZM17.2567 16.0195C17.4072 16.0195 17.5576 16.0768 17.6722 16.1913C17.9013 16.4204 17.9013 16.7932 17.6722 17.0223C17.4431 17.2513 17.0703 17.2513 16.8412 17.0223C16.6121 16.7932 16.6121 16.4204 16.8412 16.1913C16.8957 16.1367 16.9605 16.0934 17.0318 16.0639C17.1031 16.0345 17.1795 16.0193 17.2567 16.0195ZM16.299 4.24425C16.6056 4.15364 16.9291 4.32951 17.0199 4.63636L17.5279 6.35579C17.6626 6.81199 17.5425 7.29915 17.2145 7.62722L16.7959 8.04574L16.5332 7.19995L16.5329 7.19831L15.9091 4.97264L15.9069 4.96525C15.8163 4.65835 15.9922 4.33492 16.299 4.24425ZM13.9986 7.35132L14.0051 7.35318L15.5674 7.79413L15.8861 8.82039C15.62 8.93075 15.3171 8.95033 15.0263 8.866L13.4329 8.34642L13.139 7.39157C13.2932 7.32895 13.458 7.29682 13.6244 7.29696C13.7489 7.29696 13.8749 7.31474 13.9986 7.35132ZM11.8037 8.58814L12.2274 8.16447L12.4963 9.03827L12.4976 9.04177L13.1088 11.2416L13.1113 11.2502C13.1331 11.3232 13.1402 11.3999 13.1321 11.4757C13.1241 11.5515 13.1011 11.6249 13.0645 11.6918C13.0283 11.7588 12.9791 11.818 12.9199 11.866C12.8606 11.9139 12.7924 11.9496 12.7192 11.971C12.619 12.0006 12.5126 12.0026 12.4113 11.9768C12.31 11.9509 12.2175 11.8983 12.1437 11.8243C12.0753 11.7561 12.0253 11.6717 11.9983 11.5789L11.4903 9.85951C11.3555 9.40342 11.4756 8.91621 11.8037 8.58814ZM8.28644 9.51427C8.39122 9.40949 8.58033 9.34025 8.86061 9.34025C9.21066 9.34025 9.70351 9.44892 10.3507 9.73094C10.3657 9.87991 10.3944 10.0272 10.4366 10.1708L10.9446 11.8902C11.0239 12.1586 11.169 12.403 11.3666 12.6012C11.5225 12.7573 11.7077 12.8811 11.9115 12.9656C12.1153 13.0501 12.3338 13.0936 12.5544 13.0936C12.7156 13.0936 12.8759 13.0704 13.0304 13.0247C13.4535 12.8997 13.8035 12.6197 14.0188 12.2355C14.2732 12.4655 14.5218 12.7018 14.7643 12.9442C15.5745 13.7542 16.2874 14.5992 16.865 15.4246C16.6803 15.4849 16.5125 15.5879 16.3751 15.7251C15.8889 16.2112 15.8889 17.0022 16.3751 17.4884C16.6181 17.7314 16.9374 17.8529 17.2566 17.8529C17.5513 17.8531 17.8365 17.7485 18.0613 17.5579C18.4782 18.5996 18.416 19.2002 18.1942 19.4221C17.9436 19.6728 17.2093 19.7202 15.9005 19.1014C14.5858 18.4798 13.0999 17.3757 11.7164 15.9921C10.3328 14.6086 9.2286 13.1227 8.60708 11.808C7.98829 10.4992 8.03576 9.76496 8.28644 9.51427ZM2.45632 26.5838C2.45167 26.5858 2.44702 26.5879 2.44243 26.59C2.08335 26.7565 1.65449 26.6802 1.37482 26.4006C1.09509 26.1209 1.01897 25.6918 1.18538 25.333C1.18729 25.3288 1.18921 25.3246 1.19101 25.3204L7.24415 11.3611C7.33565 11.6408 7.45672 11.9453 7.61384 12.2777C8.28797 13.7035 9.46906 15.2986 10.9395 16.7691C12.41 18.2395 14.0051 19.4206 15.4309 20.0948C15.8386 20.2875 16.2051 20.4269 16.5346 20.5226L2.45632 26.5838Z" fill="#F0F0F0"/>
<path d="M26.7966 5.09026L25.0772 4.58227C24.2346 4.33333 23.3305 4.55952 22.7176 5.17246L21.7942 6.09586C21.1812 6.70885 20.9551 7.613 21.204 8.45551C21.2054 8.46044 21.2069 8.46536 21.2085 8.47022L21.5002 9.36491L20.1781 8.99758C19.2915 8.73847 18.3587 9.24706 18.0969 10.1334C18.0112 10.4231 18.0054 10.7307 18.0799 11.0235C18.1544 11.3163 18.3066 11.5836 18.5204 11.7971C18.7186 11.9948 18.963 12.1399 19.2314 12.2192L20.9508 12.7272C21.1734 12.7931 21.4043 12.8266 21.6365 12.8267C22.2581 12.8267 22.8622 12.5853 23.3104 12.1371L24.2339 11.2136C24.8459 10.6015 25.0723 9.69894 24.825 8.85741L24.5698 7.95321L25.8491 8.3118C26.2781 8.43747 26.7302 8.38907 27.123 8.17541C27.5169 7.96108 27.8039 7.60622 27.9309 7.17621C28.1934 6.28836 27.6845 5.35265 26.7966 5.09026ZM23.3276 7.59648L23.7685 9.15874L23.7704 9.16519C23.8561 9.45553 23.8383 9.75828 23.7297 10.0247L22.7752 9.73094L22.2556 8.13751C22.1713 7.84668 22.1909 7.54382 22.3013 7.27771L23.3276 7.59648ZM21.2621 11.6735L19.5427 11.1656C19.45 11.1386 19.3656 11.0886 19.2973 11.0202C19.2234 10.9463 19.1707 10.8539 19.1448 10.7526C19.119 10.6513 19.121 10.5449 19.1506 10.4447C19.2251 10.1924 19.4568 10.0288 19.7073 10.0288C19.7616 10.0288 19.8168 10.0364 19.8715 10.0526C19.8743 10.0535 19.8772 10.0542 19.8801 10.0551L22.0797 10.6662L22.0833 10.6676L22.9571 10.9365L22.5335 11.3602C22.2055 11.6883 21.7181 11.8081 21.2621 11.6735ZM26.8774 6.86476C26.856 6.93793 26.8203 7.00613 26.7724 7.0654C26.7244 7.12467 26.6652 7.17384 26.5981 7.21006C26.5313 7.24668 26.4578 7.26967 26.382 7.2777C26.3062 7.28572 26.2296 7.27863 26.1566 7.25682L26.1492 7.25469L23.9235 6.63087L23.922 6.63054L23.076 6.36776L23.4946 5.94924C23.8226 5.62117 24.3097 5.50108 24.766 5.63583L26.4854 6.14382C26.7922 6.2346 26.968 6.55797 26.8774 6.86476ZM20.8902 2.71737C21.2095 2.71737 21.5288 2.5958 21.7718 2.35272C22.2579 1.8666 22.2579 1.0756 21.7718 0.589482C21.2857 0.103256 20.4946 0.103365 20.0085 0.589482C19.5224 1.0756 19.5224 1.8666 20.0085 2.35272C20.2516 2.59586 20.571 2.71737 20.8902 2.71737ZM20.4747 1.05564C20.5292 1.00105 20.594 0.957775 20.6653 0.928288C20.7366 0.898801 20.8131 0.883686 20.8902 0.883811C21.0407 0.883811 21.1912 0.941123 21.3058 1.05564C21.5349 1.28478 21.5349 1.65753 21.3058 1.88667C21.0767 2.11576 20.704 2.11581 20.4748 1.88667C20.2456 1.65753 20.2456 1.28478 20.4747 1.05564ZM5.5419 19.9442C5.46944 19.9442 5.39577 19.9297 5.3249 19.8992C5.04627 19.7793 4.91759 19.4561 5.03762 19.1774L5.7333 17.5616C5.85323 17.283 6.17616 17.1541 6.45513 17.2743C6.73376 17.3942 6.86244 17.7174 6.7424 17.9961L6.04672 19.6119C6.00425 19.7106 5.9338 19.7946 5.84408 19.8537C5.75436 19.9127 5.6493 19.9442 5.5419 19.9442ZM7.01616 16.5202C6.9437 16.5202 6.87004 16.5058 6.79916 16.4753C6.52053 16.3553 6.39185 16.0321 6.51189 15.7535L6.72397 15.2609C6.8439 14.9824 7.16694 14.8535 7.44579 14.9737C7.72442 15.0936 7.8531 15.4168 7.73306 15.6955L7.52098 16.188C7.47852 16.2867 7.40807 16.3707 7.31835 16.4297C7.22863 16.4888 7.12357 16.5202 7.01616 16.5202Z" fill="#F0F0F0"/>
</g>
<defs>
<clipPath id="clip0_52_1638">
<rect width="28" height="28" fill="white"/>
</clipPath>
</defs>
</svg>
