<svg width="32" height="32" viewBox="0 0 32 32" fill="none" xmlns="http://www.w3.org/2000/svg">
<path d="M16.0002 30.6668C13.1722 30.6636 10.4609 29.5388 8.4612 27.5391C6.4615 25.5394 5.33667 22.8281 5.3335 20.0001C5.3335 10.7294 15.1388 1.87477 15.5562 1.50277C15.6782 1.39361 15.8361 1.33325 15.9998 1.33325C16.1635 1.33325 16.3215 1.39361 16.4435 1.50277C16.8615 1.87477 26.6668 10.7294 26.6668 20.0001C26.6637 22.8281 25.5388 25.5394 23.5391 27.5391C21.5394 29.5388 18.8282 30.6636 16.0002 30.6668ZM16.0002 2.91477C14.0888 4.75811 6.66683 12.4081 6.66683 20.0001C6.66683 22.4755 7.65016 24.8494 9.4005 26.5998C11.1508 28.3501 13.5248 29.3334 16.0002 29.3334C18.4755 29.3334 20.8495 28.3501 22.5998 26.5998C24.3502 24.8494 25.3335 22.4755 25.3335 20.0001C25.3335 12.4081 17.9115 4.75811 16.0002 2.91477Z" fill="#F0F0F0"/>
<path d="M12.332 27.0182C12.215 27.0183 12.0999 26.9875 11.9987 26.9288C10.7847 26.2242 9.77671 25.2136 9.0751 23.9979C8.3735 22.7822 8.00281 21.4038 8 20.0002C8 19.8234 8.07024 19.6538 8.19526 19.5288C8.32029 19.4037 8.48986 19.3335 8.66667 19.3335C8.84348 19.3335 9.01305 19.4037 9.13807 19.5288C9.2631 19.6538 9.33333 19.8234 9.33333 20.0002C9.33562 21.1701 9.64461 22.319 10.2295 23.3323C10.8144 24.3455 11.6547 25.1877 12.6667 25.7748C12.7935 25.8484 12.8926 25.9618 12.9485 26.0974C13.0044 26.2329 13.014 26.3832 12.9759 26.5248C12.9378 26.6664 12.854 26.7915 12.7376 26.8807C12.6212 26.9699 12.4787 27.0182 12.332 27.0182Z" fill="#F0F0F0"/>
</svg>
