<svg width="28" height="28" viewBox="0 0 28 28" fill="none" xmlns="http://www.w3.org/2000/svg">
<g clip-path="url(#clip0_52_1648)">
<path d="M26.6323 1.70639C22.9535 0.757292 19.6343 0.805417 16.4641 1.8611C14.4151 2.70067 12.2446 2.80665 10.2022 2.59971C9.2103 2.12667 7.76814 1.83671 6.10422 1.83671C2.96723 1.83671 0.601562 2.86041 0.601562 4.2177V24.5889C0.601562 25.9462 2.96723 26.9699 6.10416 26.9699C9.24109 26.9699 11.6067 25.9462 11.6067 24.5889V24.1739C13.4669 24.1256 15.0758 24.4056 16.4538 25.0259C16.466 25.0315 16.4787 25.0362 16.4915 25.0401C19.805 26.0639 23.2284 26.0482 26.6297 25.184C27.0823 25.069 27.3985 24.6591 27.3985 24.1873V2.70258C27.3984 2.23249 27.0834 1.82282 26.6323 1.70639ZM6.10416 2.49034C8.9617 2.49034 10.953 3.40078 10.953 4.21775C10.953 5.03484 8.96164 5.94528 6.10416 5.94528C3.24652 5.94528 1.25513 5.03484 1.25513 4.21775C1.25513 3.40072 3.24652 2.49034 6.10416 2.49034ZM6.10416 26.3163C3.24652 26.3163 1.25513 25.4059 1.25513 24.5889V5.37817C2.16721 6.11776 3.95418 6.59879 6.10416 6.59879C8.25409 6.59879 10.041 6.11776 10.953 5.37817V24.5889C10.953 25.4059 8.9617 26.3163 6.10416 26.3163ZM26.7449 24.1873C26.7449 24.3599 26.6313 24.5093 26.4688 24.5506C23.0241 25.4258 19.8296 25.3839 16.7034 24.4216C15.2438 23.7685 13.5521 23.4729 11.6066 23.5217V4.2177C11.6066 3.90057 11.4729 3.60274 11.235 3.33089C13.035 3.40712 14.9027 3.20658 16.691 2.4736C19.718 1.46653 22.916 1.42289 26.469 2.33929C26.6313 2.38118 26.7448 2.53053 26.7448 2.70258V24.1873H26.7449Z" fill="#F0F0F0" stroke="#F0F0F0" stroke-width="0.4"/>
<path d="M6.10422 5.28983C7.16592 5.28983 8.30867 4.95438 8.30867 4.21779C8.30867 3.48121 7.16592 3.14575 6.10422 3.14575C5.04241 3.14575 3.89966 3.48121 3.89966 4.21779C3.89966 4.95438 5.04241 5.28983 6.10422 5.28983ZM6.10422 3.79938C7.08291 3.79938 7.60873 4.09797 7.65406 4.21785C7.60889 4.33772 7.08318 4.63631 6.10422 4.63631C5.11208 4.63631 4.58555 4.32968 4.55274 4.2226C4.58555 4.10601 5.11235 3.79938 6.10422 3.79938Z" fill="#F0F0F0" stroke="#F0F0F0" stroke-width="0.4"/>
</g>
<defs>
<clipPath id="clip0_52_1648">
<rect width="28" height="28" fill="white"/>
</clipPath>
</defs>
</svg>
