<svg width="848" height="498" viewBox="0 0 848 498" fill="none" xmlns="http://www.w3.org/2000/svg">
<g filter="url(#filter0_d_136_6376)">
<path d="M659.982 513.699L174.719 348.85L-10.7364 894.769L474.527 1059.62L659.982 513.699Z" fill="#4E5EA5"/>
<path d="M311.394 444.072C312.851 439.656 310.654 434.653 306.393 432.678C304.138 431.637 301.843 431.46 299.375 432.163C298.149 430.458 296.521 429.25 294.532 428.575C294.457 428.549 294.39 428.527 294.314 428.501C289.564 427.003 284.198 429.679 282.587 434.36C280.998 438.974 279.428 443.595 277.878 448.222C276.771 451.511 278.597 455.12 281.939 456.255C285.282 457.391 288.919 455.637 290.045 452.355C291.193 449.006 292.335 445.645 293.464 442.29L294.603 438.938C295.352 436.732 296.689 435.158 298.7 434.152C299.407 435.522 299.664 437.003 299.481 438.568C299.414 439.136 299.272 439.743 299.066 440.349C298.272 442.688 297.48 445.017 296.686 447.356C295.978 449.439 295.267 451.531 294.56 453.614C293.54 456.616 294.607 459.629 297.264 461.292C298.902 462.313 300.909 462.53 302.772 461.864C304.61 461.211 306.013 459.818 306.636 458.044C308.44 452.827 309.994 448.254 311.381 444.078L311.394 444.072ZM309.243 437.438C310.326 439.379 310.538 441.616 309.833 443.753C308.462 447.945 306.947 452.404 305.198 457.397C304.671 458.918 303.479 460.034 301.945 460.475C300.403 460.912 298.798 460.567 297.543 459.539C295.94 458.223 295.39 456.114 296.088 454.028C297.593 449.596 299.102 445.156 300.607 440.724C301.344 438.556 301.293 436.342 300.452 434.155C300.38 433.962 300.296 433.775 300.212 433.588C301.501 433.244 302.785 433.226 304.035 433.524C306.277 434.075 308.132 435.455 309.234 437.434L309.243 437.438ZM293.084 438.465C291.752 442.448 290.389 446.431 289.028 450.404L288.649 451.522C288.494 451.976 288.334 452.323 288.162 452.613C286.948 454.63 284.578 455.451 282.382 454.705C282.211 454.647 282.041 454.589 281.88 454.503C279.707 453.501 278.631 450.886 279.416 448.544C280.937 444.033 282.475 439.539 284.006 435.032C284.147 434.615 284.324 434.221 284.515 433.874C286.266 430.741 289.421 429.225 292.969 429.818C294.956 430.155 296.561 431.123 297.848 432.774C295.545 433.988 293.946 435.895 293.087 438.455L293.084 438.465Z" fill="#71C19B"/>
<path d="M249.389 486.26C251.172 486.855 253.144 486.585 254.772 485.523C256.438 484.441 257.498 482.721 257.673 480.805C257.973 477.686 256.23 475.013 253.232 473.984C251.148 473.276 249.056 472.565 246.973 471.858C244.634 471.063 242.305 470.272 239.966 469.478C239.36 469.272 238.802 469.019 238.301 468.722C236.949 467.914 235.921 466.804 235.274 465.412C237.294 464.44 239.35 464.326 241.566 465.078L244.918 466.217C248.27 467.356 251.622 468.494 254.983 469.636C258.272 470.743 261.878 468.926 263.013 465.584C264.149 462.242 262.399 458.595 259.116 457.469C254.502 455.881 249.882 454.311 245.254 452.76C240.561 451.187 235.167 453.822 233.464 458.492C233.438 458.568 233.416 458.634 233.39 458.71C232.715 460.698 232.681 462.725 233.286 464.737C231.234 466.268 229.968 468.193 229.42 470.616C228.388 475.208 231.026 480.001 235.41 481.522C239.566 482.966 244.14 484.519 249.376 486.266L249.389 486.26ZM231.53 469.252C232.056 468.079 232.852 467.071 233.91 466.258C234.007 466.439 234.104 466.62 234.213 466.795C235.435 468.794 237.16 470.182 239.329 470.919C243.76 472.424 248.201 473.933 252.632 475.438C254.715 476.146 256.049 477.877 256.116 479.949C256.167 481.571 255.457 483.041 254.177 484.011C252.9 484.971 251.292 485.228 249.755 484.716C244.73 483.062 240.27 481.547 236.111 480.081C233.987 479.338 232.341 477.808 231.461 475.766C230.563 473.686 230.598 471.375 231.527 469.262L231.53 469.252ZM234.72 463.904C234.194 461.877 234.404 460.016 235.347 458.234C237.029 455.056 240.153 453.477 243.714 454C244.115 454.063 244.525 454.16 244.942 454.302C249.44 455.829 253.95 457.351 258.454 458.892C260.792 459.686 262.217 462.145 261.679 464.476C261.64 464.653 261.591 464.826 261.534 464.997C260.787 467.193 258.683 468.57 256.354 468.306C256.019 468.267 255.646 468.182 255.192 468.028L254.074 467.648C250.097 466.297 246.105 464.962 242.134 463.592C239.591 462.717 237.095 462.82 234.73 463.907L234.72 463.904Z" fill="#71C19B"/>
<path d="M320.052 510.265C324.468 511.723 329.47 509.525 331.446 505.264C332.487 503.009 332.664 500.714 331.96 498.247C333.666 497.02 334.874 495.392 335.549 493.403C335.575 493.328 335.597 493.261 335.623 493.186C337.121 488.435 334.445 483.069 329.764 481.458C325.15 479.869 320.529 478.3 315.902 476.749C312.613 475.642 309.004 477.468 307.869 480.811C306.733 484.153 308.486 487.79 311.769 488.916C315.117 490.064 318.479 491.206 321.834 492.335L325.186 493.474C327.392 494.223 328.965 495.56 329.972 497.571C328.602 498.278 327.12 498.535 325.556 498.352C324.987 498.286 324.381 498.143 323.775 497.937C321.436 497.143 319.107 496.351 316.768 495.557C314.685 494.849 312.593 494.138 310.51 493.431C307.508 492.411 304.495 493.479 302.832 496.135C301.81 497.773 301.593 499.78 302.259 501.644C302.913 503.481 304.306 504.884 306.08 505.508C311.297 507.312 315.87 508.865 320.046 510.252L320.052 510.265ZM326.686 508.114C324.745 509.197 322.508 509.409 320.371 508.704C316.179 507.333 311.719 505.818 306.727 504.069C305.205 503.542 304.09 502.35 303.649 500.817C303.212 499.274 303.557 497.67 304.585 496.414C305.9 494.812 308.01 494.261 310.096 494.959C314.527 496.464 318.968 497.973 323.399 499.478C325.568 500.215 327.782 500.164 329.968 499.323C330.162 499.251 330.349 499.167 330.536 499.083C330.879 500.372 330.897 501.656 330.599 502.906C330.049 505.148 328.669 507.003 326.689 508.105L326.686 508.114ZM325.656 491.965C321.673 490.633 317.69 489.269 313.716 487.909L312.599 487.529C312.144 487.375 311.797 487.215 311.507 487.042C309.491 485.829 308.669 483.459 309.416 481.262C309.473 481.092 309.531 480.921 309.618 480.761C310.62 478.587 313.235 477.511 315.577 478.296C320.087 479.818 324.582 481.355 329.089 482.887C329.505 483.028 329.899 483.204 330.246 483.396C333.38 485.147 334.895 488.302 334.302 491.85C333.965 493.837 332.998 495.441 331.346 496.728C330.132 494.426 328.225 492.827 325.665 491.968L325.656 491.965Z" fill="#71C19B"/>
<path d="M504.145 509.552C505.602 505.137 503.405 500.134 499.144 498.158C496.889 497.118 494.594 496.94 492.126 497.644C490.9 495.939 489.272 494.731 487.283 494.055C487.207 494.029 487.141 494.007 487.065 493.981C482.315 492.484 476.949 495.16 475.338 499.84C473.749 504.454 472.179 509.075 470.629 513.702C469.522 516.991 471.348 520.6 474.69 521.736C478.033 522.871 481.67 521.118 482.796 517.836C483.944 514.487 485.086 511.126 486.215 507.77L487.354 504.419C488.103 502.212 489.44 500.639 491.451 499.632C492.158 501.002 492.415 502.484 492.232 504.048C492.165 504.617 492.023 505.223 491.817 505.829C491.022 508.168 490.231 510.497 489.437 512.836C488.729 514.919 488.018 517.012 487.311 519.095C486.291 522.096 487.358 525.11 490.015 526.773C491.653 527.794 493.66 528.011 495.523 527.345C497.361 526.691 498.764 525.298 499.387 523.525C501.191 518.308 502.745 513.734 504.132 509.559L504.145 509.552ZM501.994 502.918C503.077 504.86 503.289 507.097 502.584 509.234C501.213 513.425 499.698 517.885 497.949 522.878C497.422 524.399 496.229 525.515 494.696 525.955C493.154 526.392 491.549 526.048 490.293 525.019C488.691 523.704 488.141 521.595 488.839 519.508C490.344 515.077 491.853 510.636 493.358 506.205C494.095 504.037 494.044 501.823 493.203 499.636C493.131 499.443 493.047 499.256 492.963 499.068C494.252 498.725 495.536 498.707 496.786 499.005C499.028 499.555 500.883 500.935 501.985 502.915L501.994 502.918ZM485.845 503.948C484.513 507.931 483.149 511.915 481.789 515.888L481.409 517.005C481.255 517.46 481.094 517.807 480.922 518.097C479.709 520.114 477.339 520.935 475.142 520.189C474.972 520.131 474.801 520.073 474.64 519.987C472.467 518.984 471.391 516.369 472.176 514.027C473.698 509.517 475.235 505.023 476.766 500.516C476.908 500.099 477.084 499.705 477.276 499.358C479.027 496.225 482.182 494.709 485.73 495.302C487.717 495.639 489.321 496.606 490.608 498.258C488.305 499.472 486.707 501.379 485.848 503.939L485.845 503.948Z" fill="#71C19B"/>
<path d="M174.719 348.85L-310.545 184L-496 729.919L-10.7364 894.769L174.719 348.85Z" fill="#71C19B"/>
<path d="M18.8809 344.703C20.3387 340.287 18.1411 335.284 13.8801 333.309C11.625 332.268 9.3302 332.09 6.86271 332.794C5.63601 331.089 4.00802 329.881 2.01962 329.206C1.94387 329.18 1.87758 329.157 1.80183 329.132C-2.94889 327.634 -8.31489 330.31 -9.92603 334.991C-11.5147 339.605 -13.0844 344.226 -14.6351 348.853C-15.7418 352.141 -13.9156 355.751 -10.5732 356.886C-7.23084 358.022 -3.59362 356.268 -2.468 352.986C-1.31986 349.637 -0.177977 346.276 0.951224 342.921L2.08989 339.569C2.83936 337.363 4.17655 335.789 6.18723 334.783C6.89407 336.153 7.15122 337.634 6.96833 339.198C6.90182 339.767 6.7592 340.374 6.55334 340.98C5.75884 343.318 4.96756 345.648 4.17307 347.986C3.46542 350.069 2.75456 352.162 2.04691 354.245C1.02725 357.247 2.09466 360.26 4.75098 361.923C6.38954 362.944 8.3964 363.161 10.2597 362.495C12.0976 361.842 13.5001 360.449 14.1238 358.675C15.9277 353.458 17.4813 348.885 18.8682 344.709L18.8809 344.703ZM16.7306 338.069C17.8136 340.01 18.0253 342.247 17.3205 344.384C15.9494 348.576 14.4344 353.035 12.6855 358.028C12.1581 359.549 10.9659 360.665 9.43276 361.105C7.89021 361.542 6.28571 361.198 5.02984 360.169C3.42775 358.854 2.87694 356.745 3.57512 354.659C5.08048 350.227 6.58906 345.787 8.09442 341.355C8.83101 339.187 8.78044 336.973 7.93914 334.786C7.86752 334.593 7.7832 334.406 7.69889 334.219C8.98793 333.875 10.2719 333.857 11.5225 334.155C13.7646 334.706 15.6193 336.086 16.7211 338.065L16.7306 338.069ZM0.581008 339.099C-0.751018 343.082 -2.11467 347.065 -3.4751 351.038L-3.85466 352.156C-4.00905 352.61 -4.16917 352.957 -4.3416 353.247C-5.55484 355.264 -7.92496 356.085 -10.1217 355.339C-10.2921 355.281 -10.4625 355.223 -10.6233 355.137C-12.7964 354.135 -13.8724 351.52 -13.0874 349.178C-11.5658 344.667 -10.0285 340.173 -8.49736 335.666C-8.35583 335.249 -8.17963 334.855 -7.9879 334.508C-6.23699 331.375 -3.08181 329.859 0.466092 330.452C2.45327 330.789 4.05736 331.757 5.34445 333.408C3.04164 334.622 1.44323 336.529 0.584224 339.089L0.581008 339.099Z" fill="#4E5EA5"/>
<path d="M27.5392 410.896C31.9549 412.353 36.9576 410.156 38.9332 405.895C39.9739 403.64 40.1515 401.345 39.4478 398.877C41.153 397.651 42.3608 396.023 43.0363 394.034C43.062 393.959 43.0846 393.892 43.1103 393.817C44.608 389.066 41.9318 383.7 37.2513 382.089C32.6371 380.5 28.0164 378.93 23.3893 377.38C20.1005 376.273 16.4913 378.099 15.3559 381.441C14.2204 384.784 15.9736 388.421 19.256 389.547C22.6047 390.695 25.966 391.837 29.3211 392.966L32.6729 394.105C34.8791 394.854 36.4526 396.191 37.4594 398.202C36.0892 398.909 34.6078 399.166 33.0435 398.983C32.4746 398.917 31.8683 398.774 31.2623 398.568C28.9235 397.774 26.5943 396.982 24.2556 396.188C22.1725 395.48 20.0799 394.769 17.9968 394.062C14.9953 393.042 11.9818 394.109 10.319 396.766C9.29768 398.404 9.08064 400.411 9.7467 402.274C10.4003 404.112 11.7931 405.515 13.5668 406.138C18.7838 407.942 23.3571 409.496 27.5329 410.883L27.5392 410.896ZM34.1734 408.745C32.2318 409.828 29.9949 410.04 27.858 409.335C23.6663 407.964 19.2066 406.449 14.2138 404.7C12.6926 404.173 11.5768 402.981 11.1365 401.447C10.6995 399.905 11.0439 398.3 12.0725 397.045C13.3877 395.442 15.497 394.892 17.5833 395.59C22.0146 397.095 26.4553 398.604 30.8866 400.109C33.0549 400.846 35.2688 400.795 37.4557 399.954C37.649 399.882 37.836 399.798 38.0231 399.714C38.3667 401.003 38.3847 402.287 38.0866 403.537C37.5361 405.779 36.1562 407.634 34.1766 408.736L34.1734 408.745ZM33.1433 392.596C29.1601 391.264 25.177 389.9 21.2034 388.54L20.0862 388.16C19.6317 388.006 19.2847 387.846 18.9948 387.673C16.9778 386.46 16.1566 384.09 16.9028 381.893C16.9607 381.723 17.0186 381.552 17.1049 381.391C18.1072 379.218 20.7222 378.142 23.0642 378.927C27.5744 380.449 32.0688 381.986 36.5758 383.517C36.9925 383.659 37.3867 383.835 37.7335 384.027C40.8668 385.778 42.3825 388.933 41.7898 392.481C41.4527 394.468 40.4853 396.072 38.8335 397.359C37.6197 395.056 35.7125 393.458 33.1528 392.599L33.1433 392.596Z" fill="#4E5EA5"/>
</g>
<defs>
<filter id="filter0_d_136_6376" x="-683.5" y="0.5" width="1530.98" height="1250.62" filterUnits="userSpaceOnUse" color-interpolation-filters="sRGB">
<feFlood flood-opacity="0" result="BackgroundImageFix"/>
<feColorMatrix in="SourceAlpha" type="matrix" values="0 0 0 0 0 0 0 0 0 0 0 0 0 0 0 0 0 0 127 0" result="hardAlpha"/>
<feOffset dy="4"/>
<feGaussianBlur stdDeviation="93.75"/>
<feComposite in2="hardAlpha" operator="out"/>
<feColorMatrix type="matrix" values="0 0 0 0 0 0 0 0 0 0 0 0 0 0 0 0 0 0 0.25 0"/>
<feBlend mode="normal" in2="BackgroundImageFix" result="effect1_dropShadow_136_6376"/>
<feBlend mode="normal" in="SourceGraphic" in2="effect1_dropShadow_136_6376" result="shape"/>
</filter>
</defs>
</svg>
